<mxfile host="app.diagrams.net" modified="2024-07-21T07:48:55.818Z" agent="Mozilla/5.0 (Windows NT 10.0; Win64; x64) AppleWebKit/537.36 (KHTML, like Gecko) Chrome/126.0.0.0 Safari/537.36" etag="r3sLob95TjCbHn9IUwDC" version="24.7.1" type="device">
  <diagram name="ページ1" id="vY-0xSJ_UScqvCO2DKuw">
    <mxGraphModel dx="1540" dy="1146" grid="1" gridSize="10" guides="1" tooltips="1" connect="1" arrows="1" fold="1" page="1" pageScale="1" pageWidth="827" pageHeight="1169" math="0" shadow="0">
      <root>
        <mxCell id="0" />
        <mxCell id="1" parent="0" />
        <mxCell id="fEDAulFBuKIm05n7aj-W-15" value="" style="shape=image;verticalLabelPosition=bottom;labelBackgroundColor=default;verticalAlign=top;aspect=fixed;imageAspect=0;image=data:image/png,iVBORw0KGgoAAAANSUhEUgAABDoAAASCCAYAAABTtIyhAAAAAXNSR0IArs4c6QAAAARnQU1BAACxjwv8YQUAAAAJcEhZcwAADsMAAA7DAcdvqGQAAP+lSURBVHhe7N0JXFTl/gbwZ3BhccEFFXLLJROXRM0QNde0cmkRtcS0TCvN0v5qXnOpLLdMvGmRVpotVyxNrVxyubldFalUcrcUcwtUUkEFAWH+53fmHBhwBgaYGWB4vn1OM3Nm5sxyDuO8z7zv7wURERERERERkaswqP+feNionhIRERERERERFVezmxkygo663/RWzxIRERERERERFTdnnl6nBh1u2mUiIiIiIiIiomKPQQcRERERERERuQwGHURERERERETkMhh0EBEREREREZHLYNBBRERERERERC6jRM664ubmBnd3d5RSTuU8tMlniIgsMRqNSEtLw+3bt5GSkqKtJSIiIiKiokSfdcVuQYcEB16enihTtixKlyqFUspiK7UBoSypSgMiMSkJycnJ2jX2Vb58efU5ynMlIsoP+bxKUj6nbty8idTUVG2tAxmNMCof1QblVEJZ5f/qOoOc19apH+T67eQ8EREREVEJZJfpZeWLtoQHfn5+qF6tmnrevWzZPIUcQm4v95P7y3ZkexWU87J9eyhXrhzuUrZZuVIlhhxEVCDyeSWfVb41aqBqlSqmXmEOoAYaQg8vtM9D+b/+2SinGZ+S5ucVGfcnIiIiIiph8v0NXb7s16heXQ0PpAeHPcn2KinbraE0JGR4SUF4V6yIKpUr5zl8ISLKjZeXl/o5aM/PFz2gMA8t8kO/PwMPIiIiIipp8pUilClTBtWVL/dy6khlSpdWww45zQ9vb29UrFhRu0REZH+l5XPKTmGHhBIFDTiyU7cnQ1yIiIiIiEqIPAcdbgYDqvn42L0XhzXSePBRHi+vw1g8PDxQsUIF7RIRkeOon1NVq2qXCsBBgQRjDiIiIiIqSfIcdFT18XH6MBD5xVTGwttKnl9ebk9EVFBly5ZFJW9v7VLe6EGEveoSZadvl4EHEREREZUEeQo6PD094VFIxTzlsWWxhdTlcFSBQCIiaypUqKAGs3kivTicNLRE4g6GHURERETk6mxOA2TISn5/rbQXWx5fAg6ZZYWIqDDIjCw2k4BD+Wx1VE8OS9SwgzU7iIiIiMiF2Rx0uHt45P2XSjuTx5faGzmRWRAKwt3DEw3vbYz2nbqia4+e6tKhUzc0atxEeWzbepQQUcnlZWPPM5UTAw5zzgxWiIiIiIiczfRtd+JhY91veqtnrZEpWotCT4kbN27g6rVr2qU7Va9WDe55GF4jv2zKl/5SbqXQNKAV/Jvdh2o+1dV1+q+eKanJMKYbcf36dRw7/DsORe1Henpaxn2JiMxdvHQJKSkp2iXL5NOlsD49+NlFRERERK7ozNPrgNnNDDb36HD0VLK2koJ/OcnL89S/7Lu7e6DrI73VnhsVyldA9Kk/EbFrBzat/x4bleVS7EW10SLbDnqwC7o/2gfuZT2yhCFERDpbPocKEjNUq1YNTZo0UU/zgyEHEREREbky07ddG3p03OXn5/TZVixJS0vD3zEx2qU71a5VSzuXMz3kkNfUtUcvdWjK5csXceDXvfjzj+NyA/V25StURK/H+8HTywupqammdeUr4vSpP/DzpnXq8+Gvo0XfggUL8Pvvv2PJkiXaGuvkthEREVi+fLm2Jm8ee+wxPPTQQ+r5P/74Ax999JF6Pj/y+1wGDhyIoKAgjB49WluTs1mzZuHkyZM2vT+Uu/j4eCRcv65dulNBPzP69euHfsHB+G7VKnz33Xfa2rzjZxcRERGRYwU+8AAGDRqE6tWra2us+1P5Pj516lTtUvGx8aef8N5772Hb9u3aGutk9MXSzz9HiPKeOILeo8PmoKNWzZpF4guxfDE/f+GCdulOtgYduvta3o8HuzyEuEsX8fPmDeqpZBxlypRGsxatcHf9hvCuVBnp6enaPUxhS0XvStizcysOHvhNW2sbabha+xX20KFDmDlzpnbJdpMmTYKvr6/NjVp7uO+++9C7d2/Ur18/Y0jT33//jbVr12K7coDL64yNjc3X67FVXhrzb7/9tvpH9cYbb2hrLOvcuTNeeuklfPLJJ+rryIm8B7K9y5cv48qVK4iLi8Phw4fRrl077NmzR72/BAj6Y1oLK06cOKE+P0u+/PJLbNy40aFBx7hx49TXsnTpUquvediwYWjTpg28vb3V3k2nT5/G6tWrcfDgQe0WxUezZs3UY/eDDz7ArVu3tLUmUgPotddew7p169R9mV8JCQmIVxZrCjpsxW5Bh7Iw5iAiIiJyjEaNGqntoRkzZthUXkFCEWkrTilmYUenTp2w8OOPMeqVV7Bt2zZt7Z3kPfh8yRLcVtrTzz77rLbWvvI8dCU/IYe/v792zrLcrrfEnmGLFB5t0rwFUpWG277ICDXkcHMrpTwG1ICj3YNdULFSJTXYkMfVF5nZJfHmDfW+eS1QKg1PaYTKIg1kCTf0y44MBexJGsUvv/yyGq5IbwMJBaQh/s8//8DPz0+7VcFIr4jFixdrlwpO6qvcddddaigk4cOiRYvU9zy71q1bq4FNbiGHkEa+bEveA2n816tXD3379lUbyHIqYc8Fs1BO38/68tdff6m//EtgYI0M1cot5JDrsy/y/smHpPk6S6/3FeXDSPbnKqXBbO01y/2kh8qff/6pnpdApFatWha3Vxz06NEDLVq0wL/+9a8sxY3lvKyT6+Q2jlRUwgWGHERERESOU7lyZdy+fRsHDhzA3r17c18iI9Hwnnu0excfO3bswEilffjRhx+qoYclek8OaU+/+OKL2lrHsTnoyKuuXbvizTffxODBg7U1Wcl6uf7BBx/U1jhf7Tp3o6pPNVw4f1atyyFvutFo6rnhe5f0YAFKlSqtjreXniTm0tPSUKFCRdSue7e2puQYPnw4bt68qYY2MtRBGsg//vijGtRIg9oepJdIQYvf6g18CUzq1q2rDj2ScEbChw0bNlh8rhK+SW8FW0nYIduR1y49I+Q9kfdCTmWxNGxFggUJQcSIESPu6BUh1+nPXejnZbEULsi67Is8BwnSzNfp29NJGCK9NKTHiNzeGgmIJJQJDQ1VL8v+jo6Oxt13F89j/0PlA1iGMTVu3Dgj7NBDDlkn18ltiIiIiIjINhJ2vDxqFD4OC7sj7NBDDjH0+eeRnJysnnckhwUdMtRDwoGePXveEXbIZVkv15sPCXG2Gn53wc3ghhil4avPoqIHGufO/IXfIiPw+75fEPP3ebiVclN7dkjAIdzUeiUG1PC9S71sLzJEQHobSKNUhi1IjwFpGJuTYQ5yndxGrrdUoFV6LkgDX24jp3LZGmnA6g1vIcM35H5ymp3eU0CGqORGnpc8P/21SBBgTq7TX4c8R9m2kOeqn5frZMkPvYEvwYyEDtLzQqYflvDBUsNeHlNCrZ07d2prbCO9IvQQIDfyGPJ8pHaHtWE08lzledsSVuSXPI/g4GD8+uuvuW5TXpul5yrPrTiSwEtekx52TJw4UV30kEOu0+vxEBERERGRbSyFHYURcgiHBR3yq++nn36qnpdQ4+mnn1bPy6lcFnL97t271fOFQd506cFx/Xo8SpcurfbeKKWcSohx5vQpRO7Zif2/7sXv+35VZ1nxKldOLUrq6emJxJs31X7fZd0zu74XlIQcHTt2VBuf0qiVIQLS3UkaxjoJOaRXglwnt5G6EDJkwpzcpk6dOmpDWW7z888/495777UadkhoIbUX5LZChl3IkBpLQxmkvoEMt7A2zMGcPC8pcCnbldd0//33ZwQYQoaT6K/j/PnzGddJ7wg9iJDr9OdVUNL7JDExUQ0mLGnVqpU6bCWvdSekV4T8UedGXp8sEgDJffSAR/ZL9jBLyPsntT+EPGc9uNKX7CRI0oOjbt26aWvvJAGWHnLkp1CqHKdVq1bFf//7X21N8aOHHVIfRf42ZCmqIYf0fPtG2afmi9TnEHKa/Tq5PRERERFRYdDDDqnZ8XCPHmpNDukw4MyQQzgs6BDSGP5cS28ef/xx9Qu4nApZb0tj2ZEMBjekKI2aNm3bo3/IcxjwzFA8NWgonhwwCD16PY469Rqot5MeHTt+3oQz0adw/uwZ/BKxC0cORaFMaftOuSuNX2l46TNfyPvzzTffqD0opIEsjWFpkMnBo7930jCTsENnfhs9LJCGrzRqZb0lsi1p3EvxSgkVpNdDTvVCpB6FLSQ00F+LNKhluMs9ZmPO5DH01yGnBR2qYguphxEQEGCxt4rUnZA/PgkLJFSwdBtrzJ+7vIeyX8xJUCHrpReE7BspviOXZR9JKGWpGI+ECefOnVPPS92P//znP+p99MWcHB8y7MY8OLI2FbPUIUlKSspzyKEPqZEwTo4BGc5CRERERFQQf50+neeFijY17JCaHUp7o3z58hj+wgtODTmEQ4MOsWXLFnz11Vfqeb34qFyW9YUt+VYSjOlGUx0Od3e1h0dZZSlfvgLq1K2Prt0fRc3addTbnjh2GJs3/ICNa9fg9/2/wtPTC6VKl1J2WNZZGwpCelVkrw+hBwHSkG7atKl6Pvuv+VIEVJfTbaw1fIU0zOV66QkgPUDsQXpsmJPeFPIe6/QhH9KAlplOHEEeQx8KJMszzzyjrpeeRea9KKSXgh5WyHOSQEJmT7FGtqv3kJGhLo888khGj5QjR46odS30oEROpSeMPL4MATHfNxJ0SJglt8/eq8PHxwenTp1Sz8txoB8LtpLjyRL525OgQt53Sz1JrNGH1EjhUulpJB9exZUMUZIeMBL+SbgoixQhlXVyXVEin5fvvPtulmWHNrxKTp9W9on58s4776jXERERERUHd9erl+eFijZp80n76uy5c+oP3W3bttWucR6HBx3ip59+ygg75FQuFwUXY/9W/m+qyyG1N6RLjb7IrCrS8G/QqLF6WylUKpRbq8HIXTVrqvVFLsbINlyDNH5z61Vx8eJFtYdJXhrIlkhIII3/o0ePqkMgsvdQsAf9MfShQLJIsHDs2LE7eqU0bNhQHZIjw36kd4uENNKjQichhtQU0dVU9r9Oeq3IY+i9buT+0ptFek4ICSik6Kj0gNB7RZjXJNEDDPPinnKdDKGwNdyQ1yUFQocOHZolSLFEnp+EFtLDRsKKvO5LeSxJaSVI0V9DcaKHHBJsHD9+HLNnz1YXOV8Uww45buTvxHwprvVRiIiIiMi16TU5SpUqpZaskNlYLBUodTSnBB1Cwg1pRBaVkENIwVFp0Mp0sebkcpmy7ihdugw8teljJQzRw4569Rvirlp18E/cZZw7a7/u+9LwzF5vQ+8VEBMTo14vsg+pkKEPOrmdyB4cSKNdv78l0rgTUjMlp4NQGvUSEhQ0mJA6I2fPnlW3Jw1nRwQd9evXVwMIffiMkMeSHhvS0NdrcUhDX3pUyG110rPGvLErAZB5CCRhjwwn0Um3LL1wqJCgQ7Zprnfv3uo+kNtIKKGHBHJZ3lN5bjqpF5LXxqwMBdKHxMiQl+xhTnbSu+Tq1au5hh0SGMnfriUJCQnaueLj1VdfzQg53nvvPdy6dUtd5LwedshtHCnrHE6Fp6g8DyIiIiIq/vSQQ+g1OdRhLFZmY3EkpwUdQrqHFyW3biXh6KHf4VWufMYsMZI83bx5A9t/3oi1a1Zg/6+Rmb05lOt9qtdA68AglClbVr2vDH+xF5kVRLrSSzcfIYGGDLGQ901+2ZeGsDR+ZZ1cJ41TaYRKIVWd3E5uLweReUNa6n/I9i3RtyU9K6TBLtvTh2VYItORSiNeAgPZttxXTuU+cmoL6a0g4YvcVx5f6oOY03sl2Lq9gpCaE/J8zAMRYT7UR/ZLbGysel5/TubBhJDgRA83JOiQoSfZyTblNes1UOQ9lGEv5iGLkCBICrkKeV9z2h/ZyfZlf9syTa6EHbn17JAwQwI4/XXL/pLjS45FW3ucFCWbN29WC4/qIYdODzvkOrkNERERERHZxlLIoTMPO9pla/c5is1BhwznKArs9Tz0aWSPHNyP6D9PoEIFbxjT09XeHMlKg+dM9EmcO3Maly/FZtz2nnv90bVHT/hUq4E/jh1V7ntAXa9fX1D6EAhp9EtDX4YhSK8H81/TZciDNEylpoXeC0N6B5iT20ujXGbWkO1I3Q2pI5G9Ia+TWVakYa433PVZWqRBa4lsU+o0CGmkS2NZTitUqKDWp7CFPvRB7it1MyzN4CEzv0hYI8VB80PeF3kvJTiy1ogX0ojP/h7K65DnJ/eT5yC32bNnj3qdhBnZby9kvT5jh7xH5kVixbp169RTvU6H3kNE9o15YVB532VmH31/yYeEHgrlRO4ngYgcF9KbQwqv2kJ/f63V3JDnJiGOHEf6cSk9QeRYLI6kJ44MVTEPOXSyTq4z763jEHb6zCiwovI8iIiIiFyQ/Fz+94ULpgs2kO/9ly5d0i4VHzmFHDo97Pjkk0+cEnaYuipMPGys+01v9aw1NapXz7GYpbNIA+5iDju/dq1a2rncSUAhvTVk6tjO3R9BvYaNkJR4U90x0Sf/wJU4eRwDvCtXQQ1fP9xVs5Y6neyfJ45h58+blNvdytgGOZ/0MJAgQ4ahWCNFQxs1aqQONTGn906Q8EDuLzOaZO+dIKFB8+bN1WBJesNYCoqkR4bei0NuJyGRhAEFIc9ZaoBIICLkOcrzlccx/xvUX4OQMEaCLQlXfvvttzw/B3kMmcZYwpHi2EujqJFeMPEOHNYjx7Ms165dU0NKIiIiIiqaloeHq+UF9DZDTqRn/dy5c7E3MlJbUzzID6dllOduyxSy8uPpgvnz0bRZM22NfZ15eh0wu5nWQrch6KhSuXKuhSqdQRqTV65e1S7dKS9Bh9CDCje3Umge0Ar+ze5DRe9Kpgal9mOnXC+3uxx3CccOH8SRqP1IS09jyFHIbAk6iAqDTUGH8vmhfIBoF5yLn11EREREzmPrrCPSa7qolXsobvIcdEhXeh+zWSgKS9w//yApyXpdjLwGHdl5eHii9t31UL2Gn9oFR0jPDZmh5dyZM3atyUEFw6CDiipH9+ggIiIiIqI75TnokF///Hx91WKdhUXqc/ytzSpiTUGDDiKigpKQw5YZaQqrZwV7dBARERGRK9KDDpuLkcoX44Tr17VLhSO3X0izTxNLRFQYbA0RCitsYMhBRERERK4sT8nAjRs3ci0u4igyXEXqc+SEQQcRFQWl89jzzVlzn3COFSIiIiIqCfKcDEiNjNu3b2uXnEOGrPxz5Yp2ybrCHFZDRKTLa+gq/SskhJCec46gb5f9OIiIiIioJMhz0JGenq6GHXLqDPI4l+PibGoAlC1TRjtHRFR48jMVt4QQjhhSon52cqgKEREREZUg+RrrkZqaqhYFzWn2E3tITExUH0cezxYyMwwRUWGTHh36rE15JcGEPXp3qPfXtsGYg4iIiIhKknwXtZAv0dKzQ3pb2BpE2EqGxly6fFkdrmLrl/2CNCyIiOzNK5/Bq/TqUIOJAvbC0LfBwqNEREREVNLkO+jQ3bp1C7EXL6rBhFqsNCVFramRF3J7uZ/cX7YTExub56KnFStU0M4RERU+Ly+vAtUNMo8n1LhXC33l/3oALKcZUbD5ecGAg4iIiIhKKNM34YmHjXW/6a2eLY5Kly4NP19f7RIRUdEgM0VduXpVu0RERERERI505ul1wOxmhgL36Chs0i3bp2pV7RIRUdFRrlw5tWcHERERERE5T7EPOqr5+KAMZ1shoiKqapUqrB9ERERERORExTroqFq1KhsQRFTkSa8zD35WERERERE5RbEMOmSGlRrVq+d7VgMiImeSz6xq1aqxaDIRERERkRMUu6CjnJeXGnKULVtWW0NEVDx4e3ujerVqagFlIiIiIiJyjGIRdEgNjvLly6szq1SpUoWNBCIqtmS4nXyWSejBwJaIiIiIyP6KZNDh6emJihUrqkX87vLzg2+NGqhcqRIDDiJyGTKMRXqn1bzrLrWGh7fymSeffUREREREVDAG9f8TDxvrftNbPZudh4cH3MuWVXtVyK+PpUqV0q4hIiIiIiIiInK81Nu3kZKSglRlSVYWOZ/dmafXAbObGaz26JDeE9WrV1enb5XeFfJLI0MOIiIiIiIiInK2MqVLqzU7K1WqpPaMrly5MgwGU9+N7CwGHeXLlVPvKD05iIiIiIiIiIiKEsktpMxF2TJltDWZ7gg6yik3lmREpkMkIiIiIiIiIiqKZCRKjRo17qjnmSXNkCul6CcRERERERERUXEgE5mYyxJ0yJXWxrgQERERERERERU1MnGK1BbVZQQd7u7u6pVERERERERERMVJhfLltXNmQQdDDiIiIiIiIiIqjszrjJrGqUw8bGy15Vl4eXqqF4mKgrS0NKSmpuL27dtIT09XL8tCREREROQMpUqVUhtPcir1DMuUKaOeJ3Iko9GY55IS+bmPK9rVYREwu5khc+gKe3RQESDBxvXr1/HPP//g6tWruHHjBm7duoWUlBSGHERERETkVPoPb/J9VL6XyvdT+Z4q31dlPZEj5CewYMiRVUbQwWSSCpP8IxIfH68uycnJaiJJRERERFTUyPdU+b4q31sTEhL4YxwVmBxT9m7/OGKbxUnmIBaiQiBDUvR0nKk4ERERERUn0utY74Us32uJ8kIPIqQ3hr17ZOjbK6lhB4MOKjTyj4Gk4NIVkIiIiIiouJLvszKchWEH5YWjh5s4IkApLhh0UKGQLn7Xrl1TC40SERERERV30jtZhrNwKAvlpjB6WZS0nh0MOsjp5B8BCTlsSbwlgZTq1p6enihXrhwqVKiQsXh5ecHd3T3LNELOVpLHvRERERHZi6t8p+KPeZQbOdYLo5eFPGZJarsw6CCnkj8uGcOY2x+ZFMeVMKNKlSrw9vZWQw4JOyTY0BcJOvTbVKpUSb3ekSw955LaFYyIiIjInrJ/pyrODTL9+y6HsVB2xfm4Lm5MnygTDxs77BqhniVyJOnOl1PRUflHTgIMDw+PfIUIkp7LPyxM0YmIiIiKN2kUFucflaRXsvxgR6Sz7ZiWMMR0mwrlysC/VlnUrgTUqlIKPuWUde4G3EgxIsnNE+evu+HUmQQcOn4N8Wll1PsoDyKNKtP5EmhXh0XA7GbaO8Cgg5xAn3/cGvmjl38MSpcura3JH/kAuXnzpt2KnBb3f2SJiIiIqHCUL19e/QGPyDamkKO8V2k80qk2HutaB1XS45Fw4SKSUtJw+3Ya0tONqF63Bqo3rAOUTkH0+SpYe7Mt/tzyA/6M+B8Sb0u7JTMsscSV2zd60MGhK+QUevhgjQxVkeEnBQ05hPzRyj8q0jNEHrcgGHIQERERUX7J99+Cfh+1l/r16+O1117DtGnT8MQTT9jle3dx1qhJgLpUrearrXEcW44BU5PDgMb1KuKzGQ9izPDmqOfnCaOhNBKSgZTUNOB2MipXdodPrarKRlPxd0x5rPF8GsnN28L/1VkY8lxv1KskPdsNyn/WH1PaN0XluHQUBh3kFImJiTn+MVWsWFENO+xJgo6C1O1gyEFERERUNNi7UdaoUSPtnGPJ85bvwYVNepU8//zzqFmzpvoduX379ujcubN2rXP5+PiooYucFqbXpn6gLm07PaKtcQxb2hQSSsgh3uqe8njv/1qiVnUv/H2xKqLSHkJKmbtQ2R0ojbK4XTUA8bUew59unfHH9WbYVKonEr19YbyagGspabjaZgiG97kHzWsqj6v26Ci5YYepZdnh5bfrnF2nniWyN71uhjW2DleR2VV8fX3VJSkpyaY6HDI2MiUlJd9/xAw6iIiIiAqf3iizx3ezFi1aYMCAAdi+fbu2xrHkO2t+68/lh4QZgYGBaNiwIRo0aKAu9913H+rWravdwkR+aJRe0PptZJEe1nFxcQ4tpCrf/eU7ujxGTm0ER+vV7zn19M9jUfjzaJR63lFy3vfSTjGglk9pvPns3UpbpzISrnthp6EbdqXcjT8ulYbRUB6n730Gx+o+gWMVWuLPUvfgyO1aiPeshrJIg9KYQqm0FNwoWwUVU2+gS4XD+P2C8v7KSH5pB+Xw+I48LuV4GjJkCB599FG1TXb+/HntGsc5W6c3sOvjaaZX5cQaHdKgfeihh/Df//632BSMlJ0vHwx//fWXtqboqlGjBu655x5Uq1YNVatWxdWrV3HmzBkcPnw4o2bFoEGD1A+2hQsXqpcdTbrsSTBhiSTKsuTE398fPXr0QEBAQJYxjvKHsnfvXmzYsMHq9oVM8yXvQ17owYiz/kEiIiIiopzZK+gYP348mjZtiunTp+PUqVPaWseSXsYyi6Cj3XvvvRg+fLh2KX+kzRMWFqZdsj8/Pz/1/ZDv7zExMdpa5/t4uSnoWr/qC6z/7gv1vCPketwq15cpY8A7g+9CgH91lHUvjyOGQCyMaYqEa/Go6OmBmo0bomxFDxhTkmFAOgxK+8bgVgqlPTyB9DSkJycDpUrDqLS1008fRpeoOYiJu4UF2y8hNS3datBhr78pax555BF069ZNPS8TUrz55psOzwAKpUaHhBzPPfec+mIl1SkupGuVBB3NmjXT1hQ98t727dtX/eB+/PHH0a5dO/WDrm3btnjqqafUg0rCAhkeUqdOHfU1OUuy/OFZIH9UOQ0tkevGjh2rPnd5HdkLOdWqVQv9+vXDggULcP/992tr7ySvObcwxRJD31Cs2bIGc5/UVjjZ+CVbsGXJeO0S8OTcNdiyZi4K6elQLh4YG4alYWPxgHbZPh7A2LClWDptoHa5EDwwFmFLwzDWvi+MiIioUEgjW0IOId+NncXa92F7q127tnp65MgRbNmifJfM4yI/jOrbICdR2kTdA8qj+d3lcSMxFUaDByLjqyFBOe+ONFSoWgHl3NOBGwkok5YKt7R0lPUsjzJKG+f60QM4s2oZTi5fitPrfsCfkb/jj6seOHrDFzU93BBQU2lrOTDIyE1hTrHstKBDhh0MHTpUbXyfPXsWmzdv1q4p+iTVTEhIUHtING/eXFtbdEhDXpLboKAg9fLvv/+Ozz77DO+99x7+/e9/Y+PGjWpi2r17d7z44otqVzFnkd4U1g5wCR+sJYgSarz99tto06aNuo0dO3Zg0qRJGDhwoLpIYLZkyRJcunRJ7XI3btw4dOnSRbv3ndzd3TN6aZCd1e+OV2d+gE+XKg1yWcJmYmzPe5E9wqrYeRhmfqDdRlk+mDYELbPfyKZtVUTnYTPxgX6bpR9g2pCWdzyeuXtHvI+ln05Bv5xuVAh6TvkUSz94FUUpQu35L+U5fToNA22ty3XvCLy/9FNMkTfXtz2GTXkfYRn75lN8MHMYOlfUbktERFTI5BdmnfxQVrlyZe2SY8n3YflO62jS5hLSm1vaW3ldpJ6IvevmlWS29JioVM4NPVqWR3JqOkrDiKvJ7jh9yxtuKUm4rTSjLl2Kx6EDp3DreqLao8PD0xM3Tx3BHyuX4tTaFbh9+gg8EmKQfmIvDFFbcCMhCSm166POvUY83rEiKnpZb/I7sjeHkDbcgQMHEB0djS+++MKpIzqcEnTIH9ywYcPUoj8Scnz66adOSzXtQT6UDh48qIYdVapUKXJhR58+fdQxdadPn8a8efPwn//8B3/88Yc6vu7vv//Gzz//jLlz56oHmPTkqFChgnZPx7O2n+WPPnsPDXMjR45Ue578888/mDx5MhYtWqS+Pp1sV4Y/SY+PTZs2qesk7LHWU0U+sMuWLatdIlt0Hr8Qa76dmXMPEs/u+Ne4ELTyScXxlQswe0E4dsV5o3n/cZho1lL2bD8W7zzbAd7xuxC+YDYWbz4F1OmC0e8MQ8Yes2lbnmg/9h0828Eb8bvCsWD2Ypg2NRrvDLPWS6kZejT2QeKpXfhORjjdOxBTPngfrxZ2DwXPfmhVpwxi9q/EYW2V/XTGq++HYYoTOoI069EYPomnsEve3Dqt0MArBpHhyv6bvQDh284Cfh3w7Duv2rmnCxERlUTSKCvID1fy45j0ehYyrFnaKHq3emcoTu0fsg9bgoR7a5ZFzaru6vSxpZCOG26VcSXmEoypyShTsbLScAI8PN2V49dDXXf2h2WIXvk5Kh7/FW3i/sTo4c/gncmvo0WLZsCVCzCc+B9OxJVFoqESGinbvucud+2RnE+O+fDwcLVkgrRPncnhQUdxDzl0RTXsuOuuu9SqyVKvQt7b7OPcZPiHhCByu4iICKf3arCW2knoYO0PX3r9PPDAA2rBmtmzZ6s1RnT9+/fHxx9/rBa2EbJfJB3cvXu3eqxJ/RFrpFeHrRydbhYHlX19UT63cKhLoNKwlWDiTczbcAAnDmzBkrcWYn98GdRp3kPrZeGL/r2awzt+Pxa+tQRbDpzA7uXTMXvzWaT6tEJ/veC3Ldvy7Y9ezb0Rv38h3lqyBQdO7Mby6bOx+WwqfFr1V5r3FnTuhcbe8Ti+Xis45u0HP28vOK9fk2W+/VuhAU5h/8pYbY09+cHHJ3+vccN7L2Loi29huU1PqzN6NVb2x/H1UN/dXz7EpEnz8NUWZf+dOIAtXyn7eVec8p43RgcmHUREZAcF+Y4ms4zIcO8LFy6ojS/RtWtXdZ0zOPPXbGmr5OW7b0ng6ZV7jRRbbpMXtrS9mt3tgVKl3WBQmuZy63SjJ65vW45Sh7cCcReApBvwSL2Bf37dhb+++RyXfotA4P2tMPiRrmhxah/SjuxXC7ze17gRrl44izJJ/+By7BXs/KMUvEqXwv0Ncu7S7Oz2obM4NOhwlZBDVxTDjo4dO6qnMjzF0oenBBwjRoxQFwkBnN2At/aHk1OXOH285A8//GCxMq/0BJFjy9yXX36pHltNmjRRa3dY4swhOyVLKlITzYvBxiExVTlJlf8pfHuhuZ+y9lDWngux3x9HDLxQp1V7bY3IeVu+vZorTfg4HFqZZUv4/ngM4FUHWTal8kS/Dg3gFbMfWe5S6Jqhfyu/zF4mxZRnvw5qD479Oby5scq+SUQZlPHWVhARETmIBBYyHEV6aQQHB6u9fWV487vvvosPP/xQXSekFsX+/ftx7do19UdB+RHt/fffV4dJjxo1Cs888wx69eqFDh06qDOY2IszGpTXr19X2yzynViGrOc3xHHWkB5nqVrNF2/MWoxuvZ7S1tzJu7IPJs1ekuNt8sqWttfd1cooX3XTkZ52G57lyuPIvgNo1qAOGnqXRql9G+D1+0YkbV+DuL07gZTbKOPhiXYBTbEl6iAupxuQdOKwqVRAWipS1P1vRLkyaYi4UA6f7vVGKYP1XvTCVX/gdVjQIQ1RqckhIYdMGyTDDKQBaj59kbWlsEgvgdwWGfYhPQykaqyEHYVdoFSmjZLn8ueff2prsrpy5codRYb0xRnkg9aS7EGFuVatWqmnO3cqf8zZrFy5Up0DXF6XOflQl/FfQr9/dvYZb3g/nnp7Cdasz3wf169ZgpkjO6OGdgtdg16TsPDbNZnv+fo1WDLJ1OfgviffVq9br1+3ZQ2+njtS2boNOo/Bgm/XZ2x3zZJJ6JXtwe9/6m0sWZN5G/WxZ45E5yy3ux8jZ5q/lvVYs3A8Oj85F2uUyy+3KA+Ub4GX1etMRVl9B07Dp1KPoaeWDG/YjEPxXmje/1/oea+yztMX7YeNRqBPPA5t/h5qG15p0HsrTd2Y49m6CCSdQnwi4OVdx3TZhm218lNay4kxuHNT8cojeEHfVAbf/milfKSc2r8SsXphz5HNlVsqjzPSVEciTKuy6dt+GKa8H5ZZH2RpGGaO7Z45tEbh2XKIehvT9coS9j5etTYFvWdLDJv5qXK7D/Bq+2xJevZeJsLzXvQcOzOzvsWnH2BKP8vzy8vzmPaBbNt027D3/4V+8p4pBk6TdT0gb0WdHtq29GKmzfphrHkNFKmhka1Wiu1FVX3R3/TmIqdOKb6N/ZR3Ow4xh7QVREREDiI/+knD/umnn0bv3r3VXs/yXV3aIDJsRUjdOunlLA3DrVu3quvkxzAfHx915kI9KJGC9/KDYnx8vHobe7D2vdie5LXJbDIyZF2GgedUsD8nEvqEhITk+J29OBkyciJ8qvsh+JmRePiJZ7S1mSTkGPf2h2ogIrdpcK99ftC2JdzyqVgat9ONKOfphvgEIyJ/v4QXXn0VDzaqCUPyTZRV2jClDEaU8SwHqXxY1t0df34yF79u3IDSStvUWNb0I/DRw0dhLFVaDjS4paYot3fHycTK2Pp3zoXXHBnASftZArcpU6aok0s4k8OO3MGDB6Nx48bqeflgkcap3rMgt6WwyJzatizSk0PvHSAFSvXKzYVBpqmS6VutFfyU8YeWCg3J4gzWnpe10EFej/TYkEJIUmMkO/lHR2ZhqV69urYmkz79r+wTx7gf45dMw/D2vrhxahMWz5iBGYs34dQNX7Tp+zpmjs/8h6TGk3Mx97UuSmMzFru/+QAzZizGut+vKH8MpnS8QZsGqHLlGLap132Ab369gSot+mLMpPvU662rjadf74xyx1bjA2Wbm45dQdk6XfDy5Mzk+f7xSzBteHv43jiFTYuV5yi3O3UDvm364vWZ4zPClCfnTkbfNlVwZfdi5TYzsHjTKdwo74vKe77C+8rl1cduADeOYbW8zhnv46s92h2z+AUfvhmO42Uao//Ej7H041kY3sEHMZtDMW+31lXBuwzKqD01TBcz/YIY2cU+flqjOvdtecvfXWoq7txUjNKUlk1lbZ43698KfqlncXy93P8QwkNnY/bK48r9E3F8pXJ+9myEhpta4HWURrt3/CFs0+tLRMbDp3kIhg/R/nHwHYiJI2WfnsLKBcp91RoiXvL0LaiPgRNHooNfIg4tfgMf6u+FSutlEn8K2zI6Qsjtx6F/c2/EqbVHZmPxthh493gCjbN1RJJ6J7NGd1Fe1ylsXqw8j8WbEaO8Z73GjYPkT+tl3exdkEFsMbtMr3H24vWmOzdvrDz/s4hcuVhdv3jzWbVWyvDR1tKaHDTrj1Z+qTh7fL0p0MrO0xcte47FuEAfxO9fn2MYQkREZC979+5V/42TH1p127dvxxtvvIExY8bglVdeUYdHi7Vr16p14WTWwjlz5mS5j/zgln07BeWsIQLynFetWqWeL8iPsi1btizUdo49fal8r7x65bJ6/vGnhmfpteFdqSrGT/tIDULElnXf4NQJ5/1Ck56qtJdS0nD+WkXM/uE6bqSXQ/xfJ3B551bUTLqKZLXd5KYcPwYYlGMo2a00kmIv4iGPdDQMbI+Gj/fHocPKd9htO9QeIW6Va8Cg3Cc93QgPt9som8twHEf26JCaOBIgytCaxx57zGnDxITDgg75kNFTS2m0Sqpo61JYpPuarYv0ohDyGgtz/mf5oM5LkU1J+2RoSE4zlNiTtT8ca+mwPpbQ2hhGSeT9/f0tvmY5zoSjxiPWGDMMD9cpi9htb2Hw6Ln4VvlHc/u3czF68FvYHVtWaS8Ogekj8ylMHt4C5a/8io9Hj8TbS9Yr/8B+i/mThmHYpDXqLdZMGoynRk7CXPW69VgyaQkkB/FtkMs0Z+Wr4MrmERj29hKsV7Y5d/QM/Ko0IMvWbmMqGlpjDIY9XAdlY7fhrcGjMfdb5TmqtxuMt3bHqqHIEO1zvUHl8sCV37Fw5rfqF4Bv547G4PHvY8/Fg9ijXI5VvwOkIFZe5/Y9OHgRiF3+Fl4c+iKmb9Catp7tMfadEDRWGs/b1Ab2Ymw+Hg+/HlMxbaB5X4h4xJk63Fhn67bi45DbpkweQI/G3mbDQ5IQG30CJ+JMf7upccr5EycQHWt6Lb98OAmvT1+E5Xp9iUVfYn8c4NdA+1up4wefMqk4tXkeNhxQ7qvWEBmP2d+brs5UH93/NRo96iTi0JdvZgY+Os8n0LxBtiKkPUPQpQ4Qsy1Uqz0idUzew+uzIxGfJehohmefaA7vxEP48s33sHy38jx2L8f0BbsQV6YBujx7LxLOyetKhDriJ9H0Gk+cSzDdffl0vDZpHpZs2K2ul1opm0+lwqtOqzwXC32gR2PleWhFSM0NnGbqLaJ8oRjdvwESIxfgzQ93Ww5DiIiIHODUqVN46623MoZAS20Oqf8mw8+z/wgn06mKZ599Vv1xVr7bS/0O+bfM2g92xYG8VlGxYsGmPpNf5F3BlbiLCH3rlYywQ3pt6Dp066P25BAScqxZtkg97yzVArrgQoX2WLKvCs5dTMLN+Kv4dfFC/Pq/3fAp54k0yceUYzHt1k2lkZSK0qXK4kilOmjVvBlOu1fEdzsjMG/OB0hLuglj9XpwaxAAY0oSSpcuBYNy2zTlPjlxZAAnP7rrJIBzRq8mncOCDvkSLdN/youRX+gl+JBqq7YshUWmZbVlkQJG0iNBPvxk6qbswyicSWYlkWlabf0Qki5sMs1sQECAtsaxrAUd1g5yGYIi5EM5rzU1pMuhsGcXQ3O9G8hggJPYM/M304oMv2HhMTVtQJteysUn26B2WeWWe+Zj/UXTLe7UAL3GzMQC5W/k2zXrsX79ZLSpol2Vo7M4Nd98owfx+8Ubak8RddBX7wbqkIWTe2Yqzyqr3xYeQyzKorb6JJUvAVeV+1Vpg9cXjMeT92ljWi5ehNWnbEHn0SFo7h2HXaFv4StpdEtx0PfexPfqTCghZtO5esHLWq+51FS1UW7ztpTj3fqmzD7IO3dBA69sw0NyVBEP9ByBf02biffDPsWnn05EoPnIkbMxiEstg8ZPTMOw7s2UW4skJGVrwTceOxohjYHj4Qswb7sWMJjx7d8cdVKzFiHt3rwOyqSexa6vsgW90YcQY959xTcQDZTnFHdoPbLkJ9rtfPwsD9vK5Il7Ow/B2CnTMPMDeY1L0b9B3v7OTDqjSwOvzCKk5tabeotIULVy11l4BY7G/LAp6GdtUhwiIiIHkO/nMoRDH9r85JNPqkMxsqtRo4baW1hO5UczmcFQhvQ6gjNrIei1BC9fNjXs80N+eDx27Jh2qfjLHnZkVxghh9h1/AZWR96AW5nSKFfqNuKuxePS8SNo3bgB3HxrIuWfizCUK49KLVqjTFUfGG7E43L56ph7rQy+OHASa3/ciFtX42CsWA1u9/eEwdsPV28ZcT36KNKSbiA16Y6+0E4jQ6mk7qL8HUotHGf1ahIOHXQldSMk7JAXJGPl7rsvt275RZ80pqVHgTh06JDau6Mw6dP0SMVoW+gBh7Om97E2RMVaQi4NVT19z2tXOf21nTx5Uj21t8rlygI3bsJSD/yLWhdISEeTBpVRHjdw86y1yOBJzPx2EV7r3QI1cBOnft2NzV/NwG5buvbfuAql3W9d5XLKU1Ae2/KThOlZmnrDrBk/A4ull4f/w3g59D9Y//VcjMxaxCMXLdHcz0tpdR/H+izt8yRsOBUDlKmDxhkdhyzUz1Du7yMFKtUeGnnYlpe3GuZk0dIHpk3pfT3yWoT0Abz6wXyM7N8cPmXicSpyF77/cjZ2mXfWil2O2QvX43i8DzqEjMP8pR9g2pAHtMBDU6YxOjRXnok87hZLvdMsFyH18ZIhOYnq8Jsc1fFW3knl9oETtRob+jISzeWKHPli4LT5mPhsF9TxSkXcoV3YtnIBVh7P+z9+ORYhTThn6kVyYjc2LJFeKdsQI71NMqbXISIicg4pVL9gwQJERUWplyXMyE56Auu9HmbOnImjR4+q5x3BPvXicibDu/v06aMO9xa//Zb9py/byP3mz59vcSh5cWYt7CiskEOs2nACaSmpSL16CUlX/4HRUBr/VKqBynfVxK+Xr6NUrbqoPfglVO8TjNohL6DKA+2Rcu0y0hJvwMPNiHLlPHC7VlO4PTQUpbyrw5h2G8a69+Ha+b9w9ehvuPynTV+GHWbXrl1qLylnt5sdGnQI87BDUtTiHHYUtZBD7NmzRw0HgoKCcp0FRt57KcokXfRkOlZnsJZcWxuaIv73v/+pp3379rU5+ZZCS9JbRQpMSa8bS7L82p8PNyUlKF/OYm+CGupQmhSkSO8s0w1Rzlq3g5E90KZKCk6ufh5PDRuNSco/qvO/tVOvoJweu0ZZNeJIUZ+k+A3fvj0MT3Yfgfe/2Y3Y8i3Q9/W3MdLmrKMMcu50o820sV/qZ3jBp7FZxUvh2VgNOuJi9isXbNvWfinq4eWDOzclQUec5AsmWYqQ2qBnDzT3TsXx8PF4fdJ7WPTVV9iwO14eNoukA9/hvUmj8PIbMqwmFX5dRmLqCLOxr6nHsVKmzfXrgtFjO2cNQYSlIqQ65Q2QtyurbE8gXqqLADGRoVqviWyLXovDknufQKs6ZRC36128Nmk65i35Sh2mk5r9MXJlWxHSDNHHIaOFvLwsFjMhIiJyOJlZRRw/flw9lQkF2rRpo54/d+6c+v1R6LdzFGf06JAf/qSIqgwTl+/7+e2R8e233yI21qZvUUVS206PoFe/59TT7CTsmPf2q7h2xRTi/LTma4shhwxnkW3Iog9tcYSEy7GI++N3XDpxEGlpt9VioyeNZfDJkTNIbNwR5boMQtL1JKQlpqKUdwX4Pv4EKj31KgwdnkZ6YF8Yuz6Pst0Go7S3D9JvpyI9PQ2lqtRCevlKSFa2dzPVecNFihKHBx1CDztEcQ07imLIIWT8nSRk0kNCpsLq1KnTHWmxFH2RD/OBAweqt3Nmomat4IzUFrHWdUkKpcoQFilcI1PimpMhUFJcSR93KCSdf+mll9TzP/74Y0aBqeysrbfV6uPSU6Qh2k3KXr36foz0Vz78rpzCdmm/rj4O9ZbtJlmeRUV6hiAFN2PNenzc3xcN7PH5mcNj3z/SX2miXsEp9UmaO4XNS97GsN1ngbK+aNBOW52rQzgbo7RgfRqjV5ZhCb4Y2FgatTE4tU05ObELZ+MBv+YhWWYwqR/SCnUQh1O7TiiXbNvWiV1nEQ8/NA/JsiWEtKoDxJ2CuimFWoTUUv0Ic+bte71garzZ7ev3QmPLk54gKVaG1ayEdIbw8csaMMYvn43QbWfh1fxZvDO2PTK/MlnvZbJN67XSqnvWL1ie3aXnhHZBnDiOOHnMOq2QqvaayLbotTg0ZcqYbc9b5pqRWjZmPU08u6vhR56oRUgTlf32nW11N+o3ho/yEImJhVfLiIiISi5p8NerV089L6HGU089pf448PLLL2PatGlqD2L5N1Tce++96qmjOLMQo3wn/v77OwqJlRhBEnQEP6eeWvLP5ViEvv0Kvl/+KdauMLVTs1ODDmUbsjgy6LiREI/4yxdRqrTShitVGqXv66bOnlKmTlO433UPEmIv4eSZa4j+/QROrfkev/zfSJz7z8cwNGyJUo0eQCmfWkBaihpyGN2UbaSnKdspA0P5qkhJMyLF6LwhU5bIca+XGHAmU4u4w8tv1zm7Tj3rKDJOTqZllak/pefBpUuXcPFiXqoBFJ6iGnLo5L08e/asOiOMPM8HH3wQ9evXx1133aVOj/XEE0+o4ZKMO1y2bJlTx9rJPy56kafspKCopS580tvj77//Vqv0yvTEtWvXVntpyHoZ1iJdCqUromjdujUmTpyoztYihac+++wzi8NiJFSRAjh5Ghfm3wNPt6mCq79+i83HgZuRF1Gjc0cEBHRBjzZ3oWxSWVQL7IexE4eilW8Sfl86FQuP35Qb4mKNzugYEIAuPdrgrrJJKFstEP1eGYthnUvhx0hv9G5fDzUbtEC1pBT4dHwOE4f7wzvFU9nmKXz9o2l6k3aPD0FDZF727/E02lS5il+/3QzT7xEm6nrl8U99/SP2WHvssRMxtJUvkn5fiqkLj0N5lhi/ZA2GtfWFZ5onqjXthhcfaoOaZS9gz0fr8ZtyA9/OfdGxXk3UbpCGlBb98bjPdkTfPw3zxoWgRep/sfPPJBy9UhMd2jVC43Yd0FgmlKkeiF7PDkanOh6IP/QtFmw5h9tQjs/KrdBJ+bsPbOWD1PhEtSfE811qIflQOEJ/kNvctm1bl86icqtOymdIIFr5pCI+0Q9dRj6PLrWScSg8FD+ck55CnTH02UB4nV2Pj3ebZuLJonwLdOlQD7X8fJTPJT/06FIeBw75oEu7OvCr1wBpcVdQvvkTGPl8c3ilesAj8RR+2H4YeOBVvP9aF/ghEbfKeKNxj8fQrnEV3Dj+Pbb8dgk1g3qp++e3Df/Dwd8jcaVBB7Rr3g4dGsRhR4Ty3H1D8Ez/Brjx26f44fesFdxv/OGGxl1aoXGrDmjunYbrt7zRvNezGP6QhDzKc7ihPQf8hRjvVuig7N/AwAbwvnUFqV510KrHEwgZ3g01N+7WCpzWQYdeTVHHpwFSlY/Zjj2a48C2ROV2jVCvVit4x8fgVp0eGD6yh/J6lEcoFac87whcUM5nvg7TZWUFesnfwW8bEKGs6Dz0WQR6ncX6j3crzyargdPCENLKD+5uiXCT56W8hpEhbVBDCsx++gUOZ9ajIiIicooGDRpkFOGXWUTku7L+/VNmgpDvm3IqteHkR7HIyEj1OkeQYqfWCvLbi7xeWWS4jnyfzitpR0jPFkfVKREVKlRQ32/5bm/PWW3MScAh4cSVuFjs3bFRW5tVUuKNHGdXkfvrPUL27tyohiP5lWNvHuU6o8EN5Tw94Ka0Y8rd9yBSW/ZCmbubwuDuidsXz6LUxs+R/O18pP53FVqW9kQL423Ela+MpErVYUi9pdxfOaaVY8ugNHUM6bfhVb4cSp/Zh0sxF5BeyvqPWtI2cmRPI+lxP27cOPXHeOlJdeTIEe0axzlbpzew6+NpTunRodN7dkghyoIOI3AmOQBkKYohh05qbsydO1cNBOT9lURaDigJPCTgkCEuMm2WswsKyT8k1j7QrQUgYt++ffjkk0/U1xIYGKi+NpmiWMYbyjJgwAB1fm+ZDkyKsUrIIa/P2nElH6TW6oJYYjkQ+Q1zJ72P1b/GonyDhzF88mRMHv4wapdVGnEfjMf4NZnB3W9zJ+H91b/jSvkGeHi4crvJw9GlQVlcVZ4nNs/HV9vOIqVKC/R+bTJe69sAVze/j912Gr1ieuxfEWv22A/XLouz2z5Q3q81GcVGz11MQZU2vU2v47Wn4S+v4+O3sVC7wfb536gzuvi2H47XejdAeUlHsju8CG/OXolDcV5KQz0Ew0N6INAnEae2LcSb8zJn2oiVXg7rjyPRpwNCRk/E8B4+SNwfjgVmt7FtW7FYPjsU648nwqdDCEZPHI4eym32S+FPvTpn98Cci5Ce+BLfR8Yg1a8Dho/ur9w2UXnsxfhS2SeJPs3RX3l+o59ogPjvFyDSfFhqfBzipdZEyGg1XBvexfQaFi6yNO4xCbvnvYkvD8XDu/lwzHq1Pe7u1VydEta8CGmGpC14LzQch2LKoIHy2kdPHI3+rbxwaPFKnM12SEfLe7nyEOK9m6PH8InKcxmNkC6N4XX2FDL/qd6A8M2nlNs0Vl7PcLSSNCPpO4Qr94tBHXSR+w0PhNehxViZ/QFy1B2B1oqQKg4dj0GZBoHon/G86ij/2mzDwvFvYbmlkiVERER5kKcfrDTyo5lOGvDSsP7Pf/6DKVOmZPTk0IesyPdnRzX65PuwM2p0UNFiy/Ekx/WttHQkpgHlatVBp0oXUbOmD26XKSdXolR5b6T/tgUVrv6Njg/2wd0N70PlClVR8/plpBvcYPpPkXYbpd3SkFymIh4sfwZ3l76AlFLu6jYKi4SL+oyYUmrAUbNjWmJ65yceNnbYNUI96wzyYaKPhSsupMuNNJaLC0mMK1eurFZazilQcAb5B8XSc5A/anmOOXXjk66GMiSnSZMm2pqsZLtSyXfdunVW9488jszEkpf9J/dxxjhKsjdP9JsyH728duGNSV/ZVp/DKZrh1Q/GoXHMlxj1npUAphjw7DcF83t5Ydcbk/BV8R22S0RExVR+vp/93//9n9qzWX48k+n016xZg5s3M3+9kYaYDGfRC5XKDCwyxMXepP0jPZAdTX7o7N27t9rjOz+9JeQXePnOPHXqVG2N/fn5+WW0B2NiHDO0deTrs9C8VRASb97AhbP5m6jA06s8atVtqJ6fNelFnDudv8kccjtu9eslCLunXRCeq23EteqNsfuuh/FH9EV4VqyA5N82464fP0GH1j2QbkzFgy38sMa9NjZ734cKSFOnoHUv7wUPz3IISD6A+//5Du9/dwoXrqbLA6i9RixxdJtH6khK3UUhU83OmjVLfUxH2tVhETC7mfaqnBx0UMki/7CYz6FsTrqtSXfB3NSqVUsd9iTDWKS7m0zxKz2EZKoifRiLNdKjRZa8cPQfPTmI7xDMnNUBievHYHpO9TmcrfO/EPasH46HvoYPLXUAKRZ8MWTmLHRIXI8x022sz0FERFSI5LucTGkpw+e/+OILq8U1pYH58MMPqwGB1IL7+eeftWvsR37cc0aPDglTRowYAV/f/NeUkPdA6uI5ijOCDhlyMmTERO1SwcSc/wszJg5DutKmyQ+b2hVaGOHnVw3DmlZFldKpSLqvI07W6oLIGAOu3QY8t36NXuf/QPeeD8DTCxh/ozEuVakL99QkeHqURm33RASlRaHezT2Yt/Ysfv8rJceQQzijzdO2bVt1ZqNffvnFKaMjGHSQU0lxUWuBhAw9kcURZKyl9ObIzx8www4iIiKioiE/38sqVaqk9g6WH8ZsIT++STH8/E7Jao1015cf6shEvvfL+yHtg7z+GJkXLQM7IbBDD3jmsydNeroRZ04dw3/XfYsb1+O1tfmTl+O3RrnSGNS2Fio1eQBx5WsiOSkW+9Kb47SxOu4+HoFnqydih7EGdlTyR7mki4BbKbiVr4J7buxF08tb8P3ef3D6UjIMMCr/WX9MV23rMOggp8qpV4eQ9FkfH2kvUpNDHlP+iImIiIio+CrOjTIpwujoIqRU9NlyDOu3cS9jgHfrh4F72qFz6QjcZziCk7fvxhm3uki4nqa0m9zglfwPTlQIQqkqdZF0+SwSD27FlX3bUEo91KT943ohhi0YdJDTWavVoZO0WwIPe/xDID05JCUuaMhRnP9RJSIiInIFxfn7mLNqc5AryQwp3MpVgmete9GxRixa+N5AWaWZVNajLFJvJmLD7S74I7kmbp/6FUl/HUF6sqn2TEntyaFj0EFOJ39UuRUFlZBDxnDld55xeQy9Joe9/oAZdhARERFRXsn3WRkOw++RZK4w2xby2KIkBB3sQ0VOI39QEmLkVIhJH24ivTHyMgWx3E/CDbmvFDay5x+vvi39g4GIiIiIHK84f/eSH+8YclBRVFKOSQYd5FTyoS/Fh3L6A5PrpHCp9P7Qgwtr/9BJ7xAZEnPlyhU16JDAg4iIiIiKJ/PvfMW1QSbPmyEHWSPHRWGFeCXpmGTQQU4n3fikCrYtw1OkiKnMdf7PP/8gLi7ujkWmKMqp7oc98R8rIiIiIscq7t+3pOeys6aSpeJLP87ZY9xxGHRQoZAPf0m6y5Ytq60hIiIiIiq+5Hut/JjHGVaoqJAgpaSGKfwrpEIjSabU7Chfvjx7SxARERFRsSTfY+X7rHyv5XdaygtH9uzQt1lSj0kGHVToPDw81PnFZXpZdt8iIiIiouJAvrfK91f5HivfZ4nyyxFhhGyzJAdvDDqoSJA/QilSKt39pNtfSf6jJCIiIqKiS76n6sNUciuyT0SFg0EHFSllypRRu/1VrVpV/YdDUnIpWipjHfmPCBERERE5k3z/lNpy8n1UvpfK91P5nirfV+V7K5GzmPd8Zy/43JlajhMPGzvsGqGeJSIiIiIiIiIqbnZ1WATMbmZgjw4iIiIiIiIichkMOoiIiIiIiIjIZTDoICIiIiIiIiKXwaCDiIiIiIiIiFwGgw4iIiIiIiIichkMOoiIiIiIiIjIZTDoICIiIiIiIiKXYVD/P/Gw8aEDY9WzRERERERERETFzX9bzgNmNzNkBB3GWU3Vs0RERERERERExY3hjSNq0MGhK0RERERERETkMhh0EBEREREREZHLYNBBRERERERERC6DQQcRERERERERuQwGHURERERERETkMhh0EBEREREREZHLYNBBRERERERERC6DQQcRERERERERuQwGHURERERERETkMhh0EBEREREREZHLYNBBRERERERERC6DQQcRERERERERuQwGHURERERERETkMhh0EBEREREREZHLYNBBRERERERERC6DQQcRERERERERuQwGHURERERERETkMhh0EBEREREREZHLYNBBRERERERERC7DoP5/4mGjcVZT9SwRERERERHlLOLX/Tjw+2GcOX8BiYlJ2lpyFV5enqhbqyZatmiGoDattLVU1BneOALMbmZg0EFERERERGSj83/H4ptVP6JcOU+lAdwaDevXRfly5bRryVXcuHkTJ6PPIOLXfbh5MwlPBz+GWnf5atdSUaUHHRy6QkREREREZAMJOT78dCmC2rTEyOcHI6B5E4YcLkr2q+xf2c+yv2W/y/6n4oFBBxERERERkQ2kJ8djjzyE9m3baGuoJJD9Lftd9j8VDww6iIiIiIiIciE1OWS4CkOOkkn2u+x/OQ6o6GPQQURERERElAspPCo1Oajkkv0vxwEVfQw6iIiIiIiIciGzq0jhUSq5ZP/LcUBFH4MOIiIiIiKiXMgUsiw8WrLJ/udUwsUDgw4iIiIiIiIichkMOoiIiIiIiIjIZRjU/088bDTOaqqeJSIiIiIissXZK8CsjUYsizRqa+yvThWgrrIsHOSmni8sr054Ex/OeUe7RCUVj4OizfDGEWB2MwN7dFDRtXcGDAYDDO9GaCuoqIhdHqzum+DlsdoaIiIiKmn+d9KIZtPS1ZBDAghHLRKm/O8k0PPDdPUxiYhyw6CDiIiIiixp4IwMN6KX0sCR80RUdMz+yRQ6DAo04PBbbg5d3njUoH4G6I9JRJQTBh3FyflwBEsPB3st7ClR4tz66wBWL52CVwZ0Q7fmflmOB7/myroewzH+/SVYvfcYrt3S7kREVEikUaP/Wqz/mps97JDL8gsvf+Ulcj75uxQLQ0yj4R1FenUMesD0GGcYeBKRDRh0ELm8azj9UygGNfeDZ71WCH5+BsJWbsXWw1mHncQeVtZtWYLQCcMRHNQElT39MOM37UoiIifTQw7xYEPTL8ayzjzs0G/T60Pp8eHYGgFUcLK/ZB9xP7kWCSGcwXwYC5VMV65ew5+nThdooZKDxUhdjdS1CJoC9F+GmBUh8NVWF0v6a3lnD4xTg7SVlCd/rcb450chdJuEGr7w7xOMUUMHoWuQP+r5VoKH6VaaW7h2LQanIyKwde0yhC3cgGERRkxuq11tRmp0+IWsRt/wGKwaWKyPMiIqgvQAQ0jIsf5V0+8yMoRFrwWwQVn3vz+N6jqd/KosgQgVTRXHpJsCq3+M6HCPAW88krmv7BF+1Kkqxwv3vzPJPpW/Rxla4gzyuSCfDwnzC+e3WhahLDw/bdmGDcpSUFUqV8KYEc+rp/nF46BoYzFSIhd3eu0raFcvWA056vWfi5/PncbRHz/CqCeD4H9HyCE8UKlSPbR8NATjPl6P6KQYDFMaGK7k1skNCH25F4avZBFVoqLKWsgh9CBDbqP27LiqXUFFngwtkv0p+zBEG4Kgkxk7JLAq6CK9eoq1dCPen5SOr6K1y+JgOvrNN+JEqnbZDn5Zmo7myjbj5UKCEZ+uVM6b/uSIiqTI3w6oIYeEE4H3t8z3ck+DemqvkP+sWKNtmVwZgw4iF3R65XB0eywMEQjCqPCjOLpiHLrWujPayJGHL3x9tPMu4tqvSzB+4QZcva2tICp2lIbQmHQ8s8lJDbrD6XhoajpWXtAuO1hOIYfOPOyY5cJFCc+sUd77UCPOaJed5oTyuBPS8ekJ7bKd1K1iUGsrSKix65S2UiO1F6TQZEEXR9eJcLjjRvyQpLxXNbXLit+PKouXsq6MtsJOzlQEvOWMsl2P00YEf2mEM0tzyd8vhzCRrf6M/ks97dm9C54Z8GSBFglL/rnClLwkYNBB5GJu7Z2BQQOW4DSCMP1/G/DRQH8LvTeIiHJ35k/glwSguhNCT1tCDp3rD1ExYsdB5b0vDdjUufqiEc+MSVeHEeS2/Bin3ceKM0rD+pdU4N67tRV2IsMbZKhKncpAhwam8zr9uoIuxf2Y+CVS+V8bAzq5my5LD4+dUcDo9gbH/TvuacCQVw14+E8jPlQey1nkb11Cr5LpMjbNfROvzt0B9i/Nm4IMNxH6/aVXB7k+Bh1EruTGVkx5cgoi4IuQ8GWY3KFg/yAQUUlmxC/HlJOaBjTWG14OkpeQQ+fSYccFI35U3hNEG1HbQlghy7AtZo3EakDYuwacy2FZIr0EPIG6OYZWRuyQxq6yK/pMsPy4FZfkv3Eq+0tfKJtrRqw4CEzomfne3PrViAXKn0JgLSPiE6wvt7IPO0myfDt98ZavBreRuS4VeHGUAQPqmy4TFVTC0fWYN+t7HNEuO4oMaZGFyBIGHUQu4xYi/j0eobGA7+vLsGRgPW09ERU7By00MNXFiHeVq3/cYLRwnbLMNOKiaQsFl6B8iVQ21ukeoIa2yhHyE3LoXDXs+H0HsNkT+K+FwOJcf9NtGvuZvW43A7wr5rCUB/6KUfbjvQa00O5iya2DRnx6DZj7soXHnWTAi8ptOlUx3Zbs68w2I/beZ0AP/feJdCNWbAQu3gQemmpE7RyWtZe1+2h++cby7fSlzXblRoezrZ9jRHPt/C+mzRDlW+Lf0Th99ZbkaQ4ltTZkkUKlRNkx6KAsrh3fivD3X0Fwj3aobzDAoC5+aNK1G4ZPWIINxwvY1SvuGDYsHY/hWbZfH+16DMeM5RGItcMAUYe/hqLq5DJMf1NS7b4IHd21UIar3DofYXrvg+pr77sBfs27IfjlMGw4mc/3XTlmti4Pw/jnu6Fbc7+M7dYPCsYr76/GgVy6YRMVS/4WGpra8rpy9WOdLV93bowdQ4m/jPhBOenf0nFBQkFCDp152CFd4WWbxdpFI96PVPZxFwMesBBaXNMatS3qmE5t8qeyL5W3eUAT7bJFSoN5nfLw9Q146t47H9c7yQgp2/FAHdcLlgqdss/f2QncfZeUBddW/WwKNQ/92w0Jkwx4TDn/3/nKeQtLfwt/9I/1NFi8rSx/9lZuoOzncxauk+UB0yaIioyq2pCTqlUqq6c6qbkhpFApww7KjkEHmfy1ATMG1Edl/24YNCEMq7fEwrd7V3RVl3q4tW0rlrw/HL38K8Ov63isNtUEyoNriHg/GPWrNUGv50OxZMtpeHTRtt/FA6e3LMGUkHbwq9cNU7bks0Hs8NdgndTFaCcN8KAZOJCHsCa/97PkwJowbFBOW86ZgpBapnVOc/s0Vo/thnq126nv/Z4b9bT3PQieh7di9cJX0Osef3QbuwG2zmB+TWZICWkCP+WY6RbyCkKXbsXp8k20Y8YfSXtXI2xCMFpVa4dX1lreqkyDqwcjaugSslpdvzokMzDJXIIRfl69mqjwlbHQ0FQXrSHkBQvXKUs5+zVCpQjiRU+lQW3nWg06e4QcOj3skG2qs7EU27DDiM3fGPFjOeD17pb2pREnzionNQxooRwLtvr9AHBQOe3kb/34uBVpxKSLwNTHleNIW2cuXnncHcppi7qmy/nRS9k3ss/lVGZhIWHa5yvNh59cM+J95R/0F4MNqOuAb+o1JBi5qexz00Uqym5fxW9rPsOMae+oU5q+OuEdTJj7GVZGWS6mmXBqNxYvmImx2m0nf7wJR64fxGK5/B/lQz0b0+3nYOxEub2yTJmD9/6zG6eTtBtofv+PXP8NftcuZ9LqjejbvrQDM5TtzNgsiexR0+Naeey8kBlTpr0x9o4aHbKeYQdZw6CDcG3LFLSr1wtTViah6wsfYf2xq0gyRmPP5p/xs7rsQbTRiKTTe7D4/7oC20IRHNQNM3bZGEjcOIYlQ/zRbsJqnG7YF3M3HMXV1Bgc3aptf+tRxKQmIXrrRxjmfxQzerTC8JW2NodNHP4acuHRdhxCp7YE9k7BqIU2jhW8dQCh/yf1NIIw/cNxaFmgLhgHsDVcHrclBnVXnocz3T6N8OfbIfjfp9FuznocvWxEzCHz9z0JMVvnom/DWGz9dy8Mejci9y9Xv4Wi1T29MH75MXj2n45lEdFISjUiOkLbrnrMXMX+8FHKuxeBsMfaYfwWC1strwcu2tLMV13t28xsXcZSD5VKq1cTkdL4kiKIuQ11yC/zkEMKURYk5NBJ2CGBSXEOO85sMmJUNDBVeS1370pHv4+NOGHe4EgGdijXd/LPQ88draBljWYGdLQWjiQZ8e43QN02BgywGGwZESX1WpQ2Rot8FqbVg40Nyr7ucI8Bu06qF1Uy+4YcDwVdJEApbvtd3efKV5GP7tNWKPtr5afK+32fAa8q+8zcNb2mhtlyR30Oa6Ruh3L8qKoZ8NhFsxl9ZFrbCdmmtaXCl3QUX876N76MvArP+7rh2ZB+eDa4ExohBjvD/433/pt1zFLS4W8w/ZNNOJpSHw8HK7cN6aX8zf+BJfPW4Q/tNuZity7E2+rt6+DhJ+X2/fBk68pIOLwJ8+Z8g9+zhR028W6CJ2Q7zcorF2qjozxnWTrmpQvanSTgsFaIlGEHWcOgo4STHgU9e8xAhG9XTN58DD9/Ogo9G1eyOOzB4+4gDJv3M45tnoyu2IopD/bEjN9ya7IqjeCXu2L417EIenUVoo+twrhH/e9sUJb2QL0uo7BYaRgvG5yEJaOnYLWNWYfjX4MtPBA0YS7GKe3oiLFTsMTsC5w1BxaOwpS9QNDMMIy7v0ApB3ByPzZIAbmAQegaYFrlHFcRMWsQBm3pisXHjmLV6z3hf8eXYA/4dhmHVb/+jMnKc4t4cxRC9+bynt++pYZiH0VcRfSKyQhpWw8edxwzldBy4EfYsGEcfBGL0CHTsTXbZn37zNUCF9OybFI7dX27ScuyrDctc9HTlIMQFSFGfDgpHe/vs/Lrd7IRX823/1SgMmxls/Ild0gz7bLKiN/XKI3vlQX7Jd485BAPKo1ee6lT1bSt4hh23DqYjmEbgI49DXhdGrh+BtwbY0Sbqen4UNv/8ZHK8aCc9mhi+3t2S7nvAmVfvhgon8YWSMP6Q2W7nkBofyuzeygN5J3HgU4BBhSgQ4dKgi2ZecXcWe3HadlfBVlk+lrZfnGh7/OZL7qhsf6NXHmv/ypvwJJn79wX/cxramjLh1Z+KL+jjs9EI0Zt1/52awD3KidnYkwXpejpp+WU/Wvn3lsSbmV5DmaLkH1m6Tr5fGCPn9v4fdX3+O2mH3q/NgFjn2yP+wPuw/2BnTB8/AQ828wD5zd/h63x2s2Tj2LZyqNIuqsbJox9Gg8HKrcNaI2Hn3kVE9pXxh2ZxaUdWLIxBqXvexozxuu3vw9dn3wBM17rBN+byvbWWopHcuFeDU2V7TS5S/lAQQU0kucsSx0JPhyHYQdZwqCjJDu/GsPUGTqCMH3Nekzvbjkpza5S9+lYv3IyWir3nPJqGHLqv3D66/EY9HUsfAcvw7IFfVEvt1/MS9dDyMerMf3ucIwa+5G2MgdOeA02K98V07+SRvcGDJ8UnvOUYVGhyuuLANpOR9j/tbT8xTIPYg9sxVY5070l/NU1znFtzRSMehPKe78Ewxrn8ioqdcX4d0Yp788BTPlqK3LsS1OrL44eWIVRbXPfn5UenYKwocqZ2BlYnd9hT0RFlQQON5VTdysNW3el8as0Vr46kK1RkIfpRisuvbNBcfGEaZhCx/vMH9eAu5UG6uY9ynMqwJ+aBBDCkQ1S854dxYMRBw8rn2dtDAh72PSee99jwIw3DfhO+VBf8JURfZak41P57q68b49JK9UmRqxQGtIXlfsMyLIvzSj78q/bwJJX3dDCyuw6UqT0K+Wt7P+A7QFLdg82NKhBhDRipZaKedghU8MefstyvYi8LLKNYkVpfTbuaUB/P+2y8DTg9ZctD1mxVKPj9SxhZKasNToMWNtE+bjQt6mctqgJRP6p/O1rRU8HKPvAEcNk1GDLwqLL6boSLfl3RBy8Bc9W3fDwHT/CeOD+zq1RETH4dZ+WEv55UO2B0eKhTvDNth99u7a/o2fe6chI5XuqHx7p00QmY8rKtxO6Kp8xSfsPOnzWFHMLPllqGuaSz0WKkuok7PjzVN56h5PrccBHGhUPt7D141EIV1rjQfPCMLlt3praHh2mYO7ryifv3vGYvtxKkz5uA0InrFY+MEdhybwQ2DwHSPkgTF44F36xuc0u7oTXkEce3adgyUhlmyvHYfpaay2B01gyabwpnCnwkBWTmJNqzIGu99QrcGiSF1tXroZHHt77St37Ypj8g71wK/bn1Kmjlj/8bQ7/K6Hrk6PUc2H/288xx+RS9MDhgXtMl+9kQMcA4GCUEb+bt+krAa8PURo3tixdtPtkMCJSaXSjiQGB2Rq+3h2Vxrey7tNt+f+1ta7SkJF6GgsH5b/RnJuJj5pqdtizt4hjGfBAiBu+eybbr/hlDOgxzA3/fVJpdBwE3r0CDOlke68Kqbsh95FeAhfv+ElXU0VpWE9yy9rYzkILS+oY8LhMUVsAEkToiyvOlpNXHoFu+EgLtuzHiGsJ2lkzl/4BGtfQH8uAFo2Vv+NjwImNRryiHGcvtrH//pBwy3yfmy9CQg1L18ki9y3R4m9A2WWo6lPNdDm7Wn7q9+rzl0zDV2Jj5bQaaldXL2blduevjAnK9uFWDTUsFeRBadSrXRlIv4zzTir4fuWq6TuzPkQlvwuROQYdJVXcBoTPUhr3vkqD/IX81HTwQNcXp6Oncm710vUWC0yeXhuGMOUher4zDj3zOqY3oC9GPaqdt8YJryHvKqHnpDCE+MYiTNn2VuXfkeykl8vwn+w0ZEVzK8kU1PhWuiOXd7BhGD84D++9Ryu0U3sWbsWB4+oau6jUvB36ypmTsdB64hK5AOuBg7kWyp/gfUojVoYWZHBXGjKtDehky3J3tgaF0kjaeRZ40V8+JbNxM+CxdsDmnUbs0Mf755HU45B6Go4mj+GMx3GGukEGPCwf7+WAFzra+Jq0uhuoCfRXjo9BH+Zv6mE9LJnxqOUipeQ8Fmt0pGpXmom/Cdzrk/NxUrc10OOoEW02AR8pfyeO6M1BBVfGvYx2zjLPMuYhhgc88/I10L00ct56aXjm8G+PPUlIMfqloWrB0fwu+tAVIefvaWDzT6zkovixVkJdi9iKJcqp78vB6JrfYXMNu6Jvd+V0Szi23lGT4jS2Lt+gnPZE3y75+aCph65PdtXOW+b415BPtfoidEEIfGNDMX5OtsKbf4Vj/JDVdhuyYhKL01oDp0ntO/o3Olb/rmiXpxCrEvzU53gAt+zZ9cLX19RjaM3pnIcMERUnF4z46izweisLgYO5ew14sQqwYLfS6NFWFUR8lBGfKqc9Aiw3lOoqDe0h6cDKiJI+ht5ZjPgl3Ih3k4CpTxvQwpZvbnrdDeVs2ItuCHsGqKEcT5M25XGfxRgxSsKSJga8kOPUtOQMFmt0SJHYbP66rPxrm+170V8XgbvNOwf4KMeS0sq9t43y9+ygmZWoALzLo6pyEnvhb9Pl7M7HqD/Q+fqaunCUUXttXMU/liZjSU7Cbe2srqKyfSTF4Lxe4yOL2zh9TtmQZzX4VjCtqVFdxprdRmL2gDs9BucuaecLkQxTkaEvQkIOqdlBxKCjRLqF/f8LU88NaluQD4J6aNVFGq1bceBYtmEasQewdYty2r0vujY0rcorv7tzem5OeA0F4Nt/OkL7K835d8chNKPYaSxWvzkOq+04ZKXQNa+HvEYrfnebCoLuP23HSMLDE9lq2xEVe7/vADZ7Ao+1zu0XfAMe7wRcPGzE2vz8ZJ+FNrtGfQMCrc3QUQno3wz4aofZrA3kIEb8/o0Rg6KAB5QG6avW6myYSzdixxIjhl0Apg41oIeyvzyUY2jefcDKjUastLXbW5IR73+o3F45BpcNsVKkNI+kwKTMsCKnUkOF8sZijQ59thZdHHA8HbjXz4iLZ029Pi4q7/kPyjf+uhlT9ZjCs6/KAu7K54b5sLffN6Tnb7YNsi/3Fri/idTJ+Bmb7vi6dAu/bd+HBLdG6Hi/KdGq2rg+quKG8t17X7bCo7dxeuPOO2pt1GvdQrl9DDauPXpnodLYHdh6QtnmA4FopK2qWllSsj/w+8GscXrSvoMWppzVXUWsHYe+WKu5wZCDrGHQUSLFIFbtvdAXre4p2FcXvdG652S2D5+/jiFcTts2Mf3Sng8eFXJqujrhNRRIPYTMWaY8u8xip9fWTscomX3GjkNWClvfhoXQLfDGNcQej8DWn8IR9v4UvDKgG9rd0w5TtKuJXEKM0siMBB7rYtsv+N6BSiNYud38DQXs1ZEMbD4KvKh8T8wYpiDTUsYpDaN9SqN3ZTrenW/E3D+V9UpD9UcrMz6QHWiBRb8IpYEaYMC67PU7LEk14sePjehzGHg9xKA0gvVgRGqAKMeIcm7S1zYMYblixLszlSUF+I9yYD1gh1GREmyMXGbErlPA7J+M+J8UwjQjAUhBF87UoTSBTyl/pz4G3FvRgGvKeyK9Pu75Buj0pHIMqJ8lyt/yUiMeUv6Gl0014EVl3369K/N9S1YOjgVml8mBkmNwNOogfsu2HImV/helcf9TT6OFZwzWfTAH89bsNl0fuQOL587Bl8rfeItn+uF+fWjJXd3Qv5XyCXHiB7y1YD22qtvajZUfzcPi634ZgUWGux7GiB5+SDr4DSbP/QabIk2PvXXNZ5j8wQ7EKtsb8Whm4Z4y9z2A+8sBR1YtxOL/7tNuuxDTd5dGC+l6ko1vrdrwVL6r/7xuh3LbfVi5NR8zuJiRQqMSZmQPOxhyUE4YdJRIsTitFiauJz3+C8S3Xiv19MCNrF+tY0/vV0+7OmwoheNfQ4HdHYK5n/ZUi51O+XcYpr8Yhli7DlnRVYKv1u3Urr0kiohb5w9g9VIJNNqhvsEAQ4XK8PNvh249B+GVCTMQtnIrYn2C8h2oERVF8f8YUUn5jvl6dxt+wReeBgzoCDzVLJdhLjm4FWPEV4tMwx12bFEayxO0WVkmKo2ld5WG0XLlegk4lC+1LzylNKIrAd9GsUHkEHFGvPuWsg8OAg93M2DdUBtCDrnPO0Y8c8oUckzNXuxTOUZGPwJcvGDE+zut7Ld0I05sSkcfZX9/pVxcO8kNj1ktUpo3Z64Y1UK0Ujcl5AFDxpSyQmZhGRle8KXXh8X8eEzTTvPNCKW9ik7K54AUrL23v9bz499umCG1XSQ8+8wUcqwdLwGW8rnxpPI1ZYMRv6g/6xvVKWcb+9n4uUMFE38Ua8K/w5fZlu8Pa38cnk0wfMJIhLSqgH/2bTJdv2YHznu1xrMTJmB4M/NPhdJo+vRYjO3TBFWv7jNt97tfcK7mIxgbct+dM6sofB8aibefa49GiMamVabHXnfwNur1eg4zRmebvcW9EZ4d3Q9BdyXh6OYf8OU332PnFeX5vdQNtUtptzHX+BE8G1QNt4//rGx3PaKS7JCWWqDPtMKQg6ybeNhILiJiuvwrb0T/ZcYYbdWd9hiny20wXTlXQPrjvZN1SzHhfdX1fcOtP4tcWdm2ieNfg33sN85tK89TliDj9F+TtPX2tX+mr/oYLeft19Y4VkH2r833jfnZOLd/Pe29k6WeMah7V+Ow1+caPwpfb/w54qgx5qr+ftp2PNjluCQqVOnGOaPTjIM2pmuX7ei3NGPD19OMvd9MM45bnGb8RHmM7b+lG/+KTzcmpWi3MRO1PM1Y4bU0Y2SatiKPdv6ZbqygvJYRy+z3WmRbsk3ZdrF0Od34ZZiyH5TX0HBKmnHFHza8jrR04/GNacZu2n1+OK+tt0S57YI3lP32L2W/3dLWCWV97C9pxlHK/eX9G6S8j9fyuV+tkX3S9O0048yf0o09F5hOdWf+MaqXC7r8Z28x3e+KyM+V9/5zK88/Nt04SNkvkdpFq06nGYOV231p6RhQjq13lP3b8J00Y1S8tk6Vrj62erxtU+6v/E1vNz82ciHHi+zXvJLjIT9/p/JY8piF5ZXXp2rnipG0342fKc/79e9OaSuKn6+/Xa2+93+cjNbWmOz9df8d63Lz5szQAu/HYnkclCCSbSjf99mjg8ixWqJrXy1hDuiKro3t25dD59fQVLj1wJ8xsF+lkcJzeu0raOfXDeNXAn3fWYafj11FkjEaezb/jMVzxmHUwJ7o2tYfvpUc834SlUit3fDnHDesneaGucPc8OLDpllZ6lY0wMNCaf4WTYAejQ2oYWHWB8on5b385Tww+mkDflP2Q39bpsdVvsnFXwYadzDd57GcpoB1M2DII8CrXQy413yfKtuI3Akk1Tfgf8o2/hNigLedvyHKdKEypXCdylB7dLzxSOZrk2lG5XJBl5I+Ze2tZMC3jQEDLB0DynUe/soxMtkNLbLU3zHggWcNCKsFvLNGuX9P5e/eCTNtyPFQ4qeQdZY/oiEDR/TCpa5EenFwdhWyhkFHieYK1aaK9mu49dsMjJpwAL4N68E3agbG/TvbLCx24tuyK9SoY+FW7HfEAziRvGeDHgtDRNvJWB8TjVVTQ9C1cSU7D/chKq4MeH2+0hB9uAg0EO5zw3cvGVDXSdMPlgh+Bnw00w2vBuUlaFAaqs+44aP+tt3Hu6MbZijHT9bbGvDYODcsGWpAi0raKgeQhq2EESU9kLDkgaFuSFDef4tqGPAf5e/+Ae2iNR73KseBtVouNZXPDmsBlpsBPV5ywyHlMT6ydbgcFQ/pl7Fp434kmRUuJSopGHSUSL7wlSlVcQynz6sr8k2vxdGyfLZ/VkubLq+2a4FPc054DQV16wBCX52CCN9RWBKxB2GDfRHx5jiE7nVAEtGwFXoGyJll2BpRnJOOWKyeo7xnaIm5C6ejZx7qr7hCbEdEBXP2H7W3KhFRCXMZmz76EIu+2aQVIj2IiP9+h3kzPsS6vz3Q6PGHMwuXFkP31DcVo5OaHAVZ3po1D1euXmM9jxKCQUeJ5Id6aqN4NY7+pa7It9Mn96in7bLNvuFbW5tw/88YpemaP3oAYZnjX0PB3ELE+6MwZa8vQhZMQU8fX/R9J9Q0C8v/hSLihnYzu2mJvqN7KqexmLFwdb7f80J3fitWrVROu49CX3X/2uiv05AZMYmo+JBf92XIgsyW0evD9AIvzaal438nTcMg2CWeyDVxWmJrKqNek8qIP7UP67SipuFb/0BS1UCEjB6NV4NketjiS4KJnt27qCFF5G8H8r3I/atUroTA1nn5kknFFYOOEskDTVr2Vc9tiJCJT/PrAPasliZ1X7Rrma2va+OWGCWnX+/B0Xx1MLiFowdWa+ctccJrKIBbe0Mx7s0I+A4OxfT+WreEjFlYpjhkCEu9PqMwSh5q5TjM3VJMe3WcPw11rwfUQ14K/V87tMd0PyIqVtSaDVWgBhQFXaQBJNuSbRKRczzY0PS3JzPnOJrMrCM49MmS0mjU9Rn8a/IkzJvzDj6UZeYkTH65F4JqucaQlUe7d8G0N8Zi9EtDC7TINljXo2QwfVLIrCuzmqpnqZjbOwOGoClA/2WIWRECqz3/41ZjeLVgLPGdjJ9PT0fX/IzaiApFq5bjccDiY8UifIAfBq30xeStpzG9Sx4f4NZWTKnXDTMkg3hnD4xTg0zrzTn8NeTTjQhMebAdZkT1xbLTqxCiTf1qcgChQa0wfm8QpkdsxeS29h0uc/qzXqj/4gbAdxx+/nMuujro37bY5cHwC1mNvuExWDUwb+9ajvfVj19r+9yia1j9fGUEq9OoT8ce42RYu2dBnjcROY69fqWVoIOInEf+dqU3lXDk35/5Z8T6VwuvkOmrE95UQwQq2XgcFG2GN44As5sZ2KOjpPLpiZA3lIZe7AyEfp2fOhrXsOHTuUqz3RfjXuhrISDwRc+Bw5TT/A2lOP11qCnkyInDX0N+3ELEnFGYEQX0/WputpBDtMSoD6crDXHHDGGp98JHWDZY3pNQDHpshgOGyDhJXoY8RS3B3J987bT/iKgwSAPJHgsROZf83R1+yy2jZ4ejFv1vvDBDDiIqjqRHB7mGiOnSr8+I/suMMdoqq86tMob4KrdFkHF6RJK20jbR4SFGpWFp9B28zGh99ur9xrltZfu+xpDwPMxxfXqZsa9yn1Ejh5leyzt7tCsscPhryJukzePUbeLRxTlsM8m4Z2pL9bUFKa8tb8/aBtf3GKer77vy2rpMNv58WVtvRzHhfdXt9w3P9Si7Q473vbreOErePwwzrrLleWuvteeni42T1ftNN+ZwtBhjVoSoj931U3vtcSIiIiopXnl9qnaOSjIeB0WbZBvK933W6CjRavVF6MfDUE96FzzZCzN2XdOuyNnpNa9gUEg4Yn1DEPpOiHJ/a1pi1L+l90IswkMGYcqW3Ld/6/gSDAoahD2DQzEuxIbxcw5/DXlwYyumDAlVXm1PLF4gz8kaDwRNmItxvnDMLCzlgzB57c+Y3BaI3TYD3Zp3w/jlx2DbO5Pp2skNiDipXXCWSl3RV3rpYAmmL8iljsmNY1jycl9MwVxMf6EJPLXVOfG9p5VyVAJbIw7k+f0gIiIiIqLigUFHCef75GL8vEJplMcqjfQH/dHtxTBsOG6pCXgL145vQOiA+qjfNwwRDYdhWcQyC0MzsvJoOxnLZPuIwIweyvbHhuNA3J3N11txx7Dh/WA08R+Orf7TsfrjENQrrV2ZC0e/Bttcw4YJgxAaC/T89CMMa6ittqZ8V0z5dBR8HTULi09XTN9yFMteDQKU9yU0pAkq39MLr7wfjq3HY3HNwuPdunYNp6M2IPzD8RjU3E+9/dY47Uqn8UDXsUvUoqoH3m2HrqPleNGu0t2+hmM/hSK4ZRMM/zMY65ePU8MLmwR0xaC2yunS6ZiyMutwp1vnj+E00w8iIiIiIhfBoSuuIy9DV8xcPbTMOK6Lr+m+6uJr9O/S1di1u7J08TcNx9DXD/zIuP+qdkcbXf31I2Pfhvo2lKVhkGnbyuKvDj2RpZ6x75yfjTGp2p3015LT0BUzjn4NOZEhEer228417tfW5S7GuGqw6fk6ZAiLJiZisXHco/W0127rUs8YNHS68edz2kaycdjQFd3pVcZR2vAbWXyb3bkf6/U334d7jNPV9TkPXRFJynEVlH27zWQ/9DUus/J6iYiIiCa8NdN4/cYN7RKVRLL/5TigoksfusJZV8jMLcRGbcD68A0I/20Pjm47phWErIeg7l3Rrk9XBD/ZF0G18jlTiPwSv2UZwpauxtb/bcUxdePatgf2xbA+PeHvo96yABz8GoqxW+cPYMOWrdjzvw048OtRbD2cWe5TafCjiV89tOwehHYPtkPXAH9UKuy36HYsIlYuw7I1q7BhZQTU/hcNg9C3ezCChwxCSFtf9Wb5ceuvDQh7JxRLfjIdh/Xa9kXPkFGY8kJX+Ja8Q4OIiIhs8PHir9Au8H4ENG+iraGSJurQUeyJ/A0vDx+iraGiRp91hUEHERERERFRLiJ+3a80dI9g5PODtTVU0iz8/GsENG+KoDattDVU1HB6WSIiIiIiIhtJ4/bmzSTs3vurtoZKEtnvsv8ZchQPDDqIiIiIiIhs8HTwY/hx438ZdpQwsr9lv8v+p+KBQ1eIiIiIiIhsdP7vWHyz6keUK+eJoDat0bB+XZQvV067llzFjZs3cTL6DCJ+3af25JCQo9Zd+a8RR87BGh1ERERERET5JDU7Dvx+GGfOX0BiYpK2llyFl5cn6taqiZYtmnG4SjHCoIOIiIiIiIiIXAaLkRIRERERERGRy2HQQUREREREREQug0EHEREREREREbkMBh1ERERERERE5DIYdBARERERERGRy2DQQUREREREREQug0EHEREREREREbkMBh1ERERERERE5DIYdBARERERERGRy2DQQUREREREREQug0EHEREREREREbkMBh1ERERERERE5DIYdBARERERERGRy2DQQUREREREREQug0EHEREREREREbkMBh1ERERERERE5DIYdBARERERERGRy2DQQUREREREREQug0EHEREREREREbkMBh1ERERERERE5DIYdBARERERERGRyzCo/5942BjxxE31LBERERERERFRcRP0fTlgdjNDRtBhnNVUPUtEREREREREVNwY3jiiBh0cukJERERERERELoNBBxERERERERG5DAYdREREREREROQyGHQQERERERERkctg0EFERERERERELoNBBxERERERERG5DAYdREREREREROQyGHQQERERERERkctg0EFERERERERELoNBBxERERERERG5DAYdREREREREROQyGHQQERERERERkctg0EFERERERERELoNBBxERERERERG5DAYdREREREREROQyGHQQERERERERkctg0EFERERERERELoNBBxERERERERG5DAYdREREREREROQyGHQQERERERERkctg0EFERERERERELoNBBxERERERERG5DAYdREREREREROQyGHQQERERERERkctg0EFERERERERELoNBBxERERERERG5DAYdREREREREROQyGHQQERERERERkctg0EFERERERERELoNBBxERERERERG5DAYdREREREREROQyGHQQERERERERkctg0EFERERERERELoNBBxERERERERG5DAYdREREREREROQyGHQQERERERERkctg0EFERERERERELoNBBxERERERERG5DAYdREREREREROQyDOr/Jx42Gmc1Vc8SEREREREVJ98c3Iofj+1BVMwpXLt1Q1tLlH+VPMojwK8BHvNvh6fv66qtpaLO8MYRYHYzA4MOIiIiIiIqlo5c+gsTfvoEVbwqqI3RtrWboKpXRe1aovz7JzEBe88dVUO0K4nXMefRl9C0+t3atVRU6UEHh64QEREREVGxIyFH//BpasDxdf9J6HVvW4YcZDdyLMkxJceWHGNyrMkxR8UDgw4iIiIiIip2pCfHG51CMLhld20NkWPIMSbHmhxzVDww6CAiIiIiomJFhhPIcBWGHOQscqzJMSfHHhV9DDqIiIiIiKhYkcKjLBBJzibHnBx7VPSxGGkxdv1mIq4n3kJKSiqM6enaWnIGg5sbypYtgwpeHqhQzktbS0RERETO0OSDofjfi/NZk4OcSgqUPvjpGBx9bam2hooazrpSjKWk3salK9dwW2lsp0sj26MsoJwnJ5Jg6VYK3G4morRyvnqVSihbprR2JRERERE50l2z++PviSu1S0TOw2OvaOOsK8WUhBx/X/oHKeW8kF6tCuDlwZCjMMh7rrz3sg9kX6j7RNk3REREREREVLjYQi5mpCdHuncFoDyHSxQZyr6QfSL7hoiIiIhcx7n4ywjdtRL9wt9G4MKX1V/z5VQWWfd/68Ow5+wR7dZEVFQw6ChGpCaHDFdhyFEEKftE9o3sIyq4hKhwvDYgEPUbNYF/xxC8tSoaydp1RERERI4m4YYeaoTuWqGGGRJ61Paupp7KIuu+PbQ9IwSR+xBR0cCgoxiRwqNqTQ4qkmTfyD6yn/PYHjYdI/sGo88jgej0yTFtvR2lHUPYgBC8tngdjpwpGlFC8r456DdgOrajE4aPegkDmpzHijd6o48jXn++xOHHEU0Q8IiyX5R9M3LVeW29EynvkYRApmUO9mur7S5Nee/HjsDiqOvaCiIiItcm4YUEHBJuiHZ1mmJchwGIHPmxWpdBP9XP/7vXKDzVvLPW82MFAw+iIoJBRzEis6uohUepaFL2jbqP7KYa3K+swqbDx3Ak+jrO/XoUl7Vr7ObYTqyIisKPcyagT/e2eGu3ncOOhC14rVEgekhYM3QCZs5fihVbI7E/Og4JFju/KA3r977AyY7vYu3yOZg0ZgymLdqJ78bUx8nQpdiUoN3MzOVVI8wa/bYvPfIdnNzCLeW5J0Qr+0XZN8nw0Na7mmTsDx2Biet2YuaAjug3PxKX07SriIiIXJA+REVIwCFBxnchb2Nch/5qT47sZJ2EHBJ2yG0lENEDD4YdRIWLQUcxok4hy8KjRZeyb+w7za87WnUK1s4rdioNa7vmEMmIWLMI57RLqD8CA9q6axfsI2H3FvyI6zgpYc3udVgc9j4mjhiKfo90REBAE9QP6Ig+o6YjNHydGn4kp8XhXBTQ+dFOqF1K24iiaduOyv/P49JV02V7OBn6OsLylXXE4eRe7ayiYU0f7ZxrSd43HxMXR+uXsD/sXXx1KJ8HYJpyDOxehdDXh6JPx5aZgZPs/75j8Jay/4/EarclIiIqBBJwSEAh4YWEG7JYCjeskdtKICL3E7Itqd9BRIWDrWaiIsw9sCMGa+eBVdhzWDtrDwk78e3XmQ3Xh18JQVOzcKHgrmP7xnXaeSsS43BkSzjC3p6Afo90x8y97qgdAGz/aQfOmfUeOLJ3p/L/Wqhe2XTZXLWa9bVzZirXR9Nm/mZLIB57PBBZv65E44e1kbDQSSRnCZdxSTsL+KN2de2sK7mwCiOHfYGT2kWgPoZ/tRzjAvIehCX/EY6R7QLRY+hUhP0QiSOxZmGJ7P/DW/C1sv8lAOkzZV2W/U5EROQM0vtChqxIWCG9M6Q3R37pPUFkW1K/gz07iAqHQf3/xMNG46z8/0GTc5w+FwNjbT/tEhVFBmUf1bPrPkrG9rdb4vlw06XaY1Zhxyh/IC0ZCUqD+9zRaBw5dgBHDuxERFoIliwKRm3TTXOVsG4MAsZuMV3wCsGyyCkIsm+HDlXy1etITjiPI+eV56s91/2HlOdt3uAVNcdg7X9fQsOoOegz8Auc8++NwV1rIvnYKqzYGofa41Zh80vKa8+PxCiEDhyKsGP6Y7qj6ahFWPZKICrmNdyJDkefR6bDVF89BJ8fmoLOBXzf9s9pgn6LtQt21nnWTnwenIdeJxdW4fleU7E9Y2iRu7KNtco2ammXbSf1VmRfZgYmuXPv+i42hynHsV1DNyIicjVSR0PqZBSUBBz6cBXpjVGQkMOcDGGReh1Cr+Nhd1FLcNfmFKx9bSRac3S709jr2CPHMLyhfEuf3czAoKMYYdBR9BU46FADjBTTeTUcSEDCb4swMizStM7LB9Xc43DZ4hCO5/DdHxPQSruUs/P4ekAPvBVlupQRoDhT8nVcvnAKEXs3Y+uWnbjcfRGWhZga05f3LsWMeYvwY9R1uPsGYMCY6ZgUXF9pcueDhZCj89RVWDg49+0VLICwfX8UmaBDea9m9g1BxogV5R1qNS4cy17yz/t7n7gTb7Ubga/Na7HU745JE8bg8ZbVTNtLOIUfPnsXM1dIrZNMrd7erHzZzHuwQkREJYe9GpsSRkgoYc+QQ6eHKNK7Q3p55Mutm0iQfyTdyqJihTKmdToJOjYCaycOQ2ttlS75+k0ky4hq93KomL2c2E1lm7e18za7iovXK+OeWuW0y452GPNnTwMeWYkxAdoqayy9ntLK63bQU2XQUbQx6CiG7Bp0xJ7HlWq1UMXSr6bJO/Fhxzk4cn9bPPqC0igJqKCuvrJuAib9VBGB7TvikeCO8LO15ZN2Hj+NnYorA97HoPbOqWcQs2IoBk+JRFlff/SfE46hdq49YU2+go69c1B/yBfahYLoiA92L8JjtgwnzdIrIQDTtoRjcF31gmNJ6DAsHNXfnIrB/qbjyqHuCDnqY/DiLzCto23HYYkKOmSGlVF9MHFrZuTQcHg41k4IyHvIoTgXHoJOb2tJmvAKwed7pqDzHRNHJSuvP1h5/RnpCtD2Xez4yvbeSUREVPLYo7EpQ0ukjoZeUNQRJOiQwCO/vToubZmMgH1/aJfyrmfrMCzunnWc7b5v+qPPX9qFPKmEGf0+w9CG2kXN2U0T0Pbkg9irfI+oo60rONuDjtxeT/XKw/DjC4+gjp2KNjDoKNoYdBRD9go6YtZNxZSxqxDTdQoWzgtB3WwNj5StU9FzxCq1YTJTaZg8oF5/HVvHBGLmT0BdpfGzUGn82NZDLhlHlUbMaK0R0/CNdVg0tD5u/BGJk7ZOIVKuJpoE1LLx8UyurBqBAW9IXYdAjNu2FI/WNK13tHwFHTJV6MA8Bh1Sg6JmA7TqVB8NG7RF0yYN0NDXBxVtnH34SFgP9JmvTYv66BxEze+NiqZLDiTTsnbHa2pDugKCJnyChUMD8j50xFbZQw6vAIz7z1KMamZ7s91ZQUeemR8zHd9F5OLgbPVH8shiyLEU343Lx9AeM8mXo3Ekci9++CkcJ9suwLLBFuqpiGOfoNPj8zML4zryvSMiIpdgj8am3ptDr6lREFKLY8WhbRjQvItalFSnD2HJb68ONej4ZyD+frqZtsZ2EgAsrHpn0JFXZ3fMxaiIE+jQaQb+FXTntvYt748+eAN/D7Tnv9x56NFhRcKBJRi2ZSPOVR6GFc8+gjp2Gt7DoKNoY9BRDNkr6LiyczpeHx6OM8r5sl3fxZKwYPjpjZm0aPwwsDc+jHJH1/k7MelR06/uKXvnYNiQLxCTJfzITTJOfjIUo0OjIIMxzB/rqNKAHG1rA1JpyK1QGnJVtIu2yAw6OmLczkV41Ne03tEKFnS4o5p/fVTX9kWt+zqiYWXAu1ZLNPU9j29HTceP6jCAWhi+fC0mtc5nL5W0KMxsHYLF9thWHiT8NAGBY9ZpQxTqY8D8RZj9qIOGJyQeQ9iwEITu0xru9YPxwSfv4rEC91qJw4rhHTFRDi3F4MUHMK2jc3oLZRE1H/4DPjG9lwUNOtLO48exwXjtp+vaCqBh8Hwsmd7deXUyzF+P6DoHkYt6Fyy8ISIil1bQxqY9e3OY1/mwFGjovTryMzymUIOOlEv4edU0jDtXHf/qOx4DG1oaC3IJa8JGYX1D5XEelse5hp+/mIx3Ll3CnxYmI8zsYaLcb+EojIo3rbddI4Q9NwNP5vLd/uz/5mLU7kjlq+54LAsJREU7TsHBoKNo04MOzrpSAlXpOAXvLw6BtPmk98awd3eqQYS4sXkRPlF7myerPTgeatREXXpKyCGrE8MxKcC0Tl8mrYqTa7JKjMZPbwRjhB5y+L+EufPMAhXK1HoCov84qiwHEPnDKqxdbVoWvj0G48aMwfDgjghqH4JXxulx9nksfm8VTuZzdorkvesy6yYEPIfBTgg55Dn/sFQPOYDO0x0ZckTj67GZIYe7cuwtW2GPkEORdgontZBDZlxpWKsQQg7hWwtB2tkCSTuPTVNGFG7IoRwVET+tzww54I7HHu/EkIOIiBxq71nTAN62BazLYR5yCEuhSX9tyErE2aPqab5JvY74VO2CZcnxN5Gsf7EvgIQ/NmLyx6Mw+VoH/Oelt6yEHIr08/hD+RpxT3U9TKmEDsFzsPalL3B85J3LvAf121VHz2cs38a0jMEY5VZjOmVfPwk9c8ltzm6ZhgG796NS4xn47hn7hhxUfLBHRzFi72KkZ74OwbB3o1DWfwzmrngJTdJ24sN2I/CDefFAGzwwaydmmtUAuHEsHHOfm45dWsHMsq3HYMGSl9DQxmEVNrkajaij1se+XNk5BzOXHlPO+aP/vAkItDAtqa5yk0DUzeH6vLD/rCtmkqMQ+ngIwtRRQPmdCeM6No0NxEht1teH50ViYW8n1Mq4vA7Pt5+A7eoF+8xUYlG2IRgVH30Xa+fZcQaPLLVNnsOyYxMQpG07YV84PtulHJPKsbn9oDYsKM7C7DLDwxE9wcY+mGlxiPh2Eb76djO2H4tDstrrpyMe71kNEaHhpueR3x4dyra3z3wOz3+dWRvDqSGHWoz2AH4IVf5WtxTScyAiomKroL+q670sCjpsRR/+IqS3hvTayE4fvmLtelvZWq/DUl0O29zEvp++wX//3o/l/wB9W47Hv7rXy7lWV+xGDP9iLbo9FYaB9bR1dpGfoSs3cfj7aXjm+Hl0az0Hod0d86Mae3QUbRy6UgzZfdYVpVG4a2kUGgztDT+cx09KAzFUayBmDS+i8EmjEMifc//lR/FS9rLO2cSsGoFhb5h6idQNnoPp03ujwuXzKFutFsraq/Gybw4eymtdCytseU22cmjQocgyXadXR8xevwgD8lJ/5Oo6jAycgE1y3oFTyt4hdhWe7zhVCzp6Y+Fvc/CwvYuCZAk53NF0+BxMa3kZP3y/Cht3H8NlNcCrgIbNmqBJp94Y0q83WtXM24tP3jkd/sO1uX6zDa+wuZ6HrUHHBWVf9VX2lcUZdszkJ+hIu46I0IEYZFYAtOHgRVg2qSOqOSxgyDrsJzt3344YPGECxvXO5+w6RERUohS0sakHFNa2ITU3hHm9jez0sETkFmLI8y3Q7CtOYRpOsrDsEIT164N7vLXVOTm8BAHrojFz2Az0LEh3zPjTWLN2Pj74+wL+TC+D1lVrodI/p3G/rUFH+k3sWz0Bw5SvNgOllkhgJe0K+2PQUbRx6AoBpWqhw/De8CuVjKOhIzJCjoLye2ICXmrrj0dnrcPCWcr2b0dh2cAeGDD8E0TZWoCULHJvPQazh2sFHRN3YuL/hedpCMu5n8JNIYei9gvBCEo+hhVvhyCgURPUD+iIfq8vRYQj9pFvE7TOCGTW4bMfMhvY2SVER2LFnDHoMWYVbH4q2XpyVOvaGw12T0C/UdPx9RY95BDXcfJwJH4Mm4p+Xdqiz5R1OJeH9+/IgVXaOeX9a9nAccMr0qTGSGbIUbH9c5i9aCmWLXoXo3rnY6rXbM59+5JZyOGOpqPCsXaqI0OOnARg+LxV2LllESYx5CAiIifRe2FYIteF7lqhLhKIWCJBiB5ySICRW0+N/PYakWliE+ILsFzPeaiLJXXqBNoWcojUFFxCfdQoyJei9PNY/tUETLsZiHkhX+D4M5MQ4nYJP2tX5ypdue1Xr6HP+eoY0eIReBycjE5z+quBRMDcURj3zUYcZhukxGGPjmLE7j06NCnR4ZjUdzqiEt1R1isZKXkYupJ92MqdzGddqY9BKxah680LyO1H6jtkn3nFrEeHpR4ZuRYjzeX++eXoHh2qbI1626cAPY+vB/TAW2oNlgBMWzwUR2aOwYrsmUP95/Dd6glolc+hRglbpuO1A/54ZVDWHhNZpxutj+HLV91RBDV593QEDA3X6jXYOO2t8n5InYmRq7K/kApo2L0PHm4fgHZ15V/fZJw7thMbv1qF7WbDSdy7vovNYbYMb1He9yE9MHGv6VL2QqTndq7CqVK14O5dE01rmr4duFesAPd8hAfm74N77znY+X5vsxAiGRGz+mDQUm14TJ6nYs3Ws6LZFGxeHYJsM8U5QM49OmR/tQqZgNkTgu07zI2IiFxSQX9Vz6mHhQQd/cLfyghDst8ue10OCTlyKzKaWw8Sy/JbsNOM9zBEjXwEtg1kMT3eeiksauPQF3U4zaF7sXnsEOS9XKrm+Ffo8f1pvPbCW+hZVVv391oM/+or1Gj/BWY8aKU+iEg5jzVfTsCof1JRp2w9dKvTFV2bNUMbPxmXfhMXT0Zi+a7lWJRcD6H938bAemVM9ysA9ugo2tijo4RKuRCFqH3RuHL1Om7IEhuNkzEt8eqi19F//iK8er92QzuJWTUG47Vfjh+YvghDA+KwcehQjM/r8lEkbqhbKQGuRiNi1VK8NSoYfTq2RH3pbaEugejRdyheU96L2iPmY5QWEpxcPFRp5GuN3pwcXo/FWs7gHhKIc3rIIVPV+vtkBiXRX2Dm9zZsz4pLsQewfbGpx0TguzuRoK2v/dRUjMuYXTQai81nRdG4t+2NwRmN3Cis2Jk9vMhGHYKRPeSogKAxS7HjUCQ2h03BuJDeCGofqCwdMWD4FHy+bSfWvt09YzrdZCnIu1jqueQi4Rj2aCGHBGit/bOGNLU7BqOzPE6zWqhYuYK65CfkECcP79TCHmDwAPOQQ7gjqMdD2nnF3i2IiNXO28ijtHZGHA7Hir2ZxUgdxwePz4tEVKSybFmFZUsXYfao3miVUR/nOvaHT1WO8TnYn8c6QURERHkl4YW1Xh2mHhrTMnphyO30nh2mECRvIYeQ++nbs111PDlypdqoNl+iWjcyBRj6ukceyXrZfLE55CgAz+oFe4zbqbikbKGGec08N1MgsfTCafXUopunsXyphBzlMLT1HGx+bQ5m9HsE3Ror38W8yylLddzTug/efPUDhHmfxrh1G3FWuyu5PgYdJcyNvYswfmBvDAgMxBOydOyN0UPn4+jdQ/HSow20W5l6avz3j6PaEg59dKL0fshcfzTH3hwp++ZgilarA81ex0t5LpxZwiRGY8WUYPgH9sagN95Xh1xkLWSZOexi0IARyGybJ2P7G33wfC5hx5Edq3BOO58c/gkWR7uj89RViNqzDmt/2IKFIZkN9/07oywPG4ldh7feXoUjVrvkJOP8Kf2JJSOhYsWMQAGl/DFqybvorAcZ6hSwQxF22Ow1lgrA4y9kHidH1uw11SOxKBn7s9WZcPd/Dp/vjMSyUYGonTWHyFSqApqGzMd3UzMHfJ4MXYQfc+lmlBylvPfaeTTriCYF6aKZi+R4s32Z6w8PO7HnQF6CCh88/MJzZj04orF4yEMYGR6dEa44ivRwUUOguv6m4GnMHHy3ZzNmdzXbWdFfYNCULRkBGRERkSPUVhrBQh9+kp21sEOmpNVJwGFryCH0xyyoW6nXgMq1HB9gOEvDZhjo9j98vvE0EmRK2pRr2LV9FTbIdcp3oktyakn8BfyZ0hyh/T7AjO71rM+u4lYdTz7wIHBzL/bl8cchKr4YdJCiFqraadYR3Y298zF62Bc4o11GlYqooP4qHYCXzIKS7MuC4eqt1QKLK8yvWxyMKtpVLikxCjP79sbEFccyG5vS06J7CEaNeiljGdzdH019TY3C5ETzZmkytn+2HvuttVSTI7HiM/MgRJu1ZbA/Kqr7xR2tArur16i2Hs0IRbKIPYUV4VPRJzAQgz6JstAYjcaRHdpZxcONMsMzVc1gLFwxxSzsiELoq/MRYfYLftOuZsMwDq9ChMVOHcnYPz8ka8ghQ1BWT0DnXOZV1zUcMMas98gWbM2lV8PJY5ljLtzbNnHoUI+Kfv7aOWD/iTsDrISYC9o5k1NxeRt46t56Ataum4KHzXpTbHo7GP1m7cTlfE5bnG+lamHArHfxsHZRJK9bhBzKuBARERVYkBZQ5DTlq6Www9bio+bMa3kU3DUcvnAJPasW0ZjjwELcNXsJ9mkXbeIRiNf6DoTH4QloLLU15r2AVy62xb/kO13FHHqL3NUBb776hmnq2zNb8c6HzyFgtnL/Oa9h8o/7TaGJzpAxAJ5KCAYdJUyV4EWZ4cHy57S1ZVE+26/fv7zREQ81aqItphlXxMqB+jrTMmlVnHZNpph1UzFmyCc46aTu5zEHIxG1O9vyh97wu4yzv1m4/mDWhmLhSkZE6FBktNm9AjBq6WYck54WMvRizJiMZVrYKqzdeQDRUZuxdt7reCxAnxo2ANM+fgmtrPRiSP5tC1aY7Y/aQxdhYbYeNhXvbmBW5yEa5y20naWBbcpSriPi11OZoYzu8insy3hr/dH63junrnVXjqeFS8x6FFz4As/PyRyqgUYdzWaSOYZtB+48xi6vm4BBYZmhkO11Nsy4N0G7rtp5xY+HTmnnLDmG7d9kBg4D2mYGEY7QsGWPjH2xf84EhO4+j2QJINKScflwOF6bssV0peZITN77P6j7YctSjMoYgpOMI0tHoPvYcKf97Wao3BZdOmrnVcew74QzhtMQEVFJFVSniXoaYaVHhy572CFM62wLOcRe7TH6N++snhZI7F6s/qcmujUqmkHHpTjl+5J3zTzUDjNxb9gHoRNW4vTIL3B8VDiiXu2KivFAe1t6waT/gUWrFuLXysPxo3L/vd2a4+zxWRi0+nDGd8VLl+WLdnVUc9xkLFTEMOgg+0o7j6jvV5l6clTujg5ZGi+OsWvWnTU9Zi7Vh08cw8qxd14/flbWhmKhStiJb7/WP4ZrYfiipRjXvlbO9R28aqFp76H4YEUkIpdPwaT5czA4o/5FdtexaYVe4FPh1RuTRgTeWby0sg/M+1/csvDL/rmzejFRRaM7Zx1JPhalTSGr8ApEUyuFRKVHwb8zC3YgOXwRVujdf0r5I+jRzGe3ffeBO3qOVOs6BpP04Q71n8OyeXkMOVQVUM3G3h+IPoCNGQFOb7QLsJIo2UuzYIzTX19iFMKG9oC/fxPU92+JwL7Tsd1eQUTFQIxbvgrTzIaOJPw0HX0Gzi/0OhkJWXosERER2ZcMI5HA4lz8JavDV3R62CG9OOT8v3uN0q7JnfQC+faQ6duRLcNccpR+CWt++AoXGw5H39yKtatOY8N3u3D2lnbRUa5fyDq8JOkSLpn3psgDd6mtUaEMzv68GPOTaqJvUxuGvl+Kxm8pjfD8Qx1QR7l/ndbDEBbUCudOLscGGapyZi2mHfgDze7uhjYepruQ62PQQRblu0ZHqVroNjQE5f2fw8x18zGgkbaerPvzQGbtBzyER9rmrRFdrXUIhj+awz8CV3fgp5+084raLww1G7JgpnK1LD06Lt9RsyIOR37N7NUQdPed9VnMh3ega0s0zCF8aPrcVKuFR5u2DdbOKbYeuHMKXa/6GBy2Fh/07o3ZSzJniEk4tg4zR/U2TZerLAGPDMVr89fhSAELPlw+sBMZX4ECAtAko/CIo/jgsXmrMO3RO3vECKlFMs4s2ercoAD1b7T3cmGwWfB07BP0k0AlbyNiskq+jnOHd2LF/AkYpOyHrzPGsVmQdh4nf9POaxrWzGk2JyIiooKRwGJshwFqEDFvV+4zaOi9OGT2lbwEFnpNj7yEIxZd3I9Fn7yGabe64e1Hm935g5Ul6Vdx6ORP2HdNu+wA3hWrK48j/UJNqjdqi24pazH8k/lYvmM/du3LtkTn8mRuXcKu7ybgsX2n0b71JAy0JdDxvRftPf7A5xvXKtu/pE6ri3sC0QvKum9HIWD5V9hXeQjC+tj4vpFLYNBBdle27etYsXoCHijIMMSUzA/M3GQPX2RZMUvvSiLTy955feawnaJHHaJgR+d+Cscm7TzQHeNCrAy7cK9o9uF/HvHZf9FPOIA9GTmGO1o1yt64jsb+TZlBSOf2LTMLkVriHoAuT2jnFUd2H80ogOrewB9B2nkkRuKIpUZyqVp4bN4cbZhLMo58EoLAxydg8ZbojB4gCdFSvHUC+nQMRugdNTiu47JNBanisO2nzACnaZ+2WbpjnlsxFPUbtVQeW3mMbLPIFIgEEPMjcWzbKnw+63VTnZYJ7+Lz1ZsRtbofKh7SgyF3NLQQOuWJ8l4+PP0LfG7eLSg6HM8PnopN+RrldR5fDw5Ep74jMDFsHSKU/TBz6U4kWDm2z327CIuzHG+90drUo5iIiMhh9B4a0qMjt14d+WG+3afyM2wlPVX5LrMLS5e+hrZL5+JnTxmaMQyts8+2WhqoHh+Jn7VGvrpcPI1dP67C8rL34p6cerBe/EMNIPYp9z178Gf8V/m65F7a9noW7u7llf9H46L+Ja5uH4Q9/DR6lv4DiyJnYcCWrMsr+++sPSYFR/dFbMQieZ0fjMKA6BQM7fQBwmyc4haoh6FD30KI8X9477tRaLzwOTT+YiHWl66OGhUD8VbPMOx9oQ/uyWGWWnI9DDrIIltrdKjLHLPhDKKUO8rmeRhBNntPIcdJMOr3w9ylS5UlHI/lp1xCwBh8HxmpLkMzJ98oHJVrIfN3geX4rABTu94pGtu/y9w/7oNDLPfm0Lhn9LAAjpzK+jwSdq7L7HniFYx22d/36L1YcVg7jwB0uT+3xrc7Kpo9Hm6bhQQ1m6CdWZ2O3Oo1JO+bj5dDo0zhmJcPOodI8dYQdNYKt6ozvAwZiNAos8dIO4V9W7Xzis53BDea2B3YmJFz1MIj92cdI3T5r0jl/8m4fEz5klHZ/r8TuNf0R+fgoaY6LcOD0blZLVz6fg5m6rtV2Rdd8j1xvZlSyvs2KXvYsQojh+Un7KiFx4f2zvKrSXL4CHQc/gl+PHweCVevq8vl6Eh8PSUYPd426wmkaDhuKB52eK8ZIiIq6fReHUJ6Xuizo9iDbEufhjYv9TyycEvBwV2LsRWBmDHwM6x8rivqWMogmvRBaK2rWKQ38mX5chrmX66FmY8FI8evCcZofLFlFvqsGIW2Gzch4a5heO2BPBSy8K2JnriGi2Zf1Sq2DMabL4Rhx4Q7p7uN6mfh2SQdxue7V+E3tMK/us/B8dc+wJigPNYg8W6GgUPnYK3ZY0aND8PioUPw5H1Fs54JORaDjhIrGWcO6r8IR+HPzFEDxUPl+ghoH6gsAfAzbyzbqpQ7yleuoC4FDmUKqn5LPJLRqJepYoMxKGwnTuYy3alNDm/B4ozwoRZeedJCbY4MtXBPW+2sImK32awqiZH4KDSzrol7cPc7Cp+eVP6Byhze0Rudc+1qeB3nrTaga6FhS+2sYtMfORUKBY7sWq7NEtMRs9fvxOdvS/HWKfh8204sG6433KMRNvELHNF6FSTvXoevM3oRdMQjbS0HM5d3bzGrO/IQgrIMx4rD+Yy/HaXx7ui6FmnXsf+TEPR4I7N4a6sJzyHIXvmKHcOOio++a/bemyTsno/X+vZAQKDyt6ssgY8MxVvmMw0ppLDskuGOLfZKRESkk54W47QhLP3C37JL2CHb0IesyLbzX5ujHDoM+QJfDx2IbnVz6I7gVh3dnvkga7Aw4QusfGEkesqMJDnxfQSLze7z9TOP5K3ng3r/MAzN+k9+3ijbCBv/mSmUaF0PFTlBCtkBg46SKOEYfhjTEcNm6b+iRuHDl+cgKsEHjy62MMwjt2VCYXeJKO78MXxaiFkAcR0R80egR2AT+HcMRp++Y/DW/PkItbJsyqH2wZEdqzKnia0ZjM45th990KClWa+Gn6Zi0Ng5CJ01Af26DMXijIZuACYNyhaYpB3Dps/1ArBK4/uJjtrwjiiEDZiA0FWROBl7PXNYTloyzm2dj4/Maoe4ZyluWgG17s18LsmHTmUMa7EoWW8q10fDjNBIUaoCgsYtwDT9EI1ehK+3XgfOrMO/3sos0OoeEoLHLXbrPI+N32b2NnAP6YFWWYIxH9TK+If9PD6aPAc/Rschwbzlbg/yfu1eitf6dkQ/veeKQkKBfz9lpSdKfqlhxyLMNitQago75iAiT7VO3NFq3HJ8NyEw5yFMGZR9NWYpduZ19hwiIqICGtehf5awI9SGmh3WyFCVwIUvq6cScMi2icj5DOr/Jx42GmcVsAowOdzpczEw1vbTLuVPzPdjMObtLbii/vLsjgemvoumaydgqXSD9/LBA08MxYMdm8Avl1+IU2KP4sh5U6vnxh87EdP+fcwMuTPKPTqnCUYvVs50fBcrFgejimm1VRm3x3NY8McE5HeY/pVVIzDgDWmgSo2ORXjU1tk1Csig7KN6+dpHyTgZPgH9lH2T17qZw5cfxaTW2gVzyZF4K3BoRq+FVm9vxnchuTSKD3+CTn3nZ4YjFjQcFY61YwKyBh2Hl6LHM+9r05J2xGzlPR+gvudxWDG8IyZmHZlgQQCmbQzPMnNMwk8TEDBmnXbpOXynHA+ttEvZHfmkB/qEylAbd3SevhafD8j6Ok9+HYwe72pBTGUfVEuOw2W994VXbyzcNsfykJ4z4ejXfTr2qxfcMXjpXkxrn/WPI3n3dAQMNZvVJlc5vxZV8nUkxJ7HkUMHsG3HOvywJSrz+WrcW4/Bd0teQtP89GiyRdp5rBjVBxO3mr2y+spzX51Z/NVmCdGI2LIW367biaNHj2X2VlI+c5rWb4lW/YIx+NGOaJjDsCoiIiJzd83ur/ZCsCcJOEJ3rVDPS08PGdYiw1tsISHJPOW++gwrEpww5HBNjjj2yH4MbxwBZjczMOgoRuwRdEhDdrDSkI1BfTw6fxHGyWwdCZFYOngElh3L78/QtTD0h80YZKG3QK5BR0IUflq6A6aakMk489MX2KUOBShpQYdJwrFVCH1rDr6OyrkmhTlrQUfWBngApm0Jx+Bch5MkY/+cYPRbbHksU8Pg+VgyvbvlX9yTz2P/qi8w81AAPp/VW/sV35agowIenrMKC5/IFsLs+wQ9Po/H8JB+eKRtfVTM6Vf+Y8ptH5+Pk9pFd98APPxoIGqrDfLrOPnTWmyKtvCeVu6OD1bPx2PmvUDMZAlIvEKwLHKKhWEiUgh1aJaeFjnLJei4ugWvdRmDH7MFGxm8/DFg6nRMesI/5/fEHhKjMLNvCMwPh4ohi7Dz7Y429tIgIiJyDEc1NiWokMBCggsJOaRXRlutaGn2IShymxXK7SPMio7K7WSGlfwPV6GijkFH0cagoxiyS9CB8/hhyHRgynw83sisxZZ2HWf2bsYvW3bi54PncSX6mNbrw4rKMkRAu793D4xe9BKa3NEAtKVHx3VsHROImWZDGFS95+P7ed0hdZzzo7gGHbrky9HYv3MH9hyKwnZlf1xS9kf2X/Qr1vdXG/KPv7kKw62MHko+E4Ufvg/HitiOZuFDLpRj4cj38zHzs7WIUMOBCmjYvQ8Gh4zA4PZ5n93D9FpMv+afOhWNI7GmOMDd1x+duwZjyIgQBNlh/5z7fgz6TLC1R0wFBA2fimmv9EbDXHonyMwtG79bisVpQ7H2Des1TpIvHMOmHWuxdUtkltdpTl5zQ5/emLZ6aI49Oi5/PwIdJ2TW4RBqeDNkDMYNDkRta0/CES6swvO9pmK7cvxVfHQKvpsVkut7RkRE5GiObGzqAcaKQ9vU8+YkyMi+Tsj6Ac27sBdHCcCgo2hj0FEM2SfocC5bhq5khhIKLx80bD8II95+CQEFmJ62uAcdlE9Xo7H9p3B8+90B7M8SDlVAw2a10OC+jmh3fw907u7v3LAgr2TYyEvBWJzWSXmuHfF4++5oWrfwnrDMajNyV1t88Eqg43uREBER2cAZjU090NB7bZyLv6Suk1BD1PaujqA6TZWlCXtwlCAMOoo2Bh3FUHEMOkoaBh1EREREjsfGJhUWHntFmx50cNYVIiIiIiIqVip5lMc/iXkt4U5UMHLMybFHRR+DDiIiIiIiKlYC/Bpg77mj2iUi55BjTo49KvoYdBQjBjdld6Wna5eoyFH2jbqPiIiIiMihHvNvh28ObtUuETmHHHNy7FHRx1ZZMVK2bBngVop2iYocZd+o+4iIiIiIHOrp+7riSuJ1fH1gi7aGyLHkWJNjTo49KvoYdBQjFbw84HYzpzlfqTDJvpF9RERERESON+fRlzBrRzjDDnI4OcbkWJNjjooHBh3FSIVyXigtQ1duMOwocpR9IvtG9hEREREROV7T6ndjZchb6nCCwStnYv2JvSxQSnYjx5IcU3JsyTEmx5occ1Q8cHrZYiYl9Tb+vvQP0r0rAOXZqC4SbiTCLf467qpeFWXLlNZWEhEREZGzSEP0x2N7EBVzCtdu3dDWEuWfzK4ihUelJgeHqxQf+vSyDDqKIQk7Ll25httubkiXHgQeZQEWwXQu6VlzK0UdriI9OapXqcSQg4iIiIiIqBAx6HAB15VG9vXEW0hJSYVRGt7kNDK7ihQelZocHK5CRERERERU+Bh0EBEREREREZHL0IMOjncgIiIiIiIiIpfBoIOIiIiIiIiIXAaDDiIiIiIiIiJyGQw6iIiIiIiIiMhlMOggIiIiIiIiIpfBoIOIiIiIiIiIXAaDDiIiIiIiIiJyGQw6iIiIiIiIiMhlMOggIiIiIiIiIpfBoIOIiIiIiIiIXAaDDiIiIiIiIiJyGQw6iIiIiIiIiMhlMOggIiIiIiIiIpfBoIOIiIiIiIiIXAaDDiIiIiIiIiJyGQw6iIiIiIiIiMhlMOggIiIiIiIiIpfBoIOIiIiIiIiIXAaDDiIiIiIiIiJyGQb1/xMPG42zmqpnqejaG/mLdo6IiIiIiIgKQ9vAB7RzVNQY3jgCzG5mYNBBRERERERERMWeHnRw6AoRERERERERuQwGHURERERERETkMhh0EBEREREREZHLYNBBRERERERERC6DQQcRERERERERuQwGHURERERERETkMhh0EBEREREREZHLYNBBRERERERERC6DQQcRERERERERuQwGHURERERERETkMhh0EBEREREREZHLYNBBRERERERERC6DQQcRERERERERuQwGHURERERERETkMhh0EBEREREREZHLYNBBRERERERERC6DQQcRERERERERuQwGHURERERERETkMhh0EBEREREREZHLMKj/n3jYaJzVVD1LREREREREtrt+MxE3E28hOSUV6enp2loqztzc3OBetgzKeXmgQjkvbS0VdYY3jgCzmxkYdBAREREREeVDSuptxF25pjaKpTHs4VEWpZTzVPylpafj1q0UNcSS8MqnSiWULVNau5aKKj3o4F8hERERERFRHknIcSH2MsqX84JvtSrqL/8MOVyH7EvZp7JvZR/LvpZ9TsUD/xKJiIiIiIjySHpyVK3sjYrlOazB1ck+ln0t+5yKBwYdREREREREeSDDGWS4CkOOkkP2texz2fdU9DHoICIiIiIiygMpPMoClSWP7HPZ91T0MeggIiIiIiLKA5ldRQqPUski+1z2PRV9DDqIiIiIiIjyQGbhYOHRkkf2OacPLh7410lERERERERELoNBBxERERERERG5DAYdREREREREROQyGHQQERERERERkctg0EFERERERERELoNBBxERERERERG5DIP6/4mHjcZZTdWzRERERET/z97dwEVVJ/rj/5A2pIlrom5QXVELMyGtcTXIVbIr5gq6K+RPsVWxULs+baBeEPMpEa4KXZ+uIiVigf0TvCmYCZsR60K2jquBKVQKVxtaBTOHRKaQ//nOnMGZYWYAQWWGz9vXF+acOfN0zjCe72e+D0St5W/f1iHuUJ30W17RCv6tu/73tqlO+P3j+irN3XT+Qjn6POYmL9G9tGvXLqxatQozZszAihUr5LV3Do992+YUdRqI83Ji0EFERERERHeECDnGba7TXTaEE63h/67IFyQH59/9sIOV3bZBhByhoaG6yx4eHncl7OCxb9sYdBARERER0R3lteqmLpSIGuuEqJdaL4wQ95n6ZR1iD9XpApSiFXe3Rz4ru/eeccghAg6xfDfCDh77ts0QdHCMDiIiIiKiNuon1U3M+6AON+RlnZt1WL/0Jvb+n7xsSelNvBJ3E6dq5OV7xNDyojVDDkGEG+I+f/+4/jGMW3g4hgLEj1+Ejy/Ki7/ewI1f5cuNuFFl8m4xch7vTnoRyw5dlZf1bnwWgxdnvYsz1m7WBhmHHJ999hmSk5N1pbS0tL4rC7VvDDqIiIiIiO6Vr26i68KGZe+/9Ff/pp8THjhWhw+/1y8LN1R12OEMDH1UXtFAHb78DCjt6YT+0nb1fqnDT9ekUi0vG6vWX3fjF3m5FRjCBxFGUPNczUzFhgeexbOGY3w8Hp3ud4KTU+Ol08x9+EG+mbGrmfFI816DZWO7yWuEf2Lr0oMYNXMqBjwgr2rjzEMOPz8/3WXRkoNhBxmw6woRERERURt2Ku0mgn92QmGYEx5AHQ7E1+HYcCfEDLPQSkIEFd9L228E5q+9DyM71WHv23Vw/pMTxl+rQ9d39ZtZM/4PTnh/TOu0vhBBR+wndRjeD5hq6bm2gnGbb+oGORVdV1pzDJDG3NnuC/9EvM9cYFs+IgbfwJHN8bgxNgJ/eLwFSUTVESx64kXEW0pAbJiYVo6MKQ/LS/eeccghiK4q58+fl5f0DNvcqW4s7LrStrHrChERERHRvXSzDjcsdS0xrK/Rt7Lw8HVC6p9EyCH5ug7rqoBZz0LfOkMq9Ypu4t/fvon1H0oVQGn7kZ2AG8fqsPQy8PBv5aBB+v3NxvtwTSp/HawPNsRlw3JrEsHDthCnOxZyOJ4fsG/ma4h5aw1S/xCPueJ4fJuK+LVf42rHFoQcv55H2n9MRfzvU1FeV4c641KwBnjZwnq5tNWQQ7TcEC05ROuNPn366NYZiHBj5cqV9S07qH1i0EFEREREdC8U1aHXEgtdV96Q1qfV4V+5dXjsTam8XYd/f0u+LhH46grgvUi+TipfyneHp5ywtifwVgXw5+FOusAkaT8waYIThnaSt2mEcyvXDsSsK443fsad8jBGzeyDg8vL8eqffPCACD5Wx6DbpniEeIiuJ/MadFNpWGJQIN+bTtU/ET/xRaR2GQcfeZU9Mg45RHcVQzcVS2FHbm6uLugQ7sZ0s9Q2MeggIiIiIroXnta3pLBYQp3w2zGm68xbYBjKUPnucJ8Thk53wl8HABEpdTi1vw6bejvhzWa0qHjS0PKjFYiAQ0wt+3rqTXkNNabb8Gh8nD0KqWEx+HjvBizCGqx5Wd+qoltPN2B1vsWWF7pyIRUTdVsaiMFH/4CPfVKRMa0PCvZOhZt5MOKzDLC0XipBe5rZz+UOMQ85DGNyiK4p5mGHCDleeOEF3fXiOhGIUPvEoIOIiIiI6F75Vx1eMW/RsbYO8likzSeHHbMv1+H3ecDW/yd3ebnLREsOMT6HUHYFeD2NLTuaqtvoNUj9jxMYt6Aca1aHwLRjRnP0wdTdZ3AwSrQOkVjqomKj60pb6LZiLeQwMA87GHKQAYMOIiIiIqJ75bdOeN+shca1pU74rbjupjxLilyuiulFr98am0MUW7OkzPqTE/wfrMP6JTfx+V2eZvb11DqkHtMHHSLgEJdTvzQaT4RsuIEfvilHSMIahHT5GPMmvYv64TaX+zZoeVFfHpuKffJmBg/06HYr6LKzFh2NhRwGIuyYPn26vMSQg/QYdBARERERtUWXgbnyOByiBBcBBwzjdshl8xl5WyNlOXVY/RsnrBnhBHQA/J8FNh+WQ4Z/1eEJueXIv5+U7u/juvqWJGK5tXw8/z4cnO9kUqJe4qCkTXHj6BpElM7Dmil9gC4D8EzHrdhnODa2uq7oSrT1sTjsqEVHU0MOQXRXMWzLkIMMGHQQEREREd0rtrqumLX2sDRGx+Kndfei81PeTfz7ipsI+Bgo+7oOvaT7+t2KOiw7AxTn1+GUaP1xl2ZdETOu/P5xJ5NCjbhxBIucnNDp9zEoeG8q+jr1he/415B2/ipSP/snfrjwtbTREcSYtbxoUN4yGY7U7jQ35GB3FbKEQQcRERER0b1iq+tKM/3md054d74Tjq4V4YUT3pTWLZl3HzJXOSHmUaCkXL/d3TRu8836sTqoEQ/4Yln5j6gWLSp0A4u+ivjsT/Hp3g0YVfUjyn+9gYmPixE71iBf2qY8bSImppWjri5fDFmqW6droWFNM7uu6MpdDk0YclBrYdBBRERERNQG3TAai0MUS2N06Iph/I1OTujdETiplpd16lAs1VUH/cd9ePnf5FV3iRib42/fAke/YdDRNA+g28UMLHr7COpHx/i1AMtm/Yi5b44CSvPxQMdmDi376w1cvSH9fi66QdcUUfJXAxN3n7N4na5EPaO//V3AkINaE4MOIiIiIqJ75MYxs24rcjlQUYfNRmNxiGJpjA5R5krrDP71jzq8dlRekP1QVIcPpds2xb+utk4oIVpyeK3STysrwg7xmtiyowl+/QFb/3lVXpB07IOnuhzBP3+4ivILP+Cpx9zkK5rmh/99FQ91stBSQy6+y4F90/pavE5X7u+EV//3zg9KypCDWhuDDiIiIiKie+SBTtKPwcbjbui7nDzcwwmLjbuzSMXSGB2ivD/m1vgXP1QCIx6VF3ScMOxpYIeqaSHDD9XyhVYgxukwKQ/JV5BVVy+XA0+44dYwoA+jj/cRnLl4HmcKQjDAQ6xbBl8nJ7iF7MO+EDc4OflKa/TrdF1RjDz8cqrFlhrlR9bgD4+HIDrqDxj1+lz8wetVvFP4o8Vt7/SgpAw56E5g0EFERERE5BDqUHIOGPxvpgN/PiAtD/u/OpTJy3fDwfn3oWiFaZk6jAOSNuZ8UQZCnhTjcNwy4OV9CMEJfNxzFJ7RZQ63OUaH5MbFI4if1BfPvFWNiIJUjOv0Mbr9fhkOZv4BZxY8ixfD0/DPCnnju4AhB90pDDqIiIiIiOyBvieIdd/X4f+7DAx7Ql42cHPC+0vvQ29x+S5NL2tMjNVBTXEeJz57CqP0aUa9bk/64OpnW/HAlFEwjUCa6MZVnDn0LhZN6otOL8Sj/E8HcebIGozqIV8veEzEhux8RLsdxFRvNzwVEoO0L87jhhgX5g4xDjkaCy0YclBzMeggIiIiIrqXTt4KG7ourMNb0qoy3fyyxuosrDPTwwlv/ocThlo6w79f/m00vax5ac3pZQURcIjXxLE5mujGVdx4PAS+j8vLBhUf492EZ/FqYOMxxw3Nj/IlvYL1vnDr9BDGrS7AQ1My8OOZg9gwZQC6ydeb6PgwRi1Oxddn8rHBpxypf+6LTve74anwj2E0akirEMGFIeQQROghggyx3hxDDrodDDqIiIiIiO4VMWOK2Rgd6b8DeouxO8w4d5QvWOPshEFP2Oge8m9OyPwj8Bt50dzQyU7Y6tc63Uv+9m0d/ibPtiJ+i2W27GjEA89g7v+8igHyYr2ObngmYS4m6lpgPIBuo7tJP4GH//Qu3v2TaP3hg4gfI/DwniB0mvYxIobcugef0FQcuVyNcwXvIPpPz6CbhffQ+R/M5h3u1gd/mL8FB6XjVn3+Y2Qs/YPlYKQFUlJSdL9XrlypK4YuK2K9CD0MGHLQ7dJ/kkUW1dXFDtRdJCIiIiIiagkx44p5sLEtxKnVx+kQs7uIWV3EGCBiwNO75fyFcvRp5gwodIuY0UUQg50Kq1at0gUeBmK8DqEthhw89m2bU9RpIM7LiS06iIiIiIioVW2b6oSosaaFg5GSYGixYRxcTJ8+XRdmeHjoppXRtexgSw5qCbboICIiIiIiu8QWHfanT58+KC0txfnz5+uDDQPjAUqFthhy8Ni3bWzRQUREREREd9TraXUcjJTqiSBDhBxiTA7zkEP4/PPP5UtsyUEtw6CDiIiIiIhanRijI/VYHY7Kg5ISGYIM0VXFQAQfYowOMW6HoVsLQw5qKQYdRERERER0x5TdwdlW7uR9U+szHp9DhBuiG4sohoFIxW/RpYUhB7UUgw4iIiIiImp1YsyM3z+ub9lxJ7qviG4x4r7F49zN8Tno9hhCDtFlRbTeEKGGaM0hlsVlMQPLihUrLHZpIWouDkZKRERERER3xN++rcO4zfqQozXDCOOpaw/Od8LvH7+7M7pwQMrmMwxCaiDCjZEjR+rG67AnPPZtm2EwUgYdRERERER0x4hQ4vVU/eworUkEJ2Ia27sdcgis7DafmE0lNzdX1y1FtNywVzz2bRuDDiIiIiIiotvAym77xWPftnF6WSIiIiIiIiJyOAw6iIiIiIiIiMhhMOggIiIiIiIiIofBoIOIiIiIiIiIHAaDDiIiIiIiIiJyGAw6iIiIiIiIiMhhMOggIiIiIiIiIofBoIOIiIiIiIiIHAaDDiIiIiIiIiJyGE66n5FFdXWxA3UXqe06f6FcvkRERERERPfKb1weRPduXeUlak+uXL3GY9+GOUWdBuK8nBh0EBEREREREZHdMwQd7LpCRERERERERA6DQQcREREREREROQwGHURERERERETkMBh0EBEREREREZHDYNBBRERERERERA6DQQcREREREREROQwGHURERERERETkMBh0EBEREREREZHDYNBBRERERERERA6DQQcREREREREROQwGHURERERERETkMBh0EBEREREREZHDYNBBRERERERERA6DQQcREREREREROQwGHURERERERETkMBh0EBEREREREZHDYNBBRERERERERA6DQQcREREREREROQwGHURERERERETkMJx0PyOL6upiB+ouElH7pfn5On6+fgM12l9w8+ZNeS0RERERUftx3333wVlxPx7s/ABcHuwsryV74BR1GojzcmLQQUTQ/vIrKq5clT4ZnHB/h47SmjrpHxERERFR+6OvJDvhl9pfpdPiOvTo3g2K+8U5MrV1hqCDXVeI2jkRcpRfqkTHjvejY4cOuoiDIQcRERERtVfiXFicEYtzY3GOLM6VxTkz2Q8GHUTtnGjJ0emBB6RLjDeIiIiIiEzV6c6Vda2fyW4w6CBqx8SYHKK7CkMOIiIiIiJrpHNl6ZxZd+5MdoFBB1E7JgYe1Y/JQURERERE1ohzZnHuTPaBQQdROyZmV2FrDiIiIiKixtTJ585kDxh0ELVjYgpZxhxERERERLaJc2Zx7kz2gUEHERERERERETkMBh1ERERERERE5DAYdBARERERERGRw2DQQUREREREREQOg0EHERERERERETkMBh1E5PiqS5C2eAomT5bK4jQUV8vriYiIiIjI4TDoICKHV/j+BmDWHnzwgVSma7Di/SL5GiIiIiIicjQMOuxZTR5WjAhB/N818opWcC4NU0MTceJHednIiXVPoa/nOpyQl4ksK0HaNH9M31smLzfD2RSELU5BYXPf0loVNkyYgrmrNiM9pwillVr5iiao1UJztapB0dbK1zdR4RZfjF5fgFb5a7yUiXCfCGRekpebRYv8hFnYdPSKvExERERE1L4w6LBjNcfz8OEPFXigu4u8poUu52HFf6zBCece6NlVXtcKLh96E4ETk28FJD9kYKbnU1irkpfJwXjCe6gWxQVfoVJe01SFf01G4XeAorO8oqk6eCPkvxbgpce1OP5eJKYF+GHEhFlYnpSJQulJeL+yCNghd11JccGqV7zkG0oqD2PFWH+MNisjhvviOR9RpmDTqcaCkysoPQdoOrmglf4ab5s6KwqRezXQ1NyQ19hQewWq1JWYO9lffq3+mLxwJdJUDEmIiIiIyH4x6LBbNThxJEP6eRHxE0RLCwtl8Mamt764fhJr/zwH72EGUhOC8FgHeX1ruH4Zp4suywvUHvQfGghFQQFUV+UVTaFV4fA+LbxfGY3+zX3/dVDA/UkfBE6NQNzuLOR9noXdi8ega0kmVOKt18kTIevlrivrQ9C/k/5mOr0CkVCQjy/My9F0RL/YRbqtMxS/NhZ0aFDzI+Dr4S4v3xvqT2MRHqPCkOh46bk38ly0RdgVOhFzt+QDytlYvXEztq6ejSHIx6Z5ExGepZY3JCIiIiKyLww67NWPOdj9Xg3GxGbj5LFjZiUDS5XSNs/1w2P6rW27dgxrJ4bgHYRg53tL8Gxzv02n9s2868fFEhTWusEXufgkKQ3bkxKxadV8TA+dgtGLs6228tCqcpFe7YUxQ1sWFhTvno+Yz2/AY3gQFq3fgRlPylc0R3UJds0NQUy+NxYl7cAcZRf5Csu0V9UoPQsofiqGKidDes3xiAydgXGLM6283iJs0rWgsFImxCIfBYiZYH7dZhTK92BOe2ozwpdlAlO3IC6g8X2oKfkKZ7UeCNmSha2Lg+A/VAnlaGmfJXyA1S+K7i97oGpGDyAiIiIiorbCSfczsqiuLnag7iLZgxqcWBeI4EP/jvRPluBZZ3m1gRi7w3sOciMy8PnsAfJKK8qyEDl7CT4ULTk+XAIfG11WxBgdwe/MQHqJ9Jjyuqa4nDEHw6L63rqd6Loy4k08vudrfSBD98z5C+V4sLNx84bboC3AhpERSNctKOD6hAd6iBYZ1WoUl7nDf5oPnnzsafTv5QLXfp7wcFXotjRVhdzl/oi8uRI5a/xvv/vHNymYPC0Z7tFpSGhCZd8ijQrb50Zgl3YM4t6Ogp+bvN6MGJMjLFVe0JFf+0MeUHp5os+A/vDs543+bpZerwhHqqS/ZCsuH0bktFy8sDsWY3rK63QUcOlm4f7KMxE+NRbqgHhsXegD1xa2yKrMisC4GCB6fzwCe8kriYiIiNq5n69Xo89jVk4OqU1wijoNxHk5sUWHPTqzC5HvXMb4Ja83DDmEc2eQC2eMGWI75Lictw6BE5bgw3OAX9hMmyEHkVUKHyyq7/KRi4O7dyElWZRVCO5Uiq6DQxES4APlUC8rIYfkaj4+yQGCx/m1aIyLwtxklL64FKtuN+Qoz0VM2HykYQq2JlkPOQTvV7ORc0gq2bn4YssUaU0QVovXvXElFoSFIHC40mrIISi6dYGLtfIbhfQXLJXfmF9nKeTIRuTMWBT6rkRCK4QcgBbFZ8QAOi5waWEGRkRERER0LzDosDdiLI03NuLCqLcQ7X8RWyeFYusXFfKVet8ez8YFqdLlazTeoonaCuTGBmHEa3vgPDYAzWvLk4G1izfiQ9VF1DRzVgpqZzr5IPh1T6Rv3IPiRt4rlUcPI7dTEF5QWg8GmqSmBX0tLmYicuZS5D4egd2Js6FsLHHpJIcPLgqUnlMBSg+43W7IcEmFXZFTMFp0TxkVgLD1mSiVr7KpsgAb3liJfK8opKzyh3tLQ45qNVRJ8xC5TwuPmcHwvdcjqxIRERER3QYGHfak9iI+DA/FO7oBQwPQU/r37EggadpoBC7LwLfXxUZncHjnGSBgmMXWHtfOZCBy3AjM/KgrIj7MQ/rCYdK9NEc/OGsysGKKPwYopftZl4ETP8hXWXGjtgbobKnpCTk6j4nRWOSSiA37bE01q8Zn+wvg/kogWppz9P/9FLh/mozkRmdJMaUV09pOi0fl6Ags8CzE+lCzWUiOqmH9HqtQWlgCxaA+0LcjuYLc2BmYLsboGGU8voYvNp3SbWCqugAbJs/HJ71CkbQ/GweTo+F9tUjaK43QFum62Bx4LAofxAW2IOQwGi9kVDAiP+2B4NW7kDTTCy08HERERERE9wSDDjtSU3YSJ34ajf9+Vx4wtEMP+MxNRt7+xXg05034v7AQ7yQmY8v3zvhz0AiY9ES5dgYfLgvCsAlrcHrIOnyen4zXBt/O17WDEbE9D2eOZWHnvOdwLeNNBI94BoHhySiwEnhcLj0GDHm0CQOj1qAgLQsX2FLEcXToLVWao+CyLdL6FK0XC3C4yBPBXhrsWhyAET5+GLc4DcXV8vWN0FRWyZcAxaDZWDSxHGlvRCGzXF4p1GqhLrMcVmhUiQj7j0QUogu0l0pR4xaMxZv26bul7N2CmYMqkbw4GNMSVNDItzFVirNHAb++HvKyAh7+87Hg9fmIS87S349c5lhoZaXJP4z0brOxaqE/PHp1gWtvHyyYI7rClKHyJ/02Fl09j5IyYMyEMS1syeGB8WLGFamsXjwFfu410Gq0NoIdIiIiIqK2jUGHHXHuG4C4Pesw/hF5hazrgBBsy0lDRN88rI3PQs0jczDpObMWFB0v43TJU1i1Pw+ZawJaPn3sQ33h99o6pOfnIX1lAHBkPaaOGIYVeZargk1yLgPxK9/Ee/+wOkQjtWW1V6DaF4/IaSKsMLQQCMD0OBU8XnRpGD7Iio/sQSFqcGDLZnw/MgH/uz8WY77bgg2HmjK9aRkOL/JH2D7Dtgr4ztuCkF4FiFmegVI5NNN+uRmTJ29Brtl0t5UF8Qibl4LzntOx9YMspMRFIHi0ly5w0HVLedQT/jM34+D2KcDeCCR+aaH6X1aMgmolfveUYWaWLvBQKqEcqoR37+7y2Br6orDwd6fVSn8z7tJ2xtd1FD/U+Kr4im7Rol5jEDq1NzKXz8KmAhvbNUp6vmLGFan4T5yP6PUR6F8wD3+KzISaoSMRERER2SEGHY6i62BMCh4mXXDG+CUhGGheoeo8Aqs+fAuTBrRyp/sOPfBsyFvIzMvAqoAgvDDE/P4rcPGc9Kvfo410kanAgXXrcWLwYkz6Hbu52B0xiOfUALzxkQZP/zkBH8gtGA4mx2H2aDdUlJbqumis31Vg2iqitgQFH+lDCt+IHYgO8IRrLx+8MAooLCgym5r1CrLXxyO7zChs0OqndfXubTT4aCcvLHg7Cr7fxSMytUS3SjF0DII75WLvEePwRIuKc2q4TInH/26dDaWN2UUUg4IwValF+pf6+zNWWZiPYrch8LzNAbhdvX3hrUpD2lE5rNCWIfP9DN3F4+W2wh4FvOelIGWGAunhkxGZ1ZRgqAk6uCPwlSDgaDzSOL8sEREREdkhBh2O4vsM/OdbeXAetQwR/vdgBMGuA/DnhCXwE11qTFzGhWJg4KO2Y44LGcvwn0ceQcSqEDze0tYmdJdVIXfnSmS6R+GD5JUIGe0Jd7kFg2tvL/gGzMbqpGzk7N6B3X/xMZ1V5ZsCHCgHvMPjsGDQrREh3D18gAqNWVcRNc4dysBXxvX5kq9wAD540tBrxMAtEAte90Lptl3IFq04OnhhzCvuKDxUYDT2hQL9p8YjaYEPXKXXUJi6FJPHipYoouvMZmR/Z1zJf0BsboF0uy8LoBilRH95TbM9GoS4BF8ULg/Qt4IZOQWbnKcgRCntl992lzeyRnoN07Zgd7g38mNCEL63rHW6nLh5YIh0T+pLt7oFERERERHZCwYdjuD7HES++iZyMQL/tTKo5d1SWtO5f+KT753h81RfeUVDNSVpWPFWHnzWbMdc2zPiUptUiq+ytAh+2fZYES5PeMHDZLpSLVQfJ0PdKQihAb3ldXqKTi7AWbVp0FGpRkm1JzzcbyUOpWcKoH3SF56u8gojHi+FwF/6q/hE7tbRXzkSiqJ8qC7pFk1ojqxF2Ls1CH47Czn7d2BOt3wsD4tCtmHbWjXOn5Tu47dmIaK2EMdzgPFKT3nF7XH1mY+UnFz9WB5H8pET/TQ0KqBPzx7yFrYo4PFyPD6IUuJ4wnTM3V3ShLBDC3VBCsLDUizPiFNeiuPyRSIiIiIie8Ogw86JkOD1iQvx4Q8jEHdwO8Y/LF/RRpw+tAunH5mDCYPlFWZ0z3/SGhQ89xZWBT0qryV7dO16M9sSaAvxWZZWN9uKr0kAArj0EMmFFhqju9SWFCIf3nCv7yJShuMfl8D9BW+YN+jQcfHE75TA8YtyG46+3vBDAf5R2LCVQmlxLjAxFMFPdodLL08ERq7CnF4FWPNhEVBbBdW2GKRV+yB4pGkgo1XlIx3+GOJlCF/KkB7qi00qebE5Oij0Y3l00qLw3U3IbOZ0u+7j9WFH8bZZTQg7FHCu/Ar5RclINB8LpVat6zqjhRd8BzfWooSIiIiIqO1h0GGvajU4nbYQwwLWIPfhGdiZsx2TzAYpvefOpWHFxsuWxwyRfJv+JoLlkCN7axtriULN4IGnAxTITkpEvoXWEtZo/paJ9GovhPhbaA3RywNKFEJtGLxUqnwf3psBxct+GGKo+3+Ti7Sz7hg/VNxeC435OLjachR/DfTpJrfCkIOP3HOl+mUjHt6BUOzbhO05JVBfrZLuyx3KP/SG9sgGTA/wx9x9zghJiEagyTgeWhQWZAI+SnjXN/TQQH1Wvng7rpYgM2Y6wlKBkLfnN3u6Xffxsdg600MXdjQ2Zofr2AhED4euy8v05WnI/lIFVU4GNoTPQMxRoP/MBRjP7JGIiIiI7BCDDntTq8G3RxIx1XcYAld+gYELk5G3bwn8bA+BcfeJ7jT/sQanR72F6LFmzf1luRlZwP/bjjyGHHauC/xmrkQgMhA+wR+TI+OxfV82VKLiXF/KzMbbqELBZ9nAi8EYY6ky7fY0nu9dgk1bUpD/ZTbSoiMQc9IHy15R1g+VobkOeHhNhM+TYqkKuSv8EbYqEZlHpcc7molNi6N0QUrgUEMrDHd4jpuCBV7dG7R2cBkZhQ9We6P0vXBMHuuP0VIJ21YJj9+4wzssHh/s34UFPmatG+QWKb6jnsetnjP60Cc9KRHZouuNCE2MitZSN5FLJfqAQUytO3YG1n/ZH4t2J5mMWdJ0Cun57sDWqW76MTtshR1i0NG4LKSsDoJbyS4sXzgfc5cn4jh8sWDjPqSEedXvayIiIiIie+Kk+xlZVFcXO1B3kdq6GpxYF4q11wOwdE4Inm1pV5UfMjBzxJtAbB52BtkeD+DEuqcQ/M4MpJcswbPyOmuunUzE68kuWBUbgsfNByi9locVk7bDeckmLB3VlDEI6E45f6EcD3Y26zdyu2qvoPDQJzh8NBuFZ0pRfMkoTujmj7j3V8LPkAhoS5C+fAWKRych+kXDtKymtN9lYE34Zt04Ga7DgxAtVcR9rbYw0KL002TsPJCLAl2oooDrID+EzluEYC/L999iF7OxfFUufhez1rSlR3UZst9NROrR4yguM+0mE5yQi0U+pvGBtigRYdEFcBseiFGBPvB7wt3iNLTNIrqfrNqBmulLEdyPcQURERFRa/j5ejX6PHabU+3RXeEUdRqI83Ji0EHUjrVq0EFERERE5MAYdLR9hqCDXVeIiIiIiIiIyGEw6CAiIiIiIiIih8Ggg4iIiIiIiIgcBoMOIiIiIiIiInIYDDqIiIiIiIiIyGEw6CAiIiIiIiIih8Ggg4iIiIiIiIgcBoMOonbsvvvug5N8mYiIiIiILBPnzOLcmewDjxRRO+asuF/6yaiDiIiIiMg2J/ncmewBgw6iduzBzg/gl9pf5SUiIiIiIrJEnDOLc2eyDww6iNoxlwc7A3V10iW26iAiIiIiskw6V5bOmXXnzmQXGHQQtXM9undD9Y0b0iWGHUREREREppx058rinJnsB4MOonZOcX9HuPVyxa+//oJfa2ulj3Lxj4iIiIiofRLnwuKMWJwbi3Nkca4szpnJfujrM5FFdXWxA3UXiaj90vx8HT9fv4Ea7S+4efOmvJaIiIiIqP0Qs6uIgUfFmBzsrmJfnKJOA3FeTgw6iIiIiIiIiMjuGYIOdl0hIiIiIiIiIofBoIOIiIiIiIiIHAaDDiIiIiIiIiJyGAw6iIiIiIiIiMhhMOggIiIiIiIiIofBoIOIiIiIiIiIHAaDDiIiIiIiIiJyGAw6iIiIiIiIiMhhMOggIiIiIiIiIofBoIOIiIiIiIiIHAaDDiIiIiIiIiJyGAw6iIiIiIiIiMhhMOggIiIiIiIiIofBoIOIiIiIiIiIHAaDDiIiIiIiIiJyGAw6iIiIiIiIiMhhMOggIiIiIiIiIofBoIOIiIiIiIiIHAaDDiIiIiIiIiJyGE66n5FFdXWxA3UXiaj90vx8HVU/V6NG+yvq6m7Ka4mIiIiI2g8np/vgrOiILg92gsuDneW1ZA+cok4DcV5ODDqICNpffsXlyh9xs64OHe7rgA4d74OTnIMSEREREbUnddK/2l9vovZmLe6Tqsw9XR+C4v6O8rXUlhmCDnZdIWrnRMih/leliK7hrFCgY8cODDmIiIiIqN0S58LinFicG4tzZHGuLM6ZyX4w6CBq50RLjvvv74D7OzKlJiIiIiIyJs6RxbmyOGcm+8Ggg6gdE2NyiO4qDDmIiIiIiCwT58rinFmcO5N9YNBB1I6JgUfFmBxERERERGSdOGcW585kHxh0ELVjYnYVMfAoERERERFZJ86Zxbkz2QfWcIjaMTGFLAceJSIiIiKyTZwzi3Nnsg8MOoiIiIiIiIjIYTDoICIiIiIiIiKHwaCDiIiIiIiIiBwGgw4iIiIiIiIichgMOoiIiIiIiIjIYTDoICIiIiIiIiKHwaCDiIiIiIiIiBwGgw4iattqy5C+OAJp32jlFa1MtRnPjYpFvkZeJiIiIiIiu8agg+6OmjysGBGC+L+zNumQaqtQeVW+bEbzaSwmr8qGWl4GriB71XxsKrgiL9tQewX5GyOxCX7w66vQr9NWQXO1kdKcTKSjVKq7wMVFv0hERERERPbNSfczsqiuLnag7iK1bSfWPYXgd+QFG5znpuHMwsHykkEFPnxtBCLz5EUb/GLzsDOoh7zUcjV/X4PBoXmYtz8bcwfIK21o2eukpjp/oRwPdu4kL90+bVEKwhb/HS+8vQUznpQDCZ0qZC+bgbN/SsMCpbz+YgbCFlRh0d7p6N9Bv8qiWjWy4yKw5sJLSHpb2lZ+mpVZERgXU6BfsMI3OgsJAd3lpUac2ozn5gBJBfPhLa8iIiIiIjL38/Vq9HnMTV6itsgp6jQQ5+XEoMPeXNfgWo182ZKvd2J0aCJ8Nh7Df49t+BV1zTUNamrlBVs6u6Crs3y5xWpQ8NZzmPqejSfeeTbSTy7Es/JiS18nNU1rBR2C9tRmTHujFFNT4xFo+Pw/m4LJab2RtNoP+qOkRf76AHzy7D6sfrGLbo1FlwqwaVEUMv8tAimrAuFuKxBpIq2myvJ7vygRoxcDCYdmWw46Oijg4mIc3hARERFRe8Sgo+1j0OGgLmfMwbAo6djmbcekh+WV99qPWXh92BIgNhv/Neo38kqDi/jwP4Kw9jfrcGx7AHrKaxvTJl+nHWrNoENQZy3FigtBSHhdCZdaNTIXB6ORxhd6PlE4mBAIV93CFWQvDsc/Rq7C4oDeaJ2I4QoywwOa9lzMmTw3IiIiIrqX/vWvS/jtb3vJS7aJbYWmbt8YBh1tnyHo4BgdDkWDE3/PA7xG4Nk2U/mvwYmkTTj8yAyEBTyKrg+5mJbOl3FBBTz2TL8mhxxt83WS4B6wFkki5JAuqw/G64KFkO35+KJALvuj4IspSDIsG4pJkNAd/ut3Ibo+5NAiP2EKInPUQLWF8TisFQvjdIguLSaPK8r2KdI1Fp5T/XVERERE1Bak7fn/MDNstu53Y97euFm3bWFRkbyG2hMGHY7k2hc4lAU8NuYZPC6vuuUk1no+hb7NKetOyrdtgTO7EPnOZYxf8jqetdQV5twZ5MIZY4Y0YeAOA5uvk9oC0Y0lPA3wfVJe0QJaVSKSq2djwSh3FL7rj9Fjm1h28D81IiIiIkfy4qgX0Ou3vZC65wObYYcIOf766RHdZW8vL91val/YdcWBXMtaiMHhl7EqJw1/7i2vNFLzowYNh724iP0Lg7Diie04Oe8ZeZ3MWbS4kC/fjusnsXZiCN7zWIe8rf3w4ZR1QPh6zH3u1iCn374XBP+3nsHOwmXwa+KYII29Tmq61u66oqNVYdPLaeizPQJY35SuK6I1hZWBQMszET61FFNz5kNpa5yOS9J2E0oRanVAUX3Xlc9GWRik1NZgpOK6FA92XSEiIiJqI0QLjYSNm3HpX5cwdcpkhEz5f/I1esYhR9zat1o16GDXlbaPXVcczkXs350DjAjCS1Yq/87m3UZ0xVlMjCFd2bXhdS0JOWov4sPwULyDGUhNEGNv9MSzI6XK5LTRCFyWgW+vi43O4PDOM0DAMMutPSxq/HXSXVarNe0yUuONOfvEgKQP6K5uvOuKtZAjG5Fz4nG8GlC0wmCkRERERGT/RHARvnC+xZYddzLkIPvCoMNB1Px9F9aedMafQ5s+oKfeNVwoAh77jY2k4YcMzLTUtcVSkbu71JSdxImfRuO/312CZ0Vg0qEHfOYmI2//Yjya8yb8X1iIdxKTseV76TkHjUBX3a0ad/uvk+4YMWuJcZeRFYehaWEwoRHT1c48jOeXR2CIvK411FRXmIYyougG8zALa0yuIyIiIqK2xFLYwZCDjLHriiOoPYf3pgRgxUln+MVmYmfQo/IVTVB7DGsHhOLb2Dzpdre6lJiouYgTx7+30O3Fgp5Pwcezkeler53E1tmhiFdJ9/jIQmT+dTYGNqVi3JLXSRa1etcVk64eTZ3pxKzrSmUuls/MxvDta+HfobEuKbImdl3hrCtEREREjsO4G4vBnQw52HWl7WPXFQfybdoyqfLfF2PGDkBu1BzEn2xSJKH3w0VIbwU81tNGOOH8KJ59fhh8mlIaCzmEroMxKXiYdMEZ45eENC3kkLToddI90+yuK65+WL1vLfzvwP8hnHWFiIiIyHEYt+wQ2JKDDBh02Lka1Tr8x1sn8XjEemxLWIe4EeewNXIjTujGwGjctX/moQAjMNCzyYNktNz3GfjPt/LgPGoZIvybEIxIWvo6yc60+pgc3TFmVTZW+ZsNRNoYr9nIWTWGrTmIiIiI2igRbCQnJWKnVBhykAGDDjtWU5KG11/dhQuj3sK7rw2QKoePYtKqt+B3bhcit5xsvKtJ7Tn9wJ5jA/DSw/K6O+37HES++iZyMQL/tTIIjzWhQtvi10nthBa2htRQuHSBi0JeaKoOCrg0+0ZEREREdLf9Vm7VQSQw6LBT104mYuqkNSh4bhkyE4wCg0eCsPTNwfj2nWXY0kjXjgsZ63RdQSLmBDR5MNCW0AUWExfiwx9GIO7gdoxvQrjSGq+T7h6tpkrkDSbhU9ocXzznI5cJscjHHoQZluvLZhTK298+NSqvyheJiIiIiKjdYtBhb2o1OJ22ECMmbcS3I0XlPwSPm00D+/ikJXjtEdG1YxdO18orTdTg2/fmwH/ZMfjFbsfcAfLqO0V+zsMC1iD34RnYmbMdkx6Rr7OmVV4n3U2VBfGYtgUI7JSB9FOiaUV3BCZYGPfCYmlksFEiIiIiIqImYtBhT344hvhXRiBw5RcYuCQNeRYq/zrOgzFvSQCcz21E/EcV8kq9a+fysDV0BPzf+if8VmZg252cuaRWg2+PJGKq7zD9c16YjLx9S+DX2LywrfA66S66WoL02BmYvE2BBVujEL16ERAbgLlbMpF/qgyVlqZtlYv6rAqqL0XJRnpOiWgM0nTaW1PCVn5XilK4w7WbfB0REREREbVbDDrsSe1FXPjNFPx3Vh5SXxuMrjbGt+jqH4qIgNkIe950yljn62eguhGIOOk+toX0xR0dgrSDAteOf46ascuQnncMqXOHoWdTBplshddJd5GzFhUIRFLifPiKUTs7eWFB6geY46HGJztXIHx6AEaP9bdYJv/nZmzaJkoavkIPNGs0DGnjwiT9/YxbnQ/PeYEYwuE0iIiIiIjaPSfdz8iiurrYgbqLRNR+nL9Qjgc7d5KXiIiIiIjImp+vV6PPY27yErVFTlGngTgvJ7boICIiIiIiIiKHwaCDiIiIiIiIiBwGgw4iIiIiIiIichgMOoiIiIiIiIjIYTDoICIiIiIiIiKHwaCDiIiIiIiIiBwGgw6idszJ6T7USf+IiIiIiMg6cc4szp3JPvBIEbVjzoqOqP31prxERERERESWiHNmce5M9oFBB1E71uXBTqi9WSsvERERERGRJeKcWZw7k31g0EHUjrk82Bn3OTnhl19/ldcQEREREZExca4szpnFuTPZBwYdRO1cT9eH8MsvtQw7iIiIiIjMiHNkca4szpnJfjDoIGrnFPd3hPtvXYG6OtRotfj111oOUEpERERE7ZY4FxbnxOLcWJwji3Nlcc5M9sNJ9zOyqK4udqDuIhG1X5qfr6Pq52rpQ/1X6TOdg5QSERERUfsjZlcRA4+KMTnYXcW+OEWdBuK8nBh0EBEREREREZHdMwQd7LpCRERERERERA6DQQcREREREREROQwGHURERERERETkMBh0EBEREREREZHDYNBBRERERERERA6DQQcREREREREROQwGHURERERERETkMBh0EBEREREREZHDYNBBRERERERERA6DQQcREREREREROQwGHURERERERETkMBh0EBEREREREZHDYNBBRERERERERA6DQQcREREREREROQwGHURERERERETkMBh0EBEREREREZHDYNBBRERERERERA6DQQcREREREREROQwGHURERERERETkMBh0EBEREREREZHDcNL9jCyqq4sdqLtIRO2X5ufr+Pn6DdRof8HNmzfltURERERE7cd9990HZ8X9eLDzA3B5sLO8luyBU9RpIM7LiUEHEUH7y6+ouHJV+mRwwv0dOkpr6qR/RERERETtj76S7IRfan+VTovr0KN7NyjuF+fI1NYZgg52XSFq50TIUX6pEh073o+OHTroIg6GHERERETUXolzYXFGLM6NxTmyOFcW58xkPxh0ELVzoiVHpwcekC4x3iAiIiIiMlWnO1fWtX4mu8Ggg6gdE2NyiO4qDDmIiIiIiKyRzpWlc2bduTPZBQYdRO2YGHhUPyYHERERERFZI86Zxbkz2QcGHUTtmJhdha05iIiIiIgaUyefO5M9YNBB1I6JKWQZcxARERER2SbOmcW5M9kHBh1ERERERERE5DAYdBARERERERGRw2DQQUREREREREQOg0EHERERERERETkMBh1ERERERERE5DAYdBARERERERGRw2DQQW1brfzbmKV1qnXo67kQBy7Ly0RERERERNQuMeiwM5cz5kgV+qcslpkZFbptTqyzfL0ohm3MifsdMCkN38rLDZSk4S8r03DimrzcmNoaXPtR0+RSYym8kFz+qOHrXXtSvtLYw/3gg0fwaE95mYiIiIiIiNolBh326LU0nCv52qSkvyZfJ/OLzWt0G3M1z/TD4/JlcxeOZ+HAj13xeFd5RSOuZb+JwcOGNbnEWwovDIxeb/1rMApSdCFJB8BZf41OzTU5RKmRVxAREREREVG7wKDDHr0T0qCVQ/A78nWy3KgRjW5j7MJ3efAb0E9eMncOueln8OdJo1Gfc1hpgWHQtVcPYMRbOGYUtFgueYgbId+oOS5n4S9ySDJggPT6RryJXOxCsPxaBwzRX/eXLMstWKiVVauRv3Mppk/ww3M+vnhu7BTMXZ+JYo18vRnNN5nYMCcAI8S2owIQtioNqkr5SiOVRRnYsHAKRovtfPwwbtpS7PryinytLVXIXiZuE4HMS/Iqa86mYKLPLKRflJeFSyrsijQ8rj8mR25G9nda+Uq9wi3iOlvF1mPrn9+IBBVM71WvUpWIsMWZsLBLGrqajUjxeOFN3N6Mzcdq5nG1qLYKxVnxCJPvY8SEWVieqkKlxW5pV6CSHm/yWP0+HD15KTbllFncR0RERERE1jDosEet1aKjvlXEGZwuAh7r6mzaSsKgKAfv/DgHk57Tt5m4fGgJBs/NwIVGwo476uEg7DR+fXlvwQ8zkG68Tio7g3rIN6A75wqylwcjcn8NlGGx2LpxMxLm+kJ7KBbTwzajsFreTKY9tRlh02JxvFsIlknbbo16GYovtmDuXLNtixLxp7BEFHcPxGKx3calmOp+HtsXTkR4llreyDKtKhnbP5UXbNJC9XEy1C8GY8yj8qryTIRPno+dV32xYL30uOtnw1udgeVhUcgsl7eReIwVz8lSWYsZg6QNvHzh7arftoGLh7H3U3fM/IMSCnmVzqUipMfOwJ/mpaCwSX9f0vPfvQO58lKzNPpYzTuulmlRuC0M02OOw3XSUt19LJvgjIIt8zF3W5FpgFGrRmbkRMx9vwK+c+OlbeMxe5Aa6cunI7KR401EREREZIxBR3t2cqPcdSQIK74A3ptj6EoyAlsK5W1Qg4L/3Y6eYeMwsIN+Tc+xb+G/H16DV985o19B7Z7rSztwcF88FgT4QDlUCd+A+Uj6n9lwL9uD5E+NWmDUliBt1R6oR69FUlwI/KVtlaOnY+v2CHhL28bsLZE3lHTqj2V7s5G0Qt5uqD9C4pKw+kUt8hMyrAcB4jHWZ0DR211eYcPVXOzdCwSP94OLbkUVsrfGIr/XbCRtnY/A4dLjDg9CdGIsglGA9dtyYWjM4NJPPCcL5aEy5J5yR8i8QHjIfzPmirP3oNBrCvyflFdAquQvDtC1dth0pj/G+MirG/PNHqz/6H54uMnLTdL0x2rycbXm7B6sSC2H/5okxE31192H/8zNSAr3QmlqDNK+kbeTaI5sQcxRN8xJ3CE/ng+Co3YgbiKk470DuVflDYmIiIiIGsGgwx61VtcV5RJ9y4f9C/GY1zJk61pBpOE1DMNjD8vb/JiD3RmjETbW8HW34Ay/0MV4NP4tvHdOXnVXncRas9dm3nXFuFgbgJVaS3coX/SCi3ml/kkl/KRf+aVG38YXHcbOcnfMDDEEC7LeYzB1NFD6UQGK5VXo5wd/47edThcon5Nq5tWlKLXST6M4dQW2u0dgcUhveY116iPpyHULRaBSbldx6TN88ing92oQ+hu/nk4+CJzhDm1OLlQ2u21UITslEaUvzkLoIJO2GrdoVch8Xw2/SWNwK4q5gsoLTyN49S4cTI7C+L7yaltqS7DrzUS4/2URpnrI65qkqY/VjONqReFfk6GW9u9Uvy7yGj2Pl0LgjzIcKDAEW1eQeygXeDEUQU/Iq3QU8P1jKNyrs3FEVSWvIyIiIiKyjUGHPbLQdUUUQzeNZ5c0vE4Ua4ORXv76n7g08in9QKQ111CDvnjc+RwK/n4MH27ZjsNSfbFo9xq8PjEIgS8N0wcIk9Jwue93WLslB02diOW2GQU7+rBmMJZaeH2GcnLPMsxdmYaT8jK7r9wjtfqRYBVGo8QWn/ocWoyEt0llVugCzyFKoPwrlDUy0ETNTX2HB2cLrSVEt5gV29wRvTgQHo19utWWIPv9Ini/Mro+1NAUqpAPJZ73Mq2YC/0HjpR+5uJsmX7ZorMZ2P6pO+a84m8a5BjRfJ6BdATh5ZHGj+GFGR+sxYLRng2DBYtElxAR6ERh0bg+8rqmau5jmbFwXPFdGqaP8sP0VKMWOSiB6oh0rPy8TEMjwcUTv5MOt7qwVD82iOYr/KMAUA71arjf+nrpgpXcc6X6ZSIiIiKiRjDoaPc0OPH3PEx6ZoB+8fuLOPFcP/T8IQdr30rD6a6jMTdwGJRDRmPa6o1I3fNXnDnzNc4dy0Lm/k2YdGQ93ivS37QBbQ0uyWN+WC+XUdPYSIOWZl2xoaY0D1uPX5aX6J75pgi5UGD8IE95hRaV/1IDT7rD1UIF2/0RsV0lrtn84r4KRV+qdONfeJmPf1FdhO2xGXCPjkBgE7pyaFWZ2Fnuh5dH3WpXUXlFVKY94GppbA13Dyil11ClsfaGrUL2+4lQ+0xHYH2XFHNqHP4wF+6vBMLQiOR2aE8lImafPtBxv52woiUaHFcrtJWoKAf6u1kKGt3hLm5eodF3BbpSCZEf9elpYdsObuijlO7uqsZ0TA8iIiIiIisYdNixyxlz6ls62Co2u27U/BP5WQHwHaz/evZa8UmcHvAoHhswG5mfbMSqhQsR8VoQ/J4fBh+vR9H1IZdb36Q7D0PE/u34s5yRNPDFGgTqxvywVfTjg7S6h3vemiGG7r7qImxamYiK4REIqa/RV6FSDOb5kMJya4eO4kcJ1DbGYlBnrcCaT3vrxr8wGYFDDGS5fB7SH4vAorFNGJtDei65BzKAl6X3djd5lUTzL9EiQXp+lkII6X0v/krUlVaSmG8ysPNTBYInj4G1MUhxNgdpRV4I8W8kJLClPBORb2TAPbxpgU6rsnhcJf1CkHIkFylTjV7X1QqIzi2unSy3bVGI/33OqvVBx1W1rsuSorOlHf+AOCTS666oHx+FiIiIiMgWBh12rGfQdrmlgxhXw2jGETEDidHUrra6btQcy8N7zw3DU7pUoAYnjmVh/OCndNcJNT+azcBiIM/Y4vxoX3S19o3yHZtetgIfvmY51BFlWFSeSXeXtSr5ZnR3XMxGTOgspHebjaTVrdTioLYKhbtnYXKMGmPWxGOByfgXohtHBGIuBGFrUx/P2qwnt00LVWYySo3H+2jAwgwvzSWChjdioZ64BXEBTQl0WtGdOK5ERERERHcAgw5H8MN3+Fa+2DwaHM5Iw+M/ZeCNZRk4/cMxfPbRCPg+Y/gG9iTihw3DgAENw4S+A57B4GGLsf+e9BDpgUnvWApN9OVY7AiT7i5LlfLN6I5T58Ri+rS1KBm0Eh9snY7+neQrZJbG1TDQXhcdE5To00u/XE9ThLTwiQjb44w5SUmIftG0gq/OisJc0Y3j7fnwNns8axrOeiJzthF7VGt140l4uHXXLxvTqvDZXi36T/FrOB6FQYMZXpqpvtVKFBJe92qlgKZpGjuuFnUwHsTDnBYaMT2t0kPf+qWDwsbr0aDmR+mXh7v1ljJEREREREYYdNirHzIw0xA6mM84Ipbz3sQww7LnOpyQb2buqdHb8faHadg5FUiaMgfvPR+AFwwzruiMQFxewzBB34rkHrt2DPFTluDA9/Iy3Tu1VVAlzcDk2PPwWb8PKVH+Fr7x7w43MRFKQamuS4O5issWxse4mInISbNwoNd8fLBvM0IaDBJahPSYAmirCxAz0RfP+dwq46T10oMhZoJY3oz6GZMtznqi5+4mUrFSlF7SL5uoEN0rPOFuoYGU5m+HkQ4vBPpYn+mlwQwvzVWUgZijWmiPxmLicOPXGgD9S43FOLG8xdqgObehScfVCld36Wham52lApViUI7ePaDbnb3cMUT6VXrBwpS1tRVQn7U21gcRERERUUMMOuzVw0HYaQgdxPSwz72Fzw3LZl1XzpUswbPyzUy54PGAERjoDHTtClz7fjDGIBkzY/Nw2VJ3lXulwawrsq7DMCn4Gv7z1XU4cV1eR/dEcWoY5u5xxeLUHZijtNDiQeYxwF/6qUJxg5lLqlByXAX4eKK/IQe4movl02JROm4HdkcHwsNiKwIPjN+4GVstlNVTxHgRnghZLZbH6yrdguVZT/Rc+z8NdxSg+LuGw14Wn/4c6KRE/wbdTqqg+jwbeHIMhljrkmJhhpdm6z2+wWvUl5UIES1TnpyC1WJ5bLPmmrWpqcfVMg88PVr6pSpGg/lSNCX4h3S4fQf017fk6NUfT7sB+WeKGw44ek4/+KnSs/HpgomIiIiIBAYdDkA3PaxXPzwmLzdb7UV8+NYaXHtzDbZtTcPbvTPw+vaT0E8i2QbYmHXlsaCN2PbcHkzdeKztPN/25mo2kreVIXB1bKODY7oM9UNgpxKk7VeZVmjLDiM1RwH/cS/Ud08o3rcF2b3nIc5mN40u8BiqhNJS6SvuyRV9Bonl3nJ3kUZmPXnCD8FSfTp972GojcO+6gJk7lLDY8YYeJsHFdpCHM8B3F/wrg9TzFma4aXZuvVu+Bp1ZQj6PCRd/5CHfrlfwwDntjTjuFrWBcoXA6E4uwcHVKbxReknacju5I/xww3hiSf8gqQdvy8dh8WAtfW0yP8oGereoRjjJa8iIiIiImoEgw57V3sGHyYdw6TnrU19Yury9WvyJYManIifgxVYhrdD+krLzng8ZCPS5w7WzTDRIq0xvWznnhho9EXys/OOIWKwvKDjDL8leTi2ZFjLny/dnu+KkYvecNYUQvWlykIpgtpwjF38EBrug4o9EQhbLlV2pevzszZj7px4FA+PwBw/QyVdjZITauC30iWVpfuUync256G1rNFZT3ojOGoKPApiMT18MzKPSo+Tk4bls6OQ3msKol+2cLuSr3BA+uX7hLWYw/IML21ec47rd2mYPsoP01PFrDW3uAyfjsXDK5C2eBaWp2ZLtylA5pb5CEsogW/4LJP94TExGiG9CxAzcz42ZRVI22YjbfksRO5zQ4h0TG67JQwRERERtTtOup+RRXV1sQN1F6ltE1PKDvtuDs4tEbX9GpxYF4Sp5+Ygb3sAeuo30Y/f8dJFzDu5UNdlRTdzCi5j/+IAfDgyC5l/FoGGpLYCuWtnYObfRyB93xI821m/+paTWOsZAuPeIqbE+B3bMclkTA+Zah36TtklLzTutT0tHzRU/zqBbzNmIPjKm/I+IlvOXyjHg52bOIKnFZVZEfJ4GNb4IHp/PAKNBhmt/DIF6xNSkVtWBUUvL/hNmo2Fk5Vwra/MFmGTzyykyUsWTd2BL+ZZ/5pf/7xg9NhaqBL8MffKUuSs8bc5IKjmm0wkxifiwKkr0HbrDb9xoZjzqr/F7jP6x9Eiet9myy0fLmYg7OU9eD45HTPMBz+1onCLL8LOReFgQmATBuC8gszwAMSgqdubsvZYzTquIugI2wG8usN0ilmh9gpUKRuwfm8uSq8q4DrID1PDFiDEUlcYTQkyt2/A9kNFqKzuAo+RgZgZNhv+/W5zXBMiIiKiVvTz9Wr0eexuz+9PzeEUdRqI83Ji0GFnjIOOa1+sQ/BKDSLefQtjHpE3EHQhA5CuG5tDTMU6ApF5gPPDAfivPesw3rDttWNYu/BzvLBxCXx008uaE0HHdjxuMczQX+f19+0YX5+w3HL5I+l5Zo3GsXeCbgUwFumf37evtzzoOLHuGQS/UyO9zsGY93Yy5irZxqMxrRF02I2r2YgcuxY9NmZj0dC7V3Eu3hmM6QVTsC8pqMHgp0RERERkPxh0tH0MOhyFGEeATbrpNrWnoEO9bxYmvv88UvZOv3vdILQqbHhpPiqishE3upXGziAiIiKie4JBR9vHoIOI2leLDiIiIiKiFmDQ0fYZgg4ORkpEREREREREDoNBBxERERERERE5DAYdREREREREROQwGHQQERERERERkcNg0EFEREREREREDoNBBxERERERERE5DAYdRO3YfffdB/0c00REREREZI04ZxbnzmQfeKSI2jFnxf3ST0YdRERERES2OcnnzmQPGHQQtWMPdn4Av9T+Ki8REREREZEl4pxZnDuTfWDQQdSOuTzYGairky6xVQcRERERkWXSubJ0zqw7dya7wKCDqJ3r0b0bqm/ckC4x7CAiIiIiMuWkO1cW58xkPxh0ELVzivs7wq2XK3799Rf8WlsrfZSLf0RERERE7ZM4FxZnxOLcWJwji3Nlcc5M9kNfn4ksqquLHai7SETtl+bn6/j5+g3UaH/BzZs35bVERERERO2HmF1FDDwqxuRgdxX74hR1GojzcmLQQURERERERER2zxB0sOsKERERERERETkMBh1ERERERERE5DAYdBARERERERGRw2DQQUREREREREQOg0EHERERERERETkMBh1ERERERERE5DAYdBARERERERGRw2DQQUREREREREQOg0EHERERERERETkMBh1ERERERERE5DAYdBARERERERGRw2DQQUREREREREQOg0EHERERERERETkMBh1ERERERERE5DAYdBARERERERGRw2DQQUREREREREQOg0EHERERERERETkMBh1ERERERERE5DAYdBARERERERGRw3DS/YwsqquLHai7SETtl+bn6/j5+g3UaH/BzZs35bVERERERO3HfffdB2fF/Xiw8wNwebCzvJbsgVPUaSDOy4lBBxFB+8uvqLhyVfpkcML9HTpKa+qkf0RERERE7Y++kuyEX2p/lU6L69Cjezco7hfnyNTWGYIOdl0haudEyFF+qRIdO96Pjh066CIOhhxERERE1F6Jc2FxRizOjcU5sjhXFufMZD8YdBC1c6IlR6cHHpAuMd4gIiIiIjJVpztX1rV+JrvBoIOoHRNjcojuKgw5iIiIiIiskc6VpXNm3bkz2QUGHUTtmBh4VD8mBxERERERWSPOmcW5M9kHBh1E7ZiYXYWtOYiIiIiIGlMnnzuTPWDQQdSOiSlkGXMQEREREdkmzpnFuTPZBwYdREREREREROQwGHQQERERERERkcNg0EFEREREREREDoNBBxERERERERE5DAYdREREREREROQwGHQQERERERERkcNg0EFEREREREREDoNBh736MQuRoRtRcFleNnP6nRBMTT6DGnnZbtXKv41ZWqdah76eC3HAyv4gIiIiIiKi9oFBh506/eF27O/9DJ7tKa8wVnsGualdMWHsADjLq3QsBQTCdQ2u/djcchHfltmIUWprLNzGeqmx8twufzQHfT2fMilrT8pXGnu4H3zwCB61tD+IiIiIiIio3XDS/YwsqquLHai7SG2cCASu5eAvL+Vg7CfrMOYhDQ4vW4xv/7Qec5Uuuk2uHVqCYQuzGrbm6ByEbXlvYUxXeVl2Yt1TCH5HXmiWvlialYXXPOVFI+I5DJaeQ1O9tudrLFXKC0YuZ8zBsO/m4NySwbpl8Vw/eVHadnANrl3T6tY5d3WB8+UMzBzxHeaVLMGz0rqaa3J40tkFXU3SHjJ2/kI5HuzcSV4iugNqq1B8KBEbkjJReEkLRS8v+E2ajYWTlXDtIG9jUHsFqpQNWL83F6VXAZfefgh8dTbmjO4NhbwJERER0b3y8/Vq9HnMTV6itsgp6jQQ5+XEoMOenEtG8DotXnDZCdXzB7Hzjz2kdWkInpiHSQe3Y9Ij0jbXj2HtuMVwfjsPEfpsQOfb90IQ+N0cnFw5wrSVx224kPUmXg3/J3y278KqUdJzsER0JdnWD8feCYLtRhYV+PC1Efj29WYGHY+IYONN5OrWWucXm4edQVaeI7Ve0FGtRv6eLUjcn49iqTKLbr2hHBWCBXMC0V+fv5nQfJOJxPhEHDh1BdpO3eE9MgRz5oVA6SpvIKssykByUjoOf1kGjVTVdX3CFy/PW4QZQ7vLW1hThexl/lj+qQ+i98cjsJe82pKzKZgY+neE7N2B4EfldZdU2JWwAamfi8ftAo+RgZgZNhv+/W5Vtwu3+CIsVV6wyNZj65/fmu6b8ddwpfTKtFAf3YNNO/Yi/xtpn4jHHDoGU+fNRuATXeTbWCCCgZ2RSHWLQ0JAY/vEoKmPJW1XkI7tH2RDVViCymrYDiks0kr7abpuP/nNC8XLT7hKx3QX1iep4Dp1B3bP87oVYNSqkRkZghiVJ0LCQ/G8tN/Of5qITQdKMSQ6TXp97vKGRERERPcGg462zxB0sOuKPekbglXPfI4tfw9C2FhRedfg8JaN6LpyjT7kQA1ObHkLuV174p0tGagfruJ6Ht6LB5ZOa2HIUVuB3Ngg+L91DX/OyrAectwNDwdhZ8nXOGcoeW/BDzOQbrxOKgw57oYryF4ejMj9NVCGxWLrxs1ImOsL7aFYTA/bjEKpgmxMe2ozwqbF4ni3ECyTtt0a9TIUX2zB3Llm2xYl4k9hiSjuHojFYruNSzHV/Ty2L5yI8Cy1vJFlWlUytn8qL9ikherjZKhfDMYYQ8hRnonwyfOx86ovFqyXHnf9bHirM7A8LAqZ5fI2Eo+x4jlZKmsxY5C0gZcvvM2Cm3oXD2Pvp+6Y+QcRcgCVh6IwcfleaIfORpy4j/Xz4VuTiZhpYdh0St9yyVzlqQzEhE7E3J1F8pqmafpjVaHokApdR4ZgdZx4XfFYPNoZBVvm40+R2aiUt7Lp7B6sSC2H/5okxE31h3KoEv4zNyMp3AulqTFI+0beTqI5sgUxR90wJ3EHFgT4SNv6IDhqB+ImAvkJO5B7Vd6QiIiIiKgRDDrsijMGzk5G6h/zMHNhBk4f2Yi/XFuCVYGiMl+DExtDMPNcKN7dtx5Lr63Bf2Zc1K0v2LgGBaFLMKmv7k5uy7UzGYgcNwJ/KQlAas5G/NmT/UHoFteXduDgvni5gqqEb8B8JP3PbLiX7UHyp1fkrSS1JUhbtQfq0WuRFBcCf2lb5ejp2Lo9At7StjF7S+QNJZ36Y9nebCStkLcb6o+QuCSsflErVXwzUGhtzBnxGOszoOjdhBYAV3Oxdy8QPN4P+oYnVcjeGov8XrORtHU+AodLjzs8CNGJsQhGAdZvy4VGtx3g0k88JwvloTLknnJHyLxAeFhp9VCcvQeFXlPg/6S8wjUQSfuzkCDdxlfcx/BALNi6A3PcypCWctg0VLiYifAJfhg3ZzNKBoyBr7y6yZr8WN3hvzoeiybqAwoRPATO24ykBZ7QHk3DZ2XyZjYU/jUZardQTPUzbZXi8ZJ0TFGGAwWG430FuYdygRdDEfSEvEpHAd8/hsK9OhtHVFXyOiIiIiIi2xh02B1nPBuxHauwBoFzLmLVqiA8JlZf/x6nf/THzgRpuUNf/PntZcC6JVgbuxAzP/93xIUNvo3WHBqcSNuIteFBGDYlDQjLwrHkUDxrNsbH3XcSa80GKO2r68ayC8Hm66UyM6NCvh3dGd2hfNELLuaV+ieV8JN+5Zcatb4oOoyd5e6YGWIIFmS9x2DqaKD0owIUy6vQzw/+hlYW9bpA+ZwPUF2KUitNCopTV2C7ewQWh/SW11inPpKOXKkiHqiUO1Bc+gyffAr4vRqE/savp5NUyZ/hDm1OLlSGpMOiKmSnJKL0xVkIHWRlVAmtCpnvq+E3aQwMUYzrUD94m3fx6eAJ5Sjpd0EpTNqvVF6BekAQVu/OQkpUIDzk1U3VrMeywOMp0cesFBU294NQAtURrbQzvUz3peDiid9Jd6MuLNUHK5qv8I8CQDlUeh/pNjDS10v3Pso9V6pfJiIiIiJqBIMOe9ShJx7v+wj81izDpEcu4r0pIXjvcl/8eeVsPNtZ3uaRIKxa0hXvJH+NSUtfv7W+WWrw7ZFEHEYI0vMyEBfUt8Xje9yWd0LqQwv9oKmDsdSsi4pxOblnGeauTMNJeZndV+6RWv1wuAqjN03xqc+hxUh4m3xrL3SB5xCp5lv+Fcoa6RNRc1MehNZCawnRLWbFNndELw6ER2OfbrUlyH6/CN6vjK6viGsKVciHEs97NRwXo//AkdLPXJy11ZLhbAa2f+qOOa/4N6ywyzSfZyAdQXh5pI2xN2Tam9KPTmaByaDp+CBuPvxtjd1xGyw+lgXq7wql7cbgSeMc6bs0TB/lh+mpRi1ytJWoKJf2m5ulvz93uItBjCs0+hYyVyohdmufnha27eCGPtJbQ3tVI713iIiIiIgax6DDDtV8sRGR50KxKuhRqbLWEz5/7Ip3ss7I1wo1+DbjTbz6FjB3yUgUvDYFkRlncM1aU/9G9Ht+JAbeTisObQ0uWZhK1rRcRk1jtZfX0upDjPTX5HU21JTmYevx+hFK6F75pgi5UGD8IMO0PFpU/ksNPOlucSBL90fEdpW4ZrOHQhWKvlTpxr/wMh//oroI22Mz4B4dgcAmjBGlVWViZ7kfXh51q4tL5RXRasADrpbG1nD3gFJ6DVUaa2/YKmS/nwi1z3QEGrqkNKDG4Q9z4f5KIAyNSKyqLUFhLqAIGIL+8qo7pimPpb2C0qOJWLGlFH6Lp8PPWpJjcLVC1zrEtZPlDRXif5+zan3QcVWta8mj6GxppzwgXSH9Kq+o7zZERERERGQLgw57olqHwSNGYPC0Xfj2yJsYOeApDB4XgjfSL+KnpAwUiC/QfziGraEjEJjeA6tytiPitbeQmRWCn9YFYdjEN/Fh0V2sKnyxBoHDhmGwzRKEFV/I27emh3vinvewac+qi7BpZSIqhkcgpL5GX4VKMZjnQwrLrR06ih8lUNsYdFKdtQJrPu2tG//CZAQOMWPH8nlIfywCi8Y2ZXaOKuQeyABeDoJfN3mVRPMv0SJBen6W6tsdRMcx6TlUWklivsnAzk8VCJ48BtbGIMXZHKQVeSHE38KczCa0KNy2Atuv+mDxFP2ApXeOrce6gsxwXzznI5WRAZgcW47xyVmIM9/H/UKQciQXKVMbe11ERERERHcegw574hWC9PcO4thJ0bohD3EjgEkxGcjcJ5XtA5AfHoQBL63DhYBdOPb+TAyUuww4e4ZgW34edvpfxNqJwzAgNAMX9FfdWSPewjG5JYb1on8dzSOmpG04FoehDIvKM+nuslYl34zujovZiAmdhfRus5G0OhDuFlpvNFttFQp3z8LkGDXGrInHApPxL0RFPQIxF4KwtamPZzbrSctpocpMRqnxeB8NWJjhxZJaNbJjpiNsnwvm/E9sk1qn3LZGH6sLlDPl2WTWR2GBXyU2TfbH9E0FqGyshVgHWx3dtNCIGXaUHvpQqIPCxnHQoOZH6ZeHu/UAiYiIiIjICIMOe+L8KB7vehmnz5kOrnmtKAeXPYIwbd4a5KnEWBoDUPP3jZg6egRmbj2Gy6JC0qEHfOYm4+TxLKSvDNAPYGq3emDSO5ZCE305FjvCpLvLUjF2It0V6pxYTJ+2FiWDVuKDrdPRv5N8hczSuBoG2uuiS4gSfXrpl+tpipAWPhFhe5wxJykJ0S+atiZQZ0Vh7j53RL89H95mj2dNg1lPDJxtxB7VWt3AmR5u3fXLxrQqfLZXi/5T/BoOvGnQYIYXC3QhUQjWFD+N1bt3YMaTrRPDWNSkx1LA3UueTWZ4IEIWb8bB7UGo2ROBmENGs+lY4uquGyjVZDDaehWoFINy9O4h/TVLerljiPSr9IKF+6ytgPqstbE+iIiIiIgaYtBhb86lY2r619AP86jnfOUk3sg4g54DBqCnXMnqOWIZMvPSEPbrRozwDcU7J+UuK137YmDvezKkaOu7dgzxU5bgwPfyMt07tVVQJc3A5Njz8Fm/DylR/hZaVnSHmxjA0srMHhWXLYyPcTETkZNm4UCv+fhg32aENBgktAjpMQXQVhcgZqLcxUIu46T10oMhZoJY3oxC/Q10oYT5rCcG7m76GUVKL+mXTVSIcSQ84W6hvq3522GkwwuBPtZnemkww4sZjSpRFxKV/j4e/5scZWHGmdbTksdSDArCVGk35X9+3HTa2wY88PRo6ZeqWNqjZjQl+IcK8B3QX9+So1d/PO0m3eeZYjQYAeWcfqwXpWfjs+gQEREREQkMOuzMhe/OYGC/R01mP3EePAzPpOfhtLxcz/lR+CxMw7HEAHTteAe/Gb7TGsy6Ius6DJOCr+E/X12HE9fldXRPFKeGYe4eVyxO3YE5SgstHmQeA/ylnyoUN5i5pAolx6War48n+hveqldzsXxaLErH7cDu6EB4WGyt4YHxoluFhbJ6ihgvwhMhq8XyeF3rAsHWrCeu/Z+GOwpQ/F3DAUeLT38OdFKif4NQoAqqz7OBJ8dgiLXAwMIMLya+SUHYvD1wDU9DUpjS4mCtraa1HquTre4mQhcoXwyE4uweHFCZ7s/ST9KQ3ckf44cb3iue8AvqDexLx2Exjks9LfI/Soa6dyjGeMmriIiIiIgawaDDrtTgu69PwuepvvKyrGs/KB/6AqdFy4baM3hn8Tp8+PdzuCw3++g6OAiTvOy4FYeNWVceC9qIbc/twdSNx0xaudBddDUbydvKELi68fEkXIb6IbBTCdL2q0y/uS87jNQcBfzHvVA/DkPxvi3I7j0Pca972ahQd4GH6FZhqfQV9+SKPoPEcm+5u0gjs5484Ydgqb6dvvcw1MZjUFQXIHOXGh4zxsDbPBjQFuJ4DuD+gnd9mGLO0gwvt1QhOyURpQGxiAtoykCqLdHyx9KeykCqCvD7/RDrXXBkLsOnY/HwCqQtnoXlqdlQfSntxy3zEZZQAt/wWSYDwXpMjEZI7wLEzJyPTVkF0rbZSFs+C5H73BASNcV6lyAiIiIiIjMMOuxJzTF8lhYE3wbfbPaF3/I58HlIXO4Jn5GP4vR7MzDCexiCFycj99w9mpSxNaaX7dwTA40aCDw77xgiBssLOs7wW5KHY0uGmbRyobvou2LkojecNYVS5VRloRRBbTjGLn4IDfdBxZ4IhC1PQ7Z0fX7WZsydE4/i4RGY42doZaFGyQk18FvpksrSfUrlO5vz0FrW6KwnvREsVao9CmIxPXwzMo9Kj5OThuWzo5DeawqiX7Zwu5KvcED65fuEtZjD8gwv9WqLcfZTqaLfSYNCS69TKoXltv5ImqE5j3UqBWGrNiM9x3BdNtLXz8e4OXtQ+eJKLBhl1CLmuzRMH+WH6ali1hojHdwRGLcPW19xR8n7KzF3YRS2F7kidMs+JJgHLZ28sCBpF6JH1eBwQoS07QYc0Cqx7P0Us8FniYiIiIhsc9L9jCyqq4sdqLtIbVitBqcLL+PxwX2lSv1JrPUMAfbYGGzzx3PIzdiOLUlZ+LZ3CJYuX4hJXra/g6354QxOfHcNzm790PPHDKx4dSOwMg87/9jMgQBV69B3yi55oXGv2XodTVTzo0bXquPbjBkIvvImzi0xSUTIgvMXyvFg5yaO4GlFZVaEPB6GNT6I3h+PQKNBRiu/TMH6hFTkllVB0csLfpNmY+Fk424URdjkMwtp8pJFU3fgi3nW+zPonxeMHlsLVYI/5l5Zipw1/jZbI2i+yURifCIOnLoCbbfe8BsXijmv+lvsPqN/HC2i92223KLlYgbCXt6D55PTMcN88FPhUibCJ8QiX160xDc6CwkBlroE6fdTqdXrzTTnsa4WIW2jtA++UKFUN+WvAq6D/BAYFIKpozzhYtzCQgQdYTuAV3dwilkiIiJyWD9fr0afx+7klHjUUk5Rp4E4LycGHXbrJOIHhwK7/mnWwsECEZB8tA6R+wfgf3aH2J5x5YcMzBzxJnLF5c498OwfFyJuSRAe76y7tskufzQHw7JG49g7Qegpr7NMTBU7At++3vKg48S6ZxD8Tg2cHx6MeW8nY66SbTwa0xpBh924mo3IsWvRY2M2Fg29ey0EincGY3rBFOxLCmow+CkRERER2Q8GHW0fgw4ialdBh3rfLEx8/3mk7J1+98Z70Kqw4aX5qIjKRtzohoOfEhEREZH9YNDR9jHoIKL21aKDiIiIiKgFGHS0fYagg4OREhEREREREZHDYNBBRERERERERA6DQQcREREREREROQwGHURERERERETkMBh0EBEREREREZHDYNBB1I7dd9990E+9RERERERE1ohzZnHuTPaBR4qoHXNW3C/9ZNRBRERERGSbk3zuTPaAQQdRO/Zg5wfwS+2v8hIREREREVkizpnFuTPZBwYdRO2Yy4Odgbo66RJbdRARERERWSadK0vnzLpzZ7ILDDqI2rke3buh+sYN6RLDDiIiIiIiU066c2Vxzkz2g0EHUTunuL8j3Hq54tdff8GvtbXSR7n4R0RERETUPolzYXFGLM6NxTmyOFcW58xkP/T1mciiurrYgbqLRNR+aX6+jp+v30CN9hfcvHlTXktERERE1H6I2VXEwKNiTA52V7EvTlGngTgvJwYdRERERERERGT3DEEHu64QERERERERkcNg0EFEREREREREDoNBBxERERERERE5DAYdREREREREROQwGHQQERERERERkcNg0EFEREREREREDoNBBxERERERERE5DAYdREREREREROQwGHQQERERERERkcNg0EFEREREREREDoNBBxERERERERE5DAYdREREREREROQwGHQQERERERERkcNg0EFEREREREREDoNBBxERERERERE5DAYdREREREREROQwGHQQERERERERkcNg0EFEREREREREDoNBBxERERERERE5DAYdREREREREROQwnHQ/I4vq6mIH6i4SUful+fk6fr5+AzXaX3Dz5k15LRERERFR+3HffffBWXE/Huz8AFwe7CyvJXvgFHUaiPNyYtBBRND+8isqrlxFhw4d0LFjB9TdrMPNujr5WiIiIiIi+/LA/a3feaFr167yJWqrDEEHu64QtXMi5Ci/VAlnZ2c4OTmhtvYmQw4iIiIiIrJbDDqI2jnRkqPLg51RW1srryEiIiIiIrJfDDqI2jExJoforsKQg4iIiIjINnHuTPaBQQdROyYGHhVjchARERERkW3i3JnsA4MOonZMzK4iBh4lIiIiIiLbxLkz2QcGHUTtmJhClgOPEhERERE1Tpw7k31g0EFEREREREREDoNBBxERERERERE5DAYdRERERERE1C4dOHBAvkSOhEEHERERERERtTuGkINhh+Nh0EFERERERETtinm4wbDDsTDoICLHV12CtMVTMHmyVBanobhaXk/kiDQF2DB5M1RaefleaAvPgYiIyAproQbDDsfBoIMaVfOjBteslRp5I6I2rPD9DcCsPfjgA6lM12DF+0XyNdSu1GqhuVpltWhr5e3sVWUuli/MgNpFCV/lHnx2L1KGtvAciIiIbGgszGDY4RgYdDiYayeTsfajc/KSrPYk4l+ag3dOauQVRmprUGPh5L7munwB0m2HDcNgK+UvWRXydkQGJUib5o/pe8vk5WY4m4KwxSkotPBWtUmrwoYJUzB31Wak5xShtLIZlSsrld/mVnoLt/hi9PoCNPepW3QpE+E+Eci8JC83ixb5CbOw6egVedleaaH+fDPSvjQ7ltK+ibTNG2EAAKLaSURBVAyLRe5FedmYVtvwuEnHV1qtV3kYK8b6Y7SVst1C/iWO64hY68e1MisCz/lsRqG8bIm2IF63jeq2g5QibB/li/BD1o+peJ7P7dHgdx32IPsbBbyf9Uf6UZW0F/XawnMgIiJqC8aPH99oIfvHoMPeqNahr+dTZmUdTshXd324J75duQzvGdcxzxzDgZpn4OPtIq+4pebv6zFggPn9PYUBCzJwWd4GGIG4vK9xrsS0pL8mX01kwhPeQ7UoLvgKlfKapir8azIKvwMUneUVTdXBGyH/tQAvPa7F8fciMS3ADyMmzMLypEwUSk/C+5VFwA6560qKC1a94iXfUGKl8jtiuFRp8xFlCjadaqyqdgWl5wBNJxc0/Cu7u9RZUYjcq4Gm5oa8xobaK1ClrsTcyf7ya/XH5IUrkaa6OyGJPiQw7Ge5hGfK7xsFergqcCDStPuD5lQBcn+rhPJReYWR0v2zjI6bXIZL74UdxgnGFCQV5OMLk5KFaB/5ahP649rjEdcWHVf1xUJgeH94dBBLRdhk/PwsFrPgRFMBdTXg4d5dXmFNH3j7dMGBghK4PKWEX6UGhii6LTwHIiIioruFQYc9qa3Btb4LGwQOZ46/joGGb+keDkBEWAXW7j4Gfa+SGhT873b0DBuHgboTXFPODyqAEW/hmPF97pkhX0t0e/oPDYSioACqq/KKptCqcHifFt6vjEZ/C+9Vmzoo4P6kDwKnRiBudxbyPs/C7sVj0LUkEyqR2HXyRMh6uevK+hD076S/mU6vQCQ0qPhK5Wg6ol/sIt3WGYpfGws6NKj5EfD1cJeX7w31p7EIj1FhSHS89NwbeS7aIuwKnYi5W/IB5Wys3rgZW1fPxhDkY9O8iQjPUssbNo2mrABpq+Zj+gQ/uaLsj8mhS7FhnwqVlloR1GqhGBnbYL/nLX8BLvL2Cq+pmOmbge31z0WNwx/mI3i8n8XgwaWTKzB1h8n9HbScYDSRGucLAK9HWnJctVCXlkDh6Q7p2Um8MOdQNnLkkndUep7bp0jrjQOY+fDWbSur0qASPujjJi/b4DHYH67/qoTGLRBxcf7QP/O28ByIiIiI7h4GHfbkchb+MuyZhq0vhgzD6x9V6IIQ0Q1lYEgaspcMg7O4zbkMxB+ZgqVBj9ZfT9SqzLt+XCxBYa0bfJGLT5LSsD0pEZtEBTh0CkYvzrbaykOrykV6tRfGDG1Ztah493zEfH4DHsODsGj9Dsx4Ur6iOapLsGtuCGLyvbEoaQfmKLvIV1imvapG6VmpYv5TMVQ5UsU8KR6RoTMwbrGhdYK5Rr5RnxCLfBQgZoL5dda7SGhPbUb4skypor8FcQGN70NNyVc4q/VAyJYsbF0cBP+hSihHS/ss4QOsflF0f9nTtIEkq8uQvswfoyevwN87+2HqZF9ppRKLdu/CqhAvXPsoAuMCliK7XL95vaJEjPY3hCK3yoixchcSXX+TLvB7Ix0JE+TqesEebHKJQOhQhe76Oz6mxqXzKJWq6X3/zfbxt60c6q+BIW63jomiWxe4yEXRlFDvUilU0vNw7SYv2/JECJIW+5gFQW3hORARERHdPU66n5FFdXWxA3UXyX5dzpiDYVF58pJlr+35GkuV8oIgusJs64dj7wShp7zKdN1JrPXcjsfztmPSw/L1shPrnsKWfnnYGdRDXkP25vyFcjzY2bh5w23QFmDDyAik6xYUcH3CAz1ExalajeIyd/hP88GTjz2N/r1c4NrPEx6uUiW1gSrkLvdH5M2VyFnjf/sVpG9SMHlaMtyj05DQhMq+RRoVts+NwC7tGMS9HQU/K99gi/EIwlLlBR35tT/kAaWXJ/oM6A/Pft7o72bp9Uq77WqV3OrKgsuHETktFy/sjsWY+j9MQSFVTC3cX3kmwqfGQh0Qj60LfeDa3BYxZkSXknExQPT+eAT2kldaUqtGZmQIYi6MweoNUfB/VNp9n67E6GWuSDK0CKjfZgqSds+Gt+Xd0UDD/WvOp8Hz0z3v0lB8Me9W1ySTdWLskwmlCDVvrYAryAwPwPnp+VgwSF4lFCViRFgJlmXFw99Vv01MgXydVebPS4Ras4DtZvdt7NRmPDcHt/aZmcpD0mtY74mkI9L+k5+r7efRFp8DERHR3fXA/a3/nX7lTz+jz2NNaN5I94xT1GkgzsuJQYcD0QUd383BuSWD5TXGKvDhayPw7esWgo4pu+QFI6I7S33QEYJ35NXm/GIZdNizVgk6rKkuwIZxUUBMNhb5NFK7vZqNyLEr0SMht/FtbShM8kNY2dLbD0vKcxHzxlIcVkzH21tnQ2nrTqqroBFJRQcFXEoS8dw8YOvR+VC2MGTQ0VXIc/FCUyqK5dK+m7kSKuVKpKzyh3uLH1+L/PX+CN/nh7jslfCzsQ9K987C5G0uiE6Vnqf8f74uWEgwVIhl8vHF6mzEjW5a6wgRdCR7ZCEhwNKYEKLinow+loIOS7Vv0Z2lPugQrWUsCzELAsQAniPCFfWVf62mqkGrOHVOFKaL12slINA/ZjZe2Le5fh810FjIIF7XET8cTAjUdT2x9DwKd0rHDPHImam/B2cXo5YabeE5EBER3WUMOtonQ9DBriv25ocMzDTrutJ33Un5ytvU6BgdHIyUbkMnHwS/7on0jXtQ3EgXg8qjh5HbKQgvKG8/5NCpaUpfCysuZiJy5lLkPh6B3YmNhBxCJ7npv4sCpedUgNIDbrdbqbukwq7IKRgtum+MCkDY+kyUylfZVFmADW+sRL5XVOuEHNVqqJLmIXKfFh4zg+Frax9oVUjfVgTf8GiTyrO6XNoXg91Nx2Xo5ofxE4Hcvx03nb1EVK7Nuq6EZ7VwINRGx+ho+mCkmkq17rjqx7UAFFLF3dDdw1B6dGrkPfvTFelYKuBs2EyEDmav+bk5e6Qr9iCsfp1pFyV1aQHQxUW6Fz1Lz0N6G4or6pdNAoa28ByIiIiI7iIGHfbm4SDsNAscLLfgILr3PCZGY5FLIjbsszXVrBqf7S+A+yuBaGnO0f/3U+D+aTKSG50lxZRWTGs7LR6VoyOwwLMQ60PNZiE5qrYxRWYVSgtLoBjUR67cX0Fu7AxMF2N0jDJUGvVl0yndBqZEy5fJ8/FJr1Ak7c/GweRoeF8tkvZKI7RFui42Bx6LwgdxgS0IOYzGCxkVjMhPeyB49S4kzfSqr9RadCYfB6r9MX6kcYsLMV6LtKc8DINeGijQf4APkFNoGuAMmm8WOORbacFxb+hCm07O+vGOrHB185AvWXH9mnQsPeBm2CGuY7DKaCBQXVkfJF0RhATDwKCWWlX06nH7XbrawnMgIiK6R06ePNniQvaHQYe9aaxFxzshptfVlxGItD18h2XXLuMSuuI3zZ3uk0jo0FuqNEfBZVuk9SlaLxbgcJEngr002LU4ACN8/DBucRqKq+XrG6GprJIvSdXpQbOxaGI50t6IQqbx4Je1WqjLLIcVGlUiwv4jEYXoAu2lUtS4BWPxpn36yt/eLZg5qBLJi4MxLUFl2hqhXinOHgX8+hoqvAp4+M/HgtfnIy45y6QyOcdoVlsDTf5hpHebjVUL/eHRqwtce/tgwRwxA0YZKn/Sb2PR1fMoKQPGTBjTwpYcHhgvZlyRyurFU+DnXgOtRmsj2NErLVFBq1TC06Tmqx/0UunRsEmnPhCoRKXxTmykRUd+TECD6/VlFtLkbZpFtGxw62o7wDEmWgj1Ng9tzHSUf1tRqS4FjFt9iK5Oxq0gRNE3hdBdbtgK4grKbeWETdAWngMRERHR3cSgw97YaNHRM2i7fll0PTF0RzG+LBWT8TmaQnMNl5GF14c0DE+CrQ3cQe1T7RWo9sUjcpoIK+QK6agATI9TweNFl4bhg6z4yB4UogYHtmzG9yMT8L/7YzHmuy3YcKgp05uW4fAif4TtM2yrgO+8LQjpVYCY5RkolbvMaL/cjMmTtyDXbLrbyoJ4hM1LwXnP6dj6QRZS4iIQPNpLFzjoKn+PesJ/5mYcFFNv7o1A4pcWqv9lxSioVuJ3TxnGnugCD6USyqFKePfublKZtNSUX6uVav7u0nbG1+kqz2p8VWyjG0evMQid2huZy2dhU0FLuntIz1fMuCIV/4nzEb0+Av0L5uFPkZlQ2+hypPlXCfCkoRWLTHMeX50F+luajlX3mjTQGAdYNlp0eM/TL+u6nsjdUYwvfyEdu2YPdHntGtTliZheH5gYSlMGGb1NYh+ad+Ux18sDSpSi3MqURC2eLastPAciIiKiu4hBBwF5b2KYcYhhPDjphe9QMGqd6RgecuEYHVRPDOI5NQBvfKTB039OwAdyC4aDyXGYPdoNFaWlui4a63cVmLaKqC1BwUf6kMI3YgeiAzzh2ssHL4wCCguKzKZmvYLs9fHILjMKG7T6aV29extV4Tp5YcHbUfD9Lh6RqVJlXKIYOgbBnXKx94hxeKJFxTk1XKbE43/FwKM2Ks2KQUGYqtQi/Uv9/RmrLMxHsdsQeN7muFSu3r7wVqUh7agcVmjLkPl+hu7i8XJbYY8C3vNSkDJDgfTwyYjMakow1AQd3BH4ShBwNB5pTZpf1si5QuTCH097ystGdK0K4AKXOzT2bb3UWSYhhvHgpOrvS6CYaTqGh75YHqPjrukAXfeYloQJ2pvyhdvVFp4DERERUSth0GFvxCwpxqGEKK9l4LJ8tXC59Bzg2e/WdLGNsTEY6elTf8XA559q+n1RO1SF3J0rkekehQ+SVyJktCfc5RYMrr294BswG6uTspGzewd2/8XHtI//NwU4UA54h8dhwaBbTevdPaRaZ4XGrKuIGucOZeAr4/p8yVc4AB88aT5MglsgFrzuhdJtu5AtWnF08MKYV9xReKjAaOwLBfpPjUfSAh+4Sq+hMHUpJo8VlWPRdWYzsr8zruQ/IDa3QLrdlwVQjFKiv7ym2R4NQlyCLwqXy900Rk7BJucpCFFK++W3jY1XIb2GaVuwO9wb+TEhCN9b1miXkyZx88AQ6Z7Ul251C2qK4lOfQ+vlbdadRU/9nUq63z5wM7pOzORhHEroypYi+Vo9MQimr4fNtgimrA5GWoWS4yqM97KQwrQCbXMCgkqjwWelMjosEcel/W15LN3u0t+DfNEqNdQlQP/fNmMEjbbwHIiIiIjuEAYd9sg4mMh7C37yar0anC7Mw3jvfvKybdd+0mJg756mg+31DUZqxEj0rD2D3A+Al4b0la8gsqQUX2VpEfyy7bEiXJ7wgofJt/laqD5OhrpTEEIDesvr9BSdpMrSWbVp0FGpRkm1JzzcbyUOpWcKoH3SF54WBlHweCkE/sjFJ3K3jv7KkVAU5UN1SbdoQnNkLcLerUHw21nI2b8Dc7rlY3lYFLIN29aqcf6khUqcthDHc4DxypZVnl195iMlJ1c/lseRfOREPw2NCujTsylTNyvg8XI8PohS4njCdMzdXdKEsEMLdUEKwsNSLM+IU14qVXptU3R1B8rUt1rdyK1zvMf6NOwioVXh8D4t3AN8GgZCxsGE6CJkogzFKnc83b9pA5RqqrVQmh0jF2Uokv4oHZ+r+fgkxx9DvCwmVk2kRWnOZoRP8JODGT+MW54prVfh7182sfuQtgibwiLw936LkCKO9/49iHtlCHpI97Fh2gzE5DRsmaMQ/1NXa6wfV00J/iG9X7wfbWKzorbwHIiIiIjuIAYdjubHPHz00WiMes7Kt2rXzuHEuVvVx66jliHzzRHoKi/rPNQXPgN64ELGRsT3m41JA+T1RDZcu9549dqEthCfZUmV31cC4WvWncGlh0gutNAY3aW2pBD58IZ7fT2qDMc/LoH7C96w+GWziyd+pwSOX5QrbX294YcC/KOwYSuF0uJcYGIogp/sDpdengiMXIU5vQqw5sMiqQJfBdW2GKRV+yB4pGkgo1XlIx3GlecypIf6YpNU4Ws2wwCRnbQofHcTMps53a77eH3YUbxtVhPCDgWcK79CflEyEs3HQqlV67rOaOEF38HWA4Y+T/pAcTQXKnncE60qEzvLvTBmqHnMIb2eHRuQLu2/0IBmBkLf5CL9p0D4WMtaL5Wg0Ci48nh5M7a+bBaauXlJlW9AtXsHSqY2MmWuGV2Yc6miPnDTfLoW096tgu/qNH0otXcHoieIuUlKkBYegNELUxoEabpBWAtK61sSaVWHkeYRgbgwpb7lU6/eUI5USu9hJWa8rkRJbAjCzI6froVTWQUq5GVz6s8ykW3yPjTVFp4DERER0d3EoMOR1F7Eh1FL8HVoKMY8JK8zdy4TU9dmm3R1saRGtQ6vLruGVUuD2G2FGuGBpwMUyE5KRL6F1hLWaP6WKVV+vRDib6HyqxsYsRBqw+ClUuX78N4MKF72wxBDPUqqBKeddcf4oeL2WmhM+7lIq8pR/LVUIe8m12zl4CP3nMkEpzoe3oFQ7NuE7TklUF+tku7LHco/9Ib2yAZMD/DH3H3OCEmINhv8UqrAF2QCPkp411eeNVCflS/ejqslyIyZjrBUIOTt+c2ebtd9fCy2zvTQhR2NjdnhOjYC0cPFzCYhmL48DdlfqqDKycCG8BmIOQr0n7kA4x+VN7ZAoQzEzN65WBOZiOyjGVifkAF389vUXkH+plmYm1oO3+iI5g0eWl2ETW8mwz0sEP2ttBSqFDPmiDCqEeqsKLzxkQ8WvdrIlLlmenTvDVTdasVQeiYb7hNCEDzIXR9KPeqJIQNEsOOP1bs3I6gmGXMnz8CuIqOIwFkhPeat0E5zVTouXVxMn8eVKyiFK558aT6S3g6CRhy/Q7daiOiCClUpyi20vtGoNiM8tgAeM22EOG3hORARERHdRQw67JHx4KEj3kSutOrGtTN4LzwIK8pnIC5ssGlXlCvXcOFHDa79WIETfz8GeNsev+NC1psInJIHn3c24c/m36Req9DfV1kO9h8CunY2eSRql7rAb+ZKBCID4RP8MTkyHtv3ZUMlKs71pcxsvI0qFHyWDbwYjDGWKtNuT+P53iXYtCUF+V9mI02qJMec9MGyV5T1lTPNdcDDayJ8nhRLVchd4Y+wVYnIPCo93tFMbFocpQtSAocavuF3h+e4KVjg1b2+4mrgMjIKH6z2Rul74Zg81h+jpRK2rRIev3GHd1g8Pti/Cwt8zFo3yC1SfEc9bzT9qD70SU+SKv+i640ITYyKxXEcLpXoAwYxte7YGVj/ZX8s2p1kMmZJ0ymk57sDW6e66cfssBV2iEFH47KQsjoIbiW7sHzhfMxdLsZp8MWCjfuQEtZIKNDBEzPeXovxtRlYvjgRpcq1SJipv422vATZqSsRFhCA8I+A4IR9SAho0KFFz3jw0Dl79OsuFWDT7HnIfHwpFvmb7fefKlCp259q3XvLt5+V+xVqq1C4exYmJwALkuY3aDmkvXpFd1+VZz/BZwXu0ueZfIVM14XqpLq+JYRHfz+U7k9D+in9sa08m4n1GzOgGO0HnyeUmLM1DdG+3vDsZ7Tn3PpgCEpRKffx0Q0+m5OITfuK9KHaxQJsWJmIioljdCGBYtB8JEQHwfcpo9ftLoK/EqiNg0RNGfJ3zsfEeRlwnhKPrfK+t6gtPAciIiKiu8hJ9zOyqK4udqDuIrVxYjDSbf1w7B25pUXNRZw4A3T9bg3eOD4ab78ZhMeNT9ZrTmLrn2cj/qSoZjqjpzIIqzcsw5hH9Fc38ONJxIdvxAMLN2HuYAtfzdWexFplCN65Lu5rDra9OxvPmlUOyH6cv1COBzu30jQYtVdQeOgTHD6ajcIzpSi+ZBQndPNH3Psr4WdIBLQlSF++AsWjkxD9omFaVlPa7zKwJnyzbpwM1+FBiJYq4r5WWxhoUfppMnYeyEWBLlRRwHWQH0LnLUKwl+X7b7GL2Vi+Khe/i1lr2lKhugzZ7yYi9ehxFJeZdpMJTsjFIh/TqqC2KBFh0QVwGx6IUYE+8HvC3eI0tM0iup+s2oGa6UsRbFzpvks0n67E5CQtxrwSgmB/LxgNq2JCDEY6rjQUX8zz0q+4WgZV5f1QHFqKTc7zETdTCVfjfXFJ2udha6X3hHhvdYHHyBlYtSIE/a28hbVl2VifoMLvFkfB39J751ImwifEIl/c10uLkLDM33ScmVOb8dwbwNZP5NY1IjjZvwGbUnJRKJ5Dp+7wHjsb0fMCzcafMVaE7aNmoSrm1rHXFGVg/ZZk5J66Aq3uPhZgVbjZYzemPBORy1V4OmwBQoZa72Kk1xaeAxER0d31wP367/RPnjyp+90SgwcP1v2u/Oln9HmM41G1ZU5Rp4E4LycGHUTtWKsGHUREREREbQSDjvbJEHSw6woREREREREROQwGHURERERERETkMBh0EBEREREREZHDYNBBRERERERERA6DQQcREREREREROQwGHURERERERETkMBh0EBEREREREZHDYNBBRERERERERA6DQQcREREREREROQwGHURERERERETkMBh0EBERkWUXsxG+MANqeZGIiIjIHjDoIKI769RmPDd2Mwq18jKRsVr5txHtbb1XirDJxw+bVHyjtQZtUQrCNqmgfdQLvtf3IPusfIWd036XgciFKSisllcYqy7AhsnzsetUlbyC6O7QfLoSz01OQ6m83FTFu4MxYnkuKuXlO6JWJX22+mP551fkFURE9oFBBxG1nLYKmqtS0VipZF6VikJ/0ZhWI9/O0s2q5euaVdQovWijolurtXAb60VroRJuUJkVgeem2TgxFQGPTwQyL8nLd5vhmDSx2Hqtt0+ED77SfjAtm07JV0sKtzW8PjLbygm10fFr+Hzd0cdHOvYdLbzR6m/X8L2hO46jElEoL9sLrbwfjEvzj6EameEBiDzUsL2GwtML/T9KxIGL7nhhQm/s/FgFG39Zd0T950NTirXPHjOKfoF4uV8mViSZvx4tVEnxOD58NkIGdZHX2ac7sd/0rkjvF+lvdEuRvNx2tfnPZzMuPVyljzAXuMjLTdWje29oe/WAdOt6hVsafqaals3N+7zr4Cz9qEKPbt31yy11KRPhTdz3rfM51zy6/ReeeWfDIyK6K5x0PyOL6upiB+ouElH7cf5COR7s3Eleun3ipHJcTIG81Hy+0VlICDA9iRInG2Gp8kKz9MaC9/cgpJ+8aER8azZ6Wba81LiQ7flYMEheMKN7fpfWIme1n+WTU3EiPacU0fvjEdhLXncXiW/6pm9raocDH5vPU7XJF29gM/66QGkpr2qeWq1UpVRA0UG/KPZjsset42++bEKcIE+IRb682HxTkFQwH97yklCY5IewMxE4mBBoUlmwRVeRvFKK0n/V6Ff8VIp/lFboL1eXo/CfpVK1QKiB+mwZNFN34It5Xro1rUMESLOQJi81pJD+ptKkfeguL1shvqkdPh/ahFws8ml4ZIt3BmNDt01IGl6E5QnAnDh/NHKPragEuybOwPZyebExPlGWj6EITOXDVK+6FKpSBbwHuNe/nyvzVmDax0psjRkPD/m9Wc+5C1xa/jF5l7TSfrOoCrnL/RHZq5H3s9jnlWqUqDX6Za0axWfUuKZbqEJpfiEMT6+irASVgy08B917MwLYko0FyuZ/6rTJz2fdY+6RF5rP0v9Huv97S0NNjkfjn6GlCDX7HNSrgrpMCxe37nAx2eX6zxtYeHzNdyqU3OwD5RPNCEF0zyEXLzS671vwOdeE/ysUM3cgL6zh+1i3TxM8kXRktoV9RPbmgfv13+mfPHlS97slBg8erPtd+dPP6POYm+4ytU1OUaeBOC8nBh1E7VirBh1mJ1tNZfOkrBnUObEIX/4VhqzfikXDrdyXONFM8WjCib345jIA56dbCzr01ycP3oV90zzldWYaO5GuViN/zxYk7s9H8SUt0K03lKNCsGBOIPrb+lqvugyZCZE4H7DHaggjNP2YiJPJZPSxetKpRua8YHzin46t45tXzRWBQI10MupidNasW1crreumX6c7/v2k4z9Wf8waP0lvygmyBbrjgYZBh6gQnWtOZU9/7DepPeEu/nS6ekDp5aarMPfwGII+v9FCfeowDnyUjVIXP4wJ9IHvcy/At5/cSkA+AfewEaLdttoqqHbOwxs71VIFYBfiGgs6yjMxd2I2Xtq3GYFG52yaohREJnXB4rAqxGT0RtwKvybuGxsqi5C+MxHpR1QovSpVMnp5wnfCfCyeroSrebCg09jfoBEbf9e643tbgakRG2GApqwAmbvScPhEof7vGF3g8eQQDAkMQugEa6/NSGN/z7VXoErZgPV7c3X7zaW3HwJfnY05o3vXhzSmWme/WaPbn7AddIht5uZ4oo/uT9gd3r69pb0i/am4PY3+0t9t5TfH8UnmHhyv9oLfi2MwfJQP/LxuhU46Vt6bTdMKn893wm3sb4tECzWN9F6QPkPrP+df94RGK32uSp9Jjb/nGwa+ekXYPmoW1NHZWP2icasm60FHU94PDbTkc1xoyuecbh+Zt1aSPpvzNiE8NhuVnTwRGLUWi0ebve+EokSMCCvBsqx4+Lf4g4/uNQYd7ZMh6GDXFSKyb1JFIH/TDExO0CD4/RTrIUerUuN8AeD1yO1+v30F2cuDEbm/BsqwWGzduBkJc32hPRSL6WGbLY8fIJ3clR5NkU7+pyAmq0xeeRfUluO8Cuhf/1qLkBY6BaMtNok27pYinTT7+2O0v5/J9SPEurGGriJXUHpOAc/HrByzS9nYtLsI8vfCbUR3BCbkI+eDXUhJlsrGlVgQJlU8pRI8yg2VOZsQ86kzxv93trTNWiyaGngr5Ggidc5SjJuXgdLmNNGuVSM3Lgxzd9ZgfMIHjYccEm1pCVTwhIfZ+ZpLLzc4F8ZjU2kgkloj5BDvhZdnIbHEFePDN+ve78smuaM0aT7+FJkJ9R1siu49Lx9fFLSwWKqYVpchfZn0Xp68An/v7Iepk32llUos2r0Lq0K8cO0jqQIasBTZ1lpWNOXvuVqqYE4NwNy9GvjOjZf2WzxmD1Ijffl0qSJbIm90h4jKqNHfraHoKtCpsxqsD8+61d1M7PO8/fLfR7L0NyD/fYSM9YbibDLWvFsIz/AsaZsdWL0gCP7mIYegLtW9N90NFeGiNEyf7N/gcfXFvCtGSz+f7yKxn0fNR6bx+0S3biVyrfWdqDyMFWP1n6u6lpTieAz3w+joW90tRCtJi+/l/VEQ71TL3PGIVI/r0aOlXbdEMGLpOMlF19KiADETzK9rQpeapn7OdRBhehejokDl0USsiM2G9sUIpEjvz2hLIYfg1gdDpOd3trkDphBRm8Ogg4hal25sCNv9vkW/29boZ6v5JhMxUkVgxXf+2PrhWgT3s/wdZ6urVKNUOkVy/63+hFB8q2V6wiYVXRNl05M547EpXF/agYP74rEgwAfKoUr4BsxH0v/MhnvZHiR/ajpGhebLRIQF+GPyYqmWMcIf/eX1d8UlNYqlClyf+vNJLwS/nYR9h6SKvIUyp/6LPS8ssHSirSvyt4lln+HAySA8P0B3Az1n6YT0pwrd+0NTqELat3KXEDPNGoegOcMQ3C7pBDwzMgRrrgbjg+QoBD5x+5UF9+GBeOHrzdiZ28RBMcVjr5iByE9dMCc5BYt8rId94m9PfVYFVU4GNu2TKkmdDkvvUTmMGjsLGz5VA738seB1L+QnJCPfUujWbC54MiodOUkrETJaqXu/+09di6TVftAejUd6WxzyoTIXG0IjkG4pgxD7e/l0bPj2Bazem42ti4Pg00t89nii/xPu6D86BKuT0xDtlY/lbyQ2GIi5qX/PxXtjkHbJB9E7N8ufEz4IjtqFpDA3FG/ZhWwx9tGd4joGqyz8fSe8LF33cnz9ct5R/d904y3ytCjcFoawj/sjbu8OzBl6a/vSfbMwd59pNzv19yWA0gNuhhYxA4KxZfs+k+dyq5h1MWiFz+e7xtUdHtUNw0ZUu8LVWsLYKxAJ8mfpwWgfQHSNE8stbSnSarwwx+JxksvuCOl/FBEKml/XSFeRZnzOmdCFkgGYHPMVvKP34OCaINutJl098LR0PFTnTP/4decbYfGt9JlIRHcDgw4iajHXgPj6pquV2SswWv62yVoZMdYfkYf0lXnx7V/zuq1UoXBfIjYtn4FxszOAV6QTl40h8G7uKG4tUaVBpXSi9oj8baP3q+YnbFJZHyRdI8a+MFTujZv9dofyRS+4mDdrf1IJP+lXfqnpSb+2shx4bh627pcqVa8q7+7J7CXxzaqHyUm3wuSbMtNiGHtDTzQhNz/+8rd2GhU2/edmuCyeCm+j2/T3CYXi/RkYMdwX4zZVYMGffW/1sded4IvmzldweIVoGdLEskOqSQ+aLx0DS821W4OoxEUg5kIQtq4OgkdLe4N1kiq0r3sie2sGihsLBKtLsGtuCGJUQxC9ewdmPGk97CvdK+3XsQEIW7sZe0+W4vzXavT/YzQSUrKk92wWUqa5ID1mD8TENR4TZiMYGUi2MFBp8/WG3+iG37y6DPKBr7TvSi/c6dkcrH/DfKslgtjGH7sMoYtrDyjOAs4WjmXpvpXS/lYi+u0o+D+qX6et1kjHzWjfd3BHYPRS+JWlIPVz08CqaX/PJSj4SKpo/TGkQdeN/hNDpc+JXHxy9A7utwbfiMtFvESFS/2y6d+7deqsKMzd5y7tswj46l7wFeSumoW0b6T32tAx0L6fY/Jer/w/lfS26YEe8rLV56MrZu/5Fn8+32GiC4vhPTh8PtKwB2FG70l9iwezdc0cODU/JsDotkalRWMcNZ2t/yNcfqOAM6TyG/PrrH92NedzrgHF/XC+zxeL3k9BdIC1Ll/GPODpAxQXnte3JtSUIDNWOt+YFo+SvtL/heZj/hBRm8Wgg4halS70kE8cbZXbH5NDqhgdTZFO84OQJJqfNunEpZVdFa0cPOBuqKF0Mj9hk4rpaG5NU6s/g1KIQe6NuI5diaQVIVDerb7kRirVpfrXd1s7Wd/Nw/TYi7BBC/VnUiX+DzsQJ4/NYaDwmo6kQ/pt8/bHI+QJSw9s6X7zkTTVSpPtxvqPe7i3LDz6Zg9iUn9BSNRseLd8yBsdj9HB8CtPRqat6XI1KmyfPQs7rwch4f21CJQr3dZ4TBDf/Obi4O5diFvoiz5XFFCO9IG77j3bHf1f9INvdSHOi2b0CiUCX3FHoVkFtFVJ96t7xzexstwyppVaUcT7xZQ3XBv7G9OqkL6tCL7h0SYBhLpcqpgPdjcdrLWbH8ZPBHL/dtyk+1XT/p61uCYdB9++feRlI930j5N/7rx+ua27movtCQUYYrLPukPp2wPbM8UUxj4Y45qMw/Ute66gvExUll1u77P9Tn0+txZd6Gp4H+5AiG7MDKP3pq57idk6XcAr374RjXfXsh34Nmwtp5HejZbWS6UpreUuqbArUu7uOCoAYeszmzeNbjM/5xoQoePqlc1o8alAfy8f4GghcnNiMX3CDGz64QW8vT8XKVFB6N9N3oyI2jwGHUTUYs3qRmCp3EbfAo+hz9tufmqNVosKS8/BpFSgxsZT0lf+b80cYlEvDyjli032TRFypZOs8YOsDKDXXFqNhddmXvQnsdbU/CJda16BazEF3MetxNtTPa1WZLTVzX9P3Lb7zJKlZio8nIzSF2chdFArVp66+eKl0VqkZ+VbHqOkPBcxYfOR+2+hWPBH4MAbARih+9bWD+OmLcWmrCJUmgcUCqPnd+Y4DiAQQ4y7DemUQC13iejvPwXejYUtLaApKoAKXvD1th56Numz5a70TZKdyceBan+MH2n8nMX0xdJzaBCYSRWmAVKFKaeweRU7IxbDDDkQRana6hSYLd9vllpjWR+jw1a3j8qjmcjuNhuzzUJNl+f84bc3A7lX3fHCRD+o1YbWQzdQUw0Mcbu9T53W+HwWs4kUll2xvN8aLVdQeko/6G6jLp2X3huWWnQ0Rw205SqkSX/zGum4N6lbqBis00oXjPTF5q3iIpBucb0/wvfqb2NVdQE2TJ6PT3qFIml/Ng4mR8P7ahGa3E7sdj7nWoHr40p4VO9BTIIaL8RlIWfj9HvyRQMRtQyDDiJqoWZ2I7BUVhy+e3PWq+Ix3dJzMCkzsEElb2+JOLFqrPIvnWQ3q/osBh5cmYiK4REIuY3pFC3aG2HhtZkX/UmsNbom5F1u85tVW11XxMj2w82vu1VGjJqOXUU2KmJi+skJM5B2Vl6+Z0qgOqKF73NDLE9jedu6QPl7P6mSLFW4zHfDxUxEzlyKzLIuUo3sPCoUQxC69gMcFE3y96dg9R9doEqYhT9FZqDUyi4sPvU5tMO90d/WgX30BYz30SL9c5XNMOy2lGdiRWwuPKYuwHgb39Baqlw1KIsz5K1taTj44e3MxlJaIu0LpRKeJge7HOqvxZAS5gMtSBUmNw/pZyUqLaZVtnji+Zelg/NRmulAlRL1oTSbf7NCy/dbd4xZZdbdQyq6MTqUEUgxW39rbB5zVSj8sgCKUUr0Nw8eXHzx0pQKVFzU6lq5xI01fKJe0Q2A3MW4K1BztMLnc+mh+QibHGB5vzVaAjB5znwcMBvfRXvdwl+R0XgbzWl1oVOrRcVP0v+cqfMxYuYuaB9TIFf6v9jW52p9EYOXvmt5cBwxja3pcxGtTiytt9QqypQm/zDSu83GqoX+8OjVBa69fbBgzhTpmjJU/qTfxqpW+Jy7HWLWqbDZO+A8JR4HszZjhtF4MkRkXxh0EFELWe5GoBskTUzLaFi3XTq5MV42LndzEDVrz8GkZEE8/bvmYjZiQmfpTgiTVgfC3dY3kc1hGKTOZtGfxNrUq8dtVuKtdV2RiObbR3dhjpsXFn1guk3exiAovILhN8BGRUcMOHhJqjw9IS/LaqorGn7DavUkWMz6Il+8XdpKVEgVUQ9rM8eY69UHouqLX3VLNrl4+UCJTBw/I6+QaL/LQPi0WOT+JhDRu/fhg40rMSfAB/0flZvk9+oN5cQopKRGYYgqHjFZlr47LUPhZ2r4jhzSyN9dd3hLFSJ/dxd9F5NWoqtITI2F+sW1SHjdy2aIZqly1aCIz5ZGNaXrSuM0/yoBnuxjWomWKmFfnTWemchIR/FDY/Xbc+sUUE6JgK8IaGbOx4Z92VB9mY20VbMw/X1gyJPSJjYCyNbYbwoXo64ecukvBi9QKNDDbL311hPS38cF6fl6WIodFPBdIH3+eFl+FS2f/eP2tcZsPeZjfmikzyy4NeOz1FpLBdEVRHofjBvth+lbpPfjy/HIExXyQZ76z1t5gFh90f9fZvH90KBLnz7csh5aNeQ9Kxs5s6zfQKvVAO7dTcej0v1NqPFVsfUxZlrnc675tKc2IyzsE3hEpSFlgU/j00MTUZvGoIOI7ghNdSXQt8/dCzDslFr0AZ62FiWDVuKDrdPRv5XGeLALHaQT85ku2PRhwa0WA7VlOJCUifEzA+Fh6yTzQinyjWdlkKkSZjT8hlUMRtoCms83Y3mqlWlur1Y0vRm2kdLyJgwk6dYH3p20UJXc+mq4orQEmuERjc/s4haIqX8ECo+qGraWungch896Wuky4gl3oz7oHhPXYvVUr9ZprVJbhcLU+ZgYlgrFqzuQFOnXeqHevXSuELnwx9MWepzpulFIe8/ldv6upWOY8MFmzBlUgcPrV2Luwg04UP084rZG4IUHAcVjtxtA3k0aqO95q6u2oeKK9HfcyQUKK1P3NijDfTE5qahhaypXEXA9j+jkbOwTKYZCWjb+OzqXgokTUlAsLzaVpkyFwu+1TR5gVqdGjcIvrXfTcfX2hbcqDWmGgXO1Zch8X9+S6Hi59U/Oln3OVSE3Zgrm7ilpXku06gJsemMP3KPidVPPEpH9Y9BBRHdAFUpOlcDX4rd47Yl0mmXtWzmp0qdKmoHJsefhs34fUqL87aLSpz4wH8+FZzaxq5Gl2S5MZw9wHTsbM1Xx2C6PA6E+uAmb3FZito/tZuui60WDb9YltzUYaSNKCzOQrTpv+aRZbqFhsVm6Re7oI9VNSq8YT5srnfzHpuD/b+9OAGyu9/+Pvw7NWAfZYihDlmtXKo26Q7kmLtqUq1FZilSWG5GtULZLlKWQrqUu+YkWwx/jKk1lUkay5FqKCUN2RsPMxPl/P+d8h1nObJxh5ng+6jvO93vO+Z7v+c58zznf1/l83p/odDs1SH+5N0X1f0tgi8GaZY/sErt6orrbQ8O27D5CC6JThyf+GbzDx36/Slv+0k53VLEXpFLG40gjV8w1NOSj6h4eqD7/WaZ3THjiCyGHxdUNqF79NN1Z3GJ/iXYFVhUvN5Eo31hdxn2k1a6/5QgtHNdZjQNitMNabfNqrrZBuedsjCKmDVHH1peO30cmWQ+8N1pf/hSbzSHC3X/vx8yoNJfN+tvplXKEHG/J5PXZ6xJ17PdY93tiiu4q856voqBO7yky+bXKniJndbaO8WB1auuhxVPBmgob3llNqxT32P3m2I7NOtqycY6HIU/cskAvTvs2Z8Ht2R1aPGCutmTUYqlye42b1FRbXrNHgWn2hKYUekJhjaX6N2XcCu6KXufiNuiLZUm687aMa0B5cmzNYleryufaEHIAvoKgA4D3Hf5SK9fUU9NG10/f1mPRC/Ra99CLJwQtu8/UBkXr26gYxXn4ML1jfne9+FEZDZj/nno2zj/7yVWzI0ctdVJ2GfDQJcj60N7ljXZaN2CwZswfq34LgvTO4OaZf1OduFWrTFPlT1ZpXY67BORQYrRWfZKo+vdmNAxokBq0lJauyKBoaDqlFVTbX7G7Yy/d/vBmfbk0XFvSnccVV5mbrY/q+46lD5b+N0+9XtugWgMWaPWKxRp3V6xm9HpRMy7WNbG75aRrKh+rdSu2qtbf73B3oUnpcKz1NysVyiSASLQe97WxaxWboxPEM1o7Mkyjd7fTLPMNbbZHP/Am79To8C9hnQTFpCgCet4MAxur+q2D09eEsP92Ak2Te3uRN8R9Fa7FCtX9d+Vi147zMVrc5wnNPtVYA2aY4YcjtPrjuRr2sPVXc3Ctprz0mP7WNf1JZ3qlVbNRoHYsWXsFo/e4a3Zku3uYBzl9ffa+vdoZ5a+aQamfQ62OQ9X8m14alLLrxcEIvTZgrZq+NTbd0MJZO6Po76LUtFbqv8YFPVP/7WcYGlmHZo5qS5UJtF5HrDtl8ppRJri35q1e6/4b+mKdVg9tYAZSUdVyFwcPztjlvM7F7NBa1VNQJXs+m2L3RknN66WvJQMg3yLoAOBd5pvbCRMV2y3zIoOXxChi1lqvFhPLbf5FrI9Ue4/r4nfyu+bpReuDaWDnWXahtI806Zn7ZD7GrZ3whNp0HavwXWfctzVORmjO9Bi1e/1yPsheAylP7IxDKU7SvaHGExrw6A7NnRaumt27ZjlEa+zKOVrg/5xef36HpvzbQ9PuHMjspN6IXWkKP4aq0/0ZfctXXE3bP6Gyq0doeDb7iQdVM0VGoy5+Cxr7TbjWVWyn4Gru+ZSC7hqioc+kr6VxbPdmxQaHqeu9gQooFajG3Sfp9ZYHNXe2u7Bv7NLRmhAVqLDQxqm/1dy1Wgu21lO74PTNOcxIHYnWaUvFTFKso3t2KGrpEPWbHJX90Q7+t0RTVgepz+jeXht+N+eyqtFRT32yMYRn1b8Ey/+btYq2m+onRodr9sF6euCutH8fidry3ptafDZYXdt6aRQlI7mI6/Nhan65rUSyY/tKTdlqHZeD2qtxldLuugiVa6pekPWgFc0IGnM1oPZe66TzUXUeG5Fp8FWrVWc1jZmp4dNzdqzujU19Mh57OMVraCau+PU5N+yK0tKD7dJ3b/Kvp55vjVCZ/3RxhR1xvyzRoG5zFPDyRPW5nFGcdi3R7HXFFf3h/FStLNLW6Lj84d3TKJjNWKSgv/tvqIh1XPx7isKLtNd92Si6fVmvc+cTrb+zgHTDtAO4/hB0APAeUyStXxdN+P0JDX0y8yKDF50/qv/NDteW7AzF5w1eGF42oKx1Jnjw9MUP7aap8N4WXdXt3ioqYxdKq98wyPqoFaiek60TglqbNfrpRzVotf3B/RfzjVMVFYrboujvoz1MWxXrjeDHC8PLBtxkfTJPHs7SUuuu9vJfM0a9Xpup8G/Sb/uWgznc8LidCh/bQy99c49eHtpZB0e3tU6clmhLiu4tqVgnem++HaOwAU8o9NER6hTTT93HhmvHZSUvpVWxpvVX+tMOj821TeuF4W9Hq2m/Hmqeom5FWv4Nn9PIThW1bnSYus+KzvJ3F/DXdnqsSLimTFqidautE8BpO9W0ezuP3yQGNAxVO+vvKu05bZnajRUUtUAzPonWXusEMM46fmqaUVqsZf2ebq5Hx25R0wET1TPNydKOr8MVW+8BNfUQQu6xTsZ0b630LRNSCGw9RvOGBiv24/56MZsnrrE7N1j711qr9fqQ9u/FPcVkGJzlteFl/Ru3U7cqazVq0ExFfLNEE6zfYWDaUPf8ca2b0kMvzj+opkP7ZxmeZGjrPPWbsEQRrn0UpfBZI9S501htaTpCkzplHp5c8X5znSymdUZbrW1RvSoKDKipdoPn6tNJ7aXVI9TxxQXakdHqyrezjm3rb2Z+Dz092jpWs3ytt145TbHVi+GJewSatWN76bVZ4VqX6m/HTKlfL6/49dnrrJP7VeE6+nhz3eHpTbFicw14o4uOjX5MLZ+cqGNPjlSf5pkdhRkwXzJMn6nAf87VJ/2l0V0nat3hc/aV2eTx/dH9HuH5byrz949UTlqv9aM7u1pShb3VW9kZXOyyXueq1VeowrV4ZY464SiolrXez9bmfitBAFeNw/Vz0Fanc2xd10UA1489+w6qWNEr/IrV+kB8bH+0Vs2dozkrdyrwwSEaO9BDvQkznGj3GPVZ+LIeKGl/KEk8pp0rp+ilzxpo1iedM2zenXh4p7bsjZP/TVVV5qR1ovvSTGnAMk1qncNvpX6aqrt7fmTPZM18C5a2cr7Lrnl69OnN6rlsokLNt9/WCfGjL3yr0NeH6vF6ZeR/Zofmj+qvuSe7at5863kVtD7oThuhHe3G6LEq1gfvZf3VZrR1Upkh8+1zBt8um0J2D41VUEbbZsv6MVLK+PFc65lUU7O+eM4e7jBRe1fP0exlaxXl4QS16Wspfy+mRkcPLbDn3NyP9cD5rVq1ZKamzN+hmt3H6vXOjd0V7uN2KmLeVE2Yv0X+97ZXzyc7qV1De31muMHuE3Xw0Wma1d0O0s7GKPzt4ZqwNFaFSp1RwJ399XJb6yTG+lsJSv47u8g6+SkYaGr5XWL9Ljs+PUcB3Ybo5dZNFVjceoandmhd+Fxr27ZYJ7EpHitT1n6x/h6GT7JO5M4WV1CzB9T8rsZq1bK5zJfgaSX+b4EGvfKe1sUVV9NnJmmcdeKa9WOkFrfVOtGetTjF78FfZWrUV+O/hurxh9qpftrf59kovdmmv44OjtC4lu5uD4nWyYqJsRIPrdLoFyYqrtdizXo0q5Ms8/dsn7DMmJflN89bpmXVTeQJzUo3nKYZmritsv8nPFjLMxy9yfwdzlFV+2/c/ZwTFf1OWy1taP29pvh225zMJZgT7GOrNPzJdWqVfIyndHCt3nxtjBZvleo/OkQj+7mLqiYe3Km1XyzQx/+J0JaEmgobPUl9grN4jcrseN4fodcmzLF/v+Z321QPPNVFXe+vmUl9Ey/tt8Rovdmqtza06K+hnR9QUPHT2rt0ol6cHq3mo5bp9RaXus2YETImfFFLA7I4To5Fz9Nrw2Yq+qT1XBo21wN/baz7Wj5g/Z2mvZf7OUyo/Z4irXW6mHoh/5mjz9esU3RM2tYXwXo95e/pCl+fvc71O56nBnMWq4sJcCzm7+zogS2Kjl6nb8NXKTqgqbp27qrmZXdosfVeGv59nALvuk/Bd9XXnbfWUlAVa7uLFldA8q46a530J1jb/UEP9SswQt89X1prx/XXayfDtHCce+SuuK3Wa8yAaa7WR02t182uLaz1pHlNLBRwacScnL1npJTZ+9VORf+0RV9GzNFSU5C0fKj6vPmyHsuswGgaOX6ds8Raz6Wj9VwK1QtVO+t1/Z7Knl4ZCqlio3oKTN4lprvWi531Zkx9hb0Ypgca1Xe9H6SUcn8hfyjs5/5Of9OmTa5/r0SjRo1c/x479Yeq3pwfmuNevxyDt0nj6jkIOoDrmFeCDuuEYd2ERzUnPkxduzzoKpDm0flYrZ00QhNWbNWx5G9MipRWrbseUKfuzyk0s3779snAOnPZuk/91s9paK92rkJlOXFshfVBbnXzTE6Ikrk/aO/pnEGY4NqeCN33ydSLXU9iv5mqKdPCtdb1Idyc6HbSgAGd1TjzB8o1W2Y1V/eEadkoxJn6JDAdEw69dEaTPh+sph5O2DPnXvdfLp6EnNGWT1ZZn4tr6cvXRis2uI96PhqsIE+tJU7GaN3yOVpXvo9ebmlOFhO19xPr7+dMF731tIdQwLr9lh826NtN0Yr6OdY6EYjVjrQnREXa652V/dN9kxi3K0Jz/r1Aq77f6f7bLFVFtRo2Vadnuio0Bx/IXRJjtSUiXB+vjlL0lvoaaj1e00z+tK8mc+IzfNQxdfog+dtUU+QxTKNdhWCtk4eWQzRreDaL4p7fqbmdumhG4hN6Z761Pq93SdmqGff3UOJbmQd6LuZvdF5QNoMO83rVXP0+kQKqhGrAlBEKTfF3v/fjLuo4aad1qbjqd5+kd7pls2WaJW7NCHWclagHngzTY6EpTqCuKi/ut/1R1mvazIvHhX/5enqw+1D1aVsl2/sknfNntDdqlRYvC9eGn6THZsz1GC6YcOzFuIlaPjg4XWumLOW112fTwmfFDtVvaz2XmCXq3nGm4v4SqKA6obon+A41blxTgWmPn/OJit0VrejozdqxJUpbfg/UYyPGqJ29rxKjJiqk3xLrb7i5ur4xQu1Oz1SvhYEaaRfwvMisZ+sqrf0qWt/+uFd7Y+zXOOMvZlQT6/b2rCvo+CI7748pZf7+kbh1proPjVLFe9vp/nbBal4j8KoFBeZ1ff6CcEVt3KIdhz20OynSWEPnX/obcbH+Pnd8MV/zl5nX7xT7KiUzbPsVFrjG1UPQcX0i6ADgpaADwPUo8ad5mvBLcw149ApOfAEAyCUEHden5KCDGh0AACDH/Bt21lBCDgAAkAcRdAAAAAAAAJ9B0AEAAAAAAHwGQQcAAAAAAPAZBB0AAAAAAMBnEHQAAAAAAACfQdABAAAAAAB8hsP1c9BWp3NsXddFANePPfsOqljRIvYcAAAA4BsK+3n/O/1jp/5Q1Zsr2nPIixyDt0nj6jlo0QEAAAAAAHwGQQcAAAAAAPAZBB0AAAAAAMBnEHQAAAAAAACfQdABAAAAAAB8BkEHAAAAAADwGQQdAAAAAADAZxB0AAAAAAAAn0HQAQAAAAAAfAZBBwAAAAAA8BkEHQAAAAAAwGcQdAAAAAAAAJ9B0AEAAAAAAHwGQQcAAAAAAPAZBB0AAAAAAMBnEHQAAAAAAACfQdABAAAAAAB8BkEHAAAAAADwGQQdAAAAAADAZxB0AAAAAAAAn0HQAQAAAAAAfAZBBwAAAAAA8BkEHQAAAAAAwGcQdAAAAAAAAJ9B0AEAAAAAAHwGQQcAAAAAAPAZBB0AAAAAAMBnEHQAAAAAAACfQdABAAAAAAB8BkEHAAAAAADwGQQdAAAAAADAZxB0AAAAAAAAn0HQAQAAAAAAfAZBBwB4UWLURLV8ep62JNoLrkDiyTOKy2jywvoBAAAAX+Rw/Ry01ekcW9d1EcD1Y8++gypWtIg9l3clxp1Rwnl7JisF/RUQ4G/PeFFclN58cqaKv/6eejbMaP2JWjehuebculizHg20l2Vsy7Sm6j7fnkmh6dBlmtQ2VlOCe2iBvSwt921K23MAAABIqbCf97/TP3bqD1W9uaI9h7zIMXibNK6eg6ADuI7lj6Bjp+Y+2kUzDtqzWQkerOWT2qmMPZvK+WhNube/NC1CfRrnPAxJ/Gmqnn5przrNn6h2nt7jTkZo0KPr1OqTEWpeyl7mdccV3q+tvryfoAMAACAjBB3Xp+Sgg64rALzr/HFFz+qhfsuO2wvS+Gmq7g5u6mHqr/DD9m1SKasyQVLYjHX6LiqLacYT9n0ycDhWO1RfVQMvr8WHf8PemtRPmvDKAu21lx1b1v/Sc2g9QmvPRmhQ65TPq6nnfXHW3QUlMW1LlYyWAwAAAMgWgg4AXnPspyUa3fVRvTh7q70kvWOxJiJorj6Tp+qdVFNXNc61VhA267GjVVOB5e35rQvUuWNoqlDi0jRVW+ybpRTYeqSWvxOmIHvepdN7noMXa5rVyb5NKscVPjRULVuHKuTeNI97v1k+XKuO2TcFAAAAkCMEHQCu3P5w9Xuoudr0nKqdtR9QU3uxR66WChVV/67GapxqqqfLbGiRbbEHdkqNg1SxoL2g9mOaNuMTrV4R4WF6TvXtm6VSsLgCAuzLl6202k3yHIy4p4lqlxzGAAAAAMgRgg4AV+7YccXWbq/XP1imeYPbpW7tkMbR4zHSXwJ1xVnBZTj2W7RUpazK2vOuwqWlimcw5SB1md8jdauMFJOnYqPJUnV7uThl1IUHAAAAQHYQdAC4cg07a+G43gqtUdxekLHE07HSjf7XIOg4roMxkn+pAF1Ow5G0Q72mqqGRSdcVM2VUNLRM24kebn+pNYfn4WWPKoGhZQEAAIAMEXQAuKoSL1g/osaqjd2CoWXHIZqybKuOZVF80wwxm/6kP80Ul1kCcE4JZ6U7KmY97Gt6WzWjtbumhnu6GjU00j5m8tRFb0bbNwEAAACQDkEHgKsoURXvT1GA9PX+euDmzVo8uoceGRSu2EzCjsUDPJ30p5kGLLFv7clx7YmWihe5nPYc9dTnYouL9xRmL71SWXddCdbQz1O29jDTMg0Ntq8GAAAAkI7D9XPQVqdzbF3XRQDXjz37DqpY0SL2nLds1ZTgHto7dFmGXTbSirVO+DuOjlLT1yM0rmXa7i/HFd6vrfZ0Xqc+De1FGTFD184L0vJJ7VTGXnSJe7s0IxvryZRZzxxV/dzdxcSEFW2sbc+cCSxyWmA09eMAAAAg+wr7ef87/WOn/lDVmyvac8iLHIO3SePqOWjRAeCaC2z9nLpZ7xlrN21Rviw/kWmNDu+1AAEAAACQNYIOANdewbIqY4ZqOXhUce4lV0Gswns1Vb9lx+35q2/LtLTdVszUW+EH7RsAAAAAyDGCDgDX3vlY7dkk+Ver6qHLSW5x1+wIujl73WtyS9Ohy9K0/vCXCtpXZiaL4q0AAADA9YqgA8A1F7tijhafDdRjf61pL8k9e2NTt+CIPXzGvpQ9cdFfap2OKS5l05P5PTy0zEieemiBfTNvOraiv9p8sNWeAwAAAJCMoAPAVbRVcwdM1IJlUYr+PlrR34RrxmtdXIVIAzuNUM+GGY+IcuXDywYo8C/WPxdbQtTUPY/7a+3YXnptVrjWme1JNW1VbJrVxa4eq+69lijA2s4ZM9yjxJRpOzFFi4yMJu8XFI3dG61CpvUHAAAAgFQYdQW4jl39UVdiFTFyrGZ/F629J818cQXd1VQPduqjsLsy6kLiHnUly4FNkgUPzmDUFfd6JtR+T5Hd67kXnY1RxH/m6PM16xQdk7ZlR7BeXzZRoWZFidZ2TxyiUUsT9OCkd/TyXecUMbyLRv3WVGEdHtA99WspqKSn0OG0YncelGvN1jp2bC+kxp1DVcu+qanR0X2++/IlySO0mP3YS0cHz1PfkDIpIg1rnT+E682xH6n+W2uvcAQZAAAA38SoK9en5FFXCDqA61juBB3etlUz7u+hxLeudHhZd7DwYtxELR8crAB7WfYkKnraGO1pPUSP3WpHDucTFRsdrsUr1ir6lz3as+u45xFjipRWrSpl3ZeDwjRpeOjFbTPbMycoZSAUq7WzVsu/dWc1rZyoHR+N0JjPN2hHqhCmuIL+coeahj2nni2r0KYDAADAA4KO6xNBB4B8EnQAAAAAOUPQcX1KDjqo0QEAAAAAAHwGQQcAAAAAAPAZdF0BrmN0XQEAAIAvyqjrSufOne1LGZs3b559KTW6ruR9dF0BAAAAAFxXMgoxkmV1PfIHgg4AAAAAwHUjozCDkMN3EHQAAAAAAK4raUMNQg7fQtABAAAAALjuJIcbhBy+h6ADAAAAAHBdIuTwTQQdAAAAAADAZxB0AAAAAAAAn0HQAQAAAAAAfAZBB4A8a8u0pmo5basS7fn0dmpBzy6aEnXGns+b9n7cRS1HrtUxez5jZ7Tlk5la/NO1fD47NffRphr9Vd7epwAAAEBGCDoAXLnzZ3TspH05jbg1Y9VxZIRi7XnpuCJG9taUqOP2fOZq3lJa/vbl9MoqoOhOqWhxez5jx5b1191PL9Beez6dn6bq7uD+Cj9sz3tRQJEyiitTVmXs+Ywlau8387RuX8bRjtnXe1dPVffXrH163l7mVdZ2BlnbXCrrfQoAAADkRQQdAK5Y4vYl6vdED839X9oT9DOK+jJaTds2V6C9RPu/1Mc/3aEH7iptL8hcoQKF7Utucb9Ea8fB1I+TGHdGcScvTYkeAoDYvVFSUGA2woYrdDhc/YKb6u4UU5vR1mPP75Fq2d3Bj2nuLmvboyZmHsAYiWcU+78ohc8aoe5t2+rFiBLq+swdKmtd5QpwUq03zdQv3ENLkuMK7+fhtq6prczmLujp6Tp78rhOAAAAIG8g6ABwxfzrddascfW18oXBCj9oLzT+t0SzC/RS18bJbTISte6jmar4YnvVKmgvyqHE7QvU+eMt9pzb4gGhatn60jRjq33FRce191cpsHqgAuwlOeYhwEiepvxk3+aiJzQrap2+s6dPZo3RO7MWK/LismUaGlxRZYpb+66otW/KBmS8XWe3asrTj6rf3HWKOxmnLbX764MJndW0Smn5J+/DTu9dfKxU04wn7Bt4FjbDw32yM01ql/uBEQAAAHCZCDoAeIV/w96a1K+Qln4WrTiz4Hyswt+bqb2rh6jlxVCgufp9ckYRw0JTBQWpWgi4upC4l3efL60b3dZ1ud+yFF1dChSyL7ilPWHv09C+4qJY7YmS6lW62K4k5w7HaoNqKuz1qXpncurpwSr2bYyCqbfNKLQ3XKM3nknTBWeLDmSnWUSReuqzMEILx/VXWGiQvTB3eKqJYpa1+WCnPQcAAADkfQQdALwmsO0YzXq+sat1Quzyia4uEKlCiM8Hq2ma1g6uKWULgYa9Ly6f1UlqOnSZ6/Kkttnr6uLRsVjtlb8Cb3LXnTAn7xdDluSp50fWNVEa/dClZalaapxPVKK1lVUbNlbju1JPQaXs2xhlQjXp8yDNSbFu03UldnqXi/Ome8iezmvVs559nzyizC2NVT8oMF1NlFqlTScZAACA/OPQoUNen5B/EHQA8LrEn6aq3wKp6V/sBd5wNpMCnWmdT1RcypufidMxNVal8u7Z+s9EaPWKNNOE9tY1wRr6+aUAJmXLkLijpvlFoMqkDDUyUr6dJtnrMNPyocEXAxtP685MqlDGhDFRY9XGNe+Nwqmpa3U8Ojb6Ygua5Cllq5qL07R0fYMAAADynIIFC3p1Qv7hcP0ctNXpHFvXdRHA9WPPvoMqVrSIPeclidGa8vgCVZ3RX5rwmKtVR+ZMC4/eqm/PpWRO8ucELXO15jCXzUl3tpm6Fb3sJhOmO0xP6Z1veqtxRu9Rrtvs1dDPJ6qdHYikZIp+thkdlOG2prZVU4J7aIE9l54JVOzHMY87L0jLXa1aTPDQVl/e737Oqbm7/Ly2JsV9Le7tymQnBw+2152S+3H2dE4duJh1jdbQVI+d8ncAAACQX5w8dtjr4UQB/6KqenNFew55kWPwNmlcPQdBB3Ad80rQYVpPpGw+UdBfhYr6y7+gh5NpU9Dzob3qmq2wIPkke7FG1o9R1O+1FJpupBbPJ+xpHVvRX20m1NSsL57L+HEPhuvFR9eqVQZBR+zS3q4WD8n8y9dT8w5d1fPRYAVmsQs9BQgXZTfoiFmifi99pHV16qld6Qc0oF9wJsPuZsXzfssoTDKtUQg6AABAfkLQcX1KDjrougLgymydmWrEk5bDVynOG+8p58/o2Clpw6QwtemzWEdvdNfXMN1iOg+IUKxrLr1jv+xUXNrhZc18o8BLQ9x6Ym1z+jKilwTU7XKpAOmEwQq7XYqa1l+Pdp2qLWftG+WaRK1btFZNn2wmVWinx8rO1JSoxFSFWzOd0nU1iVPCCftiCvV7Xepak3Ii5AAAAEB+QtAB4MqkKB7qaTjTBT1TnHA/NFbr9JG6pzwJD56qVIPF7l+rKSN7qE3LUA1aJlV95j3995OJCqvhLzOSy6p5S1SlVVPPocX5nQof0EOjv0gxQouXBNyaogDpve3Uc/h7Wm4936CYjzT8o0ujkpjWG5eem3syXUvS1bmwpvTD0mZg10eacqqdHrjVzBRSrcefk16fqHXVUux7M2VU7DW5C89FcYr9X00FZqfeSLK04REAAACQRxF0AMhVWY+6kqYbi2m4UfQBjZu/Vu90ksqULCt/VwuRRG2Z3l8Tio/QgOb+ijt5xpr26MBe003GXC/t/eRNzb51iAa0vDotEPwbdlW3FlLs11u0115Wpu3EFM8t8ylbBUnNML3TV6pV51DXaDYuRYLVdVqY7ri4IIfijuqoyqhQkTTFTjObWvZXxBUXPwUAAAByH0EHgLylVHP1GdBe9Sv6p6hBkagts3qo3/fN9c7g5goouFdLupmuMoO1tuEQPVjb3aVl0PQADRsQmqbwZk4k5rDlQnFVrGD9879YxbkXXJRpgNAvXGYMl+zY+8kITajYR2E17AW2MrdWufwaHcePKUZBCiqforvKijEKLRWsoZ+kDmO+i1qm1+/1V9CjXdXcQ+0SAAAAIK8h6ACQD/irVushmjfzOdV3Ff6sqS6uE/IILRweqrJ7l2jQS+vU9K2xCs3myfix6AV6rXvoxfChZfeZ2qBofRsVk77GR4aOa++v1j/BQR670qQdUtY1pe3eY7r+pBsVJYWCjfV694wKj5rRXVIEKB67BqUfhjZu9xbtuLdW6m0u1Vx9+0gTXkpZc8QETP00Qf016fl6V1D8FAAAALh6CDoAeE1i3BlXo4gEe97IukaHmdLU6fDAv3LN9KObnD+jHcvG6unu4ao5YZb6NPR8Ku5fJEDae1xH7XntmqcXB6xVYOdZWr4iQqs//0iTnrlPZa2r1k54Qm26jlX4Luu5ZCHxp/maHyU1vf+eK2hFkrmgR59T85S1NH7dk6I1SD31SRmieOwalHYUmTOK/ipCte6qlW6by7Qeq1l/36J+z81U9MnjWjelh/pF36dpr7dToHeLlgMAAAC5hqADgFccs06on54mtSuyRIt/MsPNlla7SSlPuDObMh5udsNBD+OrJB7X3m/mqd+jbdV9UXH1WThXPRu7R2XxJKCsdUp/8LTJYFyO7disvS26qtu9VVSmVHEFlK+i+g2DFKBA9Zw8VwNqbdbopx/VoNXJRU2PK2LCCE35JELR30dbU4QWT+itNj0/Uuy9g/Vy63w0KsnhL7V0dT21C65iL0jJX7U6jdPQ2uF6sXVb9VtVS0OHP6FaVzgCMQAAQH40bNgw14T8h6ADwJU5uVOLx3ZRx+n+6vPOYA19/WVpbFu9OC1c636K0TFX0VDPU+z/TGhgBwerd14MInTWXH/cNbxs/ZtKS+cTFbd/p9YtW6A3Bz2hls3aqvu8o2r6+ieK/KC3mmbVXaVoCQVqrw7aTSHKVG+gwDVzNPsbe/v2R2vG2KnaUaWdghvXVLuh8zSr0x26o2ZygOGvijclKnreGL3Yt7c1jdGcLQFq9/pcLR+XcWsHTyOt3N3zI/vaFBKT90ms4k5IxYtk0EnkT/tfi8caIBm2mEke4SVRWxbN07oWj+mByq7VuPft4RhtWb3EPdpN26e1NOA5zfp4sd4JS9D8nqFq2bG3XpuyQOHfRGvHfrOdF39TAAAAPomAI39zuH4O2up0jq3rugjg+rFn30EVK3qFX9ef3aoZb+9Qq3+2V1Dyqs4f15YVH+vj1VGK2btXOw57PjH2L19TVe0soUrYJL1uj5YSt3qIWr62VgFVQjXgrREKLb9Tczv10sqbmqp5y3ZqdW9jBeVkaNTD4er3UITu+2Sq2lV0L4r9ZqqmTAvX2hjTRaW4gpp10oABndXYS31QTBAxJ2iZJrVN09pj6wJ1Dg/UpMHNL3Ud+d88Pdp1pkzbFf8anfXOxVokqZmha9t80VzLM6vpkYXEX8K17kI7Na+RqHUTQjXomyBVDQpS42ZNdV/jO1SrcumLo9gkSzwWox0bN+jb7Vu05ce9OtO4t2b1akzNDgAAkGedPHZYBQteXt/b5JDj2Wef1Z133qkjR4645gv4F1XVm+0Pk8iTHIO3SePqOQg6gOuYV4IOAAAAII+53KAjbchhEHTkH8lBB11XAAAAAADXvcxCDuQvBB3AdaxAgQIqYDfsAgAAAK5XnkKO5557LlWtDvPZGfkDvyngOlbI30+OAgQdAAAAuH5lFHKkZT47I38g6ACuY8WKFtaff5635wAAAIDrS2Yhh1k2c+ZM12XDfHZG/kDQAVzHAooV1fnz5y+7IjUAAACQX2UVciQvS2Y+OyN/IOgArnNlS5fSmT/iCTsAAABwXRk1apTr36CgINe/pvCop2XIfxheFoASk/7U0eMnXWHHDTcUlPOCUxecTvtaAAAAIH+53OFlM3Prrbfal5BXJQ8vS9AB4KK4P+L1R/w5JSQm6cKFC/ZSAAAA4PphRlcxhUdNTQ66q+QvBB0AAAAAAMBnJAcd1OgAAAAAAAA+g6ADAAAAAAD4DIIOAAAAAADgMwg6AAAAAACAzyDoAAAAAAAAPoOgAwAAAAAA+AyCDgAAAAAA4DMIOgAAAAAAgM8g6AAAAAAAAD6DoAMAAAAAAPgMgg4AAAAAAOAzCDoAAAAAAIDPIOgAAAAAAAA+g6ADAAAAAAD4DIIOAAAAAADgMwg6AAAAAACAzyDoAAAAAAAAPoOgAwAAAAAA+AyCDgAAAAAA4DMIOgAAAAAAgM8g6AAAAAAAAD6DoAMAAAAAAPgMgg4AAAAAAOAzCDoAAAAAAIDPIOgAAAAAAAA+g6ADAAAAAAD4DIIOAAAAAADgMwg6AAAAAACAzyDoAAAAAAAAPoOgAwAAAAAA+AyCDgAAAAAA4DMIOgAAAAAAgM8g6AAAAAAAAD6DoAMAAAAAAPgMgg4AAAAAAOAzCDoAAAAAAIDPIOgAAAAAAAA+g6ADAAAAAAD4DIIOAAAAAADgMwg6AAAAAACAzyDoAAAAAAAAPoOgAwAAAAAA+AyCDgAAAAAA4DMIOgAAAAAAgM8g6AAAAAAAAD6DoAMAAAAAAPgMgg4AAAAAAOAzCDoAAAAAAIDPIOgAAAAAAAA+g6ADAAAAAAD4DIIOAAAAAADgMwg6AAAAAACAzyDoAAAAAAAAPoOgAwAAAAAA+AyCDgAAAAAA4DMIOgAAAAAAgM8g6AAAAAAAAD6DoAMAAAAAAPgMgg4AAAAAAOAzHK6fg7Y6nWPrui4ib/s9Tjr+h3QmQUr40ymn074iCw7rN13oBoeKF5JKF5NuCrCvAAAAAADABzgGb5PG1XPQoiOfMAHHDzHSzt+dOnrGqXNJ2Q85DHNbcx9zX7MOsy6zTgAAAAAAfAlBRz7wyxF3OGGCCm8x6zLrNOsGAAAAAMBXEHTkcSaIiD1lz+QCs27CDgAAAACAryDoyMNM15LcDDmSmcegGwsAAAAAwBdQjDQPM3U0PHVX+WqnUx9vkH47IZ2/YC/MQsEC0i03So/fITWr6f61p1TYz6E7q9gzAAAAAADkMxQjzeNMCwtPIceMSOmdtQ7tOZb9kMMwtzX3Mfc160jLPBatOgAAAAAA+R1BRx5lhpBNy7Tk+OJ/0h8Jl19Tw9zXrMOsKy1Pj+lRQqSGh4Rp4rdXOxmJ06p+TRQ6YrWO2EtyKmrs5d0/IXKUqoXM1DZ7PlPRk9XkofFae9qeN84nKOG8fdmWkGBfSOnEMj3fJEzvb/V0ZTYdWqJuNXtq0SF7PhMJJ+J0Os2UdjsBAAAAID8h6Mijzng4zzXdVa4k5Ehm1mHWlZanx/QkYUOkdRJ9VIVLB9hLMrdxfB1Vq5n1VHvyJvseGUj4UeuWxalEzdoqZy/KkfPbtTEiTpXr35b1/WOW6fl+S7TPPukvVMxfqllW5d2zruCjyeCMApMEHdkulShhzxpHrPXVTvN8m/TV0lQrSFDUjClam7Bdi/7fdmsut23SxCZN1CjNVPvidt6mbkv227cFAAAAgPyBoCOPSvgzfaBhanJ4i6d1eXrM9BK08Ysl1s/9mvhQ6hP3i1Ojydpo39q4vdd6bVqfyTTnOVfw8EDNW913yEDC+kh9aP27cUSo58et2VWLDrhv69H2SOv6Rmpaq5BOx2xX1LfL9OHkUXr+0bZ6J9q+TbIqd+u+06M0McJTq5U4rVqyQLffc7c7MPl1gdo1ejV1C46QW3WzffGSLlq882f9ak3b54Sp0B0hCk6RuOxb0lfdvvqb5keG69lfn9PzuR4yNNIQe3tSTdvXa/6LtVVI/tYEAAAAAPkLQUce5fSQOeSkJkdWPK3L02Omc2K1PvgwQQ+MjfAQWizRkMbWbe5Oc5JfNEAlbsx4Sji0XUcUoqa3ZdZC5Kg+/2CBCoVN1vp0j7tei/tXs25zq8qXdd/aSNeS5NHJ2qdNGvNoiFr2GaYxCzbpcLHa+sfQKXqqkX2ni8rqoa7ttWpOuHWfNH4N1webu6h7S3t7ixZSuXjruaRswZGpOK1atEQdura92LLkSOQoPfOGNPLfA3V7icrqMGmmqs9qp24f/uqhZYf1HFI+r7RTyKtaq0gNCkl73fhUAZRH5/dr1bAn1OmdBHV4f7mmt69sXwEAAAAA+QNBh48b3Mqh05MLuP69cgnaOGuKVlWyTvLbVk4fWhQ9on3R0s233ZqDriVx2vhtpFQvRLdXsBd5kBA9W+9EVlOvf7RUubSPe6O/Th/8Vbq7tm5N0QQhVUuSTwbodlVT/89Nq4Uftf7zJQp/Z5j6P9tezRtXU4mC9p1SKHR3e/U6vVpRMfYClzitnT1ZJfp20+2X29xh+wJN29FTHe42K0jQ7gV91bLPfj37+Qx1qOS+iYo20pBP5qju4if02LBlF7vQuDVS/xQhT7rp82EKVhON/DztdX2tfZCJ8/u1qF97Pb+ihPp/skQjQ1KkRgAAAACQTxB0+LDpYQ4Nbu0OOO6t4frnymyfq0HvH9GDA5/3fJL/63atVSE9cEdte0E2nP5OK5ZJNz9wm6rbi9I5/6sW/WuuDocN1LMeV/2rtn0lFWqcUUsSf21cPEXbMrx/BgrW1osr56hDqmF3A9R8ZKSmt7vcECBOq2bNVp2+Yar7x3Z92DdE7f6vhIb8Z5RalUjbduNWdX9/pp6Kn6FmTbvqnW+P2sut55ou7Ek5FbJ+C9Z/HpZnKH673nmynQZ9d7fGfb5AL9a73BQHAAAAAK4tgg4f8NfqDt1S2p6xmZCjU5NLrTjGrbAvXK74TRrz0mTtu/8NDQ3dr3c6WCfe31068TZ2b4jQPrVX03r2gmw4HblMS9VIz7bKOIHYvWCYhu8M0b96hniuGfHrj1p5QOpwm+d1JERP1pgFtfVQwQUKaVRHtR96Vasyq+XhkqZ7yBNzpchX1cRcrn2bq2BntyWpn3+2nP5RX37RTK3v8dfuZTP0ecCrivikvXY/GqJGTW5L0c3Emho1UaN7ZkgDl+mrV2/V4SPn7JWkcWi93nmxrRq57hOix0Ys0S/2Vdlyer0mPhGmafFPaPayyWmCHQAAAADIXwg68jkTaCzv7dD0TpfCjrQhR5upTn29+wpGa3F1aeiq99VF8yeZuhLldHszadbTLdVu2BLtjjc32q5Vs7dLbZvkoEvHfn3+wWoppL1aZXBynRA9Xi+8sV3NR4zSgxl0bdn33TJtU5jua+LhgeM3aeLQuUqoZl1Xp6+WfblMIysu0/Pjlym5dujpXyP1/oAwjfk2ZYuKyqoeIj37UZpCnfa0+Fn7ZjlVIkRDxkqvDFymQv+YrMWj2urmgimLgi7QswrRuMjk+RnqYD3vm9sO08iHPdTLiI/U8FZd9XmFnlocuV7rPxml249vSl9XJCMHVmtQh65aFdRTQ/4h/d+zIartClpuU5OH+mrMkk06wnCzAAAAAPIRgo587q813IGGadVhwg6vhxyWhJhN2niqpd42hTKLWgsKllXwi3MU+fkAVV79qkLv66v3Z87RtAOF9FT7EGW3JmfCt3M1ZpN1nxRFOVNL0L69cSr37BxNfzijriL7tfazTSr0VEsFp805LgY07TXk33M0rn1tlbuxmjp0eUJasV6ff7tAwzs0UaNWPTUtprLKF06075i7SrR+Q29XGO8e0eV8ghKyEyRkcLvTXy3Thzf21VtD2qp6hQCVqxaiIf26WNf8qiNZjdITs0TPP9pXi34NsFb0iw4Xulu9pix3F3uNXKK3/1FCUW+EKeTFBdqd+2PdAgAAAIBXEHTkc3+fekG/HXdfNmGHt0MOo1C1thr30Xg9mFwo01aidpimr16g/tUiNWbiMiVUSi6wmQ2m7sbkBa4RRfYdOuJelk4hVW//huYPbOS5y4rFHZZUVq9HmqS5TYI2TuypQd810bh/v6EHkrf9fJx2H4pTOS3R8BdnaN8dA7X4yx+1adF4Pds4/agv7z+RoitJiumx9+0bXJZCav5YN/04J1xRn/V1dYO5tO4wve9pxJTat2niJvvuKSQknJZuLpu6mKqf+bFf0T9n3LUmYecCdTNdeG5sr3Gf/1cRc8arf/sQ1a1i1/OoUE3BYW8ofPkbCv5ulAbl+lC3AAAAAOAdBB35nAk5UoYdybwVcmSpRCN1eKyJdaGQHhwYproeRi/xxFV3Y1M1PdC6ttYO7mmdxF9Gk4HksKR1Hz2Vti7I+TidPl9ZL/578sWRTI58O0f/fDREoSNMt5UmGrc8UrMHttftlTIOZ7zedSVZ2bK6ddN+FWo/I82603ZduTS5hu5No9xtIbr9uzl6/ws71Eiw9smsj1wXo/ZnHE4c/mW7Tt8/TBGfvKEOtTMZ1rdSe3X/h7Txi/XKKI4CAAAAgLyEoMMHpA07rlrIYRxYolfeiFQh66S5f2gmJ8wpuOtubFL1/hM0fdJ4jQv5Ve8MmqyNrlof2WVabPTR8E2NNLJv2/TdZQqWVfPBM9S/cSHp/FGtHdteIS8uU+GnF2jTcjP8qrU8m6GMtyWcPqptK1ZrbaPK7i47JzZpkadaGAm/aun4BdqWWdeWKmGa/n6INvYLcbf8qN9WYwp10bN3S7dXzHhkmJtbv6HFk8JUvai0b9koPRbiLoTaqMNAvZ+myGyha7SfAAAAAOByEHT4CBNy1Bt5QSX6XriKIcdqDXrmVa1ViP41or1uzsYJseky8fwzc12jt/zbjPVasLI6jHxDzX+dq0HTNrm6smTHviV91en9A2o+dryeqmYvzMDuBX3U7f/KaeTnS1x1OlJ188hCtrquVGiv2TsH6nZ71uV4gk7ZF1M5sUz/vKOlukVU1vS3wlzD4W5bNEzDt5xOv12FKqlE/AS99P52e4Fn5UIGKjz6R20ytTU2/axNY28zo/aqegXPlU9S2TpTT/b7TnVHhFv3j9D0e/Zr4tNdUrSwOardO61/KpfLdu0VAAAAALiWCDryKMelUhsXFfTib8vTujw9ZkZcgYUpZHkoROOWz8hwRJSUTm+aqU4dRinq7mEKn5QiGKnUXkNebaTd7w/TtCy7sCRo94K+ajd4vaq/OEfT23sYiSQVMxrMJj0wasJlDZt62V1Xtu6/OKpLKje21fSdP2r9R8NcdUNM65aXptfR2309DZ1bSM37jled6QM0JjqL/VKwkLu2RtEEbZw2XouKhqmVp1Fo0jiy40ftC+mqXvdXtu5fWcF9Z+rttgf0zrRlrq4q+0wIE1lZz7ZLWwMFAAAAAPImgo48qtAN6VOHW260L3iBp3V5esx0zsdp24K+atJ2lNZW6KLZq2dcrIGRIfs+IR0ma3czE3K4u0ykVL3DQD1byXRhmZtxV41D6/VOV1Nj4zsFj1iixX0zLlJ6SYLOnTD1OlN0q3G1wHAP23pNmVFPnolUc1MsNaPf7Y0t9a9/h2jtM131ztYswo4T27VocHtXa5Nn/z0g/Sg0HpSr30TVI+do4oL1riKtp619Vef+lpK1rNtDt6nZsB/VfITdBQgAAAAA8gGCjjyquIfzysfvkIoVykGziwyYdZh1peXpMS8yo5V8MVOdmjZRuxHfqW7fOYr8ZKCaZ9U74tB6TXwyxH2fgQsU6SHkcCnUSL0GtlWhXydr4mdpRguxTuCXju+qRiFdNe14qMYti9T0sGrZbGFQW/eFVdb7I/rq/WWb7JN5T1P2Os0kJN8+7c3PJ1xc15HDcVKlkllsX4J2//iLGk+ZqyGuOiL2/WN+0T77FskKNR6of1v7LfgWD2s8tF1RyxZoeM8Q1W7SXsO/raORn3/kXmd21OyqxYvCdG71G3ospIkaNWmiZv1Wq1ztcrr1/mFaHLk+B/saAAAAAK4991nzoK1O59i6rovIG363zpV3/p6+1saMSOmL/0l/JFxeHQ4Tctz/F8k6L06n5k0O3ZRhPdEEbRzfVWPi22pIzzDdnt3WEAeW6J9v/KL7+/XVgzWzOF0+v13vD4hQ3YF9FZxi/QmbJqvTmANq1bePnrq7cs6LY54/qo2fzdas+eu18dftOpKu6GmAqtfrqXGfdE1RZ2OTxtQMkz5KOdpJnJb2baJ/rpBKVGup/u9OTlEf5Fd9+GhbDd9qLgfogfFLNP3hFN1qDi1Rt5Bf1CttLY9kJ5bp+SYDtcpsy0Ovav6Etu5CpVkw++axPpGqfH97tX4sRA/Uvoz9AwAAAAA+wDF4mzSunl2VgaAjT/ohRjqXlD7Q+GqnUx9vkH47YZ3DX7AXZsHU5DDdVUxLjmY107cKKezn0J2XUcMCAAAAAIC8gKAjH8ioVUduyLw1BwAAAAAAeVty0EGNjjzMBA+BJe2ZXGQeg5ADAAAAAOALCDryuFvLOXI17DDrNo8BAAAAAIAvIOjIB0wQYbqWmDoa3mLWZdZJyAEAAAAA8CUEHfmE6VpiioWacKJscXfoYVdYyRZzW3Mfc1+zDrMuuqsAAAAAAHyN+1SZYqQAAAAAACAfoxgpAAAAAADwOQQdAAAAAADAZxB0AAAAAAAAn0HQAQAAAAAAfAZBBwAAAAAA8BkEHQAAAAAAwGcQdAAAAAAAAJ9B0AEAAAAAAHwGQQcAAAAAAPAZBB0AAAAAAMBnEHQAAAAAAACfQdABAAAAAAB8BkEHAAAAAADwGQQdAAAAAADAZxB0AAAAAAAAn0HQAQAAAAAAfAZBBwAAAAAA8BkEHQAAAAAAwGcQdAAAAAAAAJ9B0AEAAAAAAHwGQQcAAAAAAPAZBB0AAAAAAMBnEHQAAAAAAACfQdABAAAAAAB8BkEHAAAAAADwGQQdAAAAAADAZxB0AAAAAAAAn0HQAQAAAAAAfAZBBwAAAAAA8BkEHQAAAAAAwGcQdAAAAAAAAJ9B0AEAAAAAAHwGQQcAAAAAAPAZBB0AAAAAAMBnEHQAAAAAAACfQdABAAAAAAB8BkEHAAAAAADwGQQdAAAAAADAZxB0AAAAAAAAn0HQAQAAAAAAfAZBBwAAAAAA8BkEHQAAAAAAwGcQdAAAAAAAAJ9B0AEAAAAAAHwGQQcAAAAAAPAZBB0AAAAAAMBnEHQAAAAAAACfQdABAAAAAAB8BkEHAAAAAADwGQQdAAAAAADAZxB0AAAAAAAAn0HQAQAAAAAAfAZBBwAAAAAA8BkEHQAAAAAAwGcQdAAAAAAAAJ9B0AEAAAAAAHwGQQcAAAAAAPAZBB0AAAAAAMBnEHQAAAAAAACf4XD9HLTV6Rxb13URAHzZ6aUrdfqzFUrc/auc5xLspQCy4ihcSP7Vq6nEw61V4sFW9tLs+3qXU1/tkg6ckBLO2wsBZKlQQanSjVKzGtJfa7g/uudE1A8btW79BsUe+l2JiUn2UgBZ8ff3U2CFm9S0yR0KvvN2eynyOsfgbdK4eg6CDgDXhcSdv+j3oaP157ETOn/mDzvlBZATTmsqWLyYbihzo24aPVT+NW91X5GJ305IM75y6vRZp+KTOPKAy1XUz6kSRRzq2cyhW260F2Zif+whzZm/SKfj4nSOYB+4bIULF1KJgAB17dRBlQMr2EuRVyUHHXRdAeDzTMix/9l/KjFmvy4QcgCXzRw75hgyx5LrmLKOrcyYkGPs/3Pq0GkRcgBXyBxD5lgyx5Q5tjJjQo633p2lw0eOEnIAV8gcQ+ZYMseUObaQPxB0APB5piUH3VQA7zLHlDm2MmNactBNBfAuc0yZYyszpiUH3VQA7zLHlDm2kD8QdADwaaYmh+muAsD7zLFljjFPTE0O010FgPeZY8scY56YmhymuwoA7zPHljnGkPcRdADwaabwqKnJAcD7zLFljjFPTOFRuqsAucMcW+YY88QUHqW7CpA7zLFljjHkfQQdAHyaGV2FUy0gd5hjyxxjnpjRVQDknoyOMTO6CoDcwzGWPxB0APBp1OYAcldGxxi1OYDcldExRm0OIHdxjOUPBB0AAAAAAMBnEHQAAAAAAACfQdABAAAAAAB8BkEHAAAAAADwGQQdAAAAAADAZxB0AAAAAAAAn0HQAQAAgHSaVpPefcKh7vfYC7LQroH0xB32DAAA1xBBBwDA64qM/UC3Rr2rsvZ8pl59X7d+875uam7PGzc3UpHa9mWXCirSuLp9OYV2oxQU9Ykqv1zHXgBcPwrfIN1xizuQuJKpdgV7hRn484J9IQO3Wgf6yy2lBxs6dE91h1rUsq8A8rwW6jf8NU3t97A9n4f9tYvGj39dQzvY8wAyRdABALhyXcar6orxKnWze/ZsfKIUf0Z/umfdwcey11TCnk/HX7qw1r5s/DVMFeZF6Nbvk6cPFDh9lCqm+oB3l27qcpcKFiwu/7taqai9FLheVC0rPXGXQ8/ee2VTm/r2Ci2jHnRo9tPuyVxX2M86HGtcWjbxMYea17BOD2u5QxYTcAx8wKHq5RyKjnFqzAqn1uywVwbkeUcUf+EGKaCUQuwlviqky0uaNOp5PW7PE5zA1xF0AACu3NzvleDfSKX+2cpekFIrlWpUQed3f6/TZva5t1Xt+w9UIWULjrjjSrIvXvKbTt8Vql+sKXbVIes2v+nsIvsqVVCp6YNU/CbrNq++p3OlWumm6Y/JOicDrhvbrcOi/2Knun3geZoQ4dSJeOnrXZ6vT57eXG2v0DJsqVOj/59Tn//k1JDPLt3m801OvbPW6Xq8807psdsd6tnMofIBDq3Z7r7tjEgp9pS9IiBf2Kzf46x/igWosnuB95W5R71ffU0jXnhYIV5/kBtVs0EzPf5kF70yeIgmjXldI56saV+X2g2FisjP/wbeJ3HdIOgAAHjBYp1Yd0gFG7eyPnal5vdcKxUp9Zv++Gile0FcopxK1PmULTgy1Uql7qigpHULdNI1X0Elx45X6cbS2ZnDdGTVYsW+sVJ/1u+hyrN70LIDuELlAqRmNRxqfIt7vpF1cnbfXxy6K8g9f/6ClGRNy7c4NfATpxZtlI7Hu68D8pt9J89YP4uozN+aqG37x9Tzhd4aOtQODTqmfUczbtezg1/T1Fc6ynOkkEaRszp0OE4lgm7X472GaGjHJhmGKjXDemv8y0+qbQ17gQd+Jdvo2eeed2/juJfU+8kWCmlQTTf5W1feIJWp1CB72wX4OIIOAIBXnH3veyXccIuKdLEXuNyrMn+vI+eGlTqy3l6UQ37/fFBFAnbrj/c2WXN3qcx7b6tsi+I6N3OgYj885L7R15O0b/BK/VnzMVX4fJRuTFXfA/B9r7e71L0keRoQ6tCNRVN3PUk5dQ2275zGpn3SqXNS7Yru+erl3f/+aC0H8jfTAqKBHnjoMXXu1l1DXx6oDjWLW8uLq2ZoGz3QuI6qmWzjxG/6KforrfrBdac0NurY2RusVd2ouvaSTO3fqI9nvqXRC77VzlM3qMLtbfTKyO56xEOYUbd8ORWxpjLH3fNlbq1jbWtH9e7zksa3rqYiZlmNJmpY5UYVTTihPVvXa9l/5mrEwNc0etMJV2uN/f9bo52uewPXN4IOAIB37Jum/fc+qti59rzLNzo0aKAOjV9sz+dUK5V9oLourF+q03V6qNKKUSpVRzq76D2dPlhahexbGYW0SSemLNU5/0YqPfsT3TziwVTXA77s9DmnYk8qVZeUjLquJC9Pq3RR60SronTuTylyp1Ob9rsLntYNdOjQKem7Pe7rC2by6bFqGalJkHtdQJ7TrqN6P/mY2gbXcYUFunBCv27e5+pWefaXVeo95HUNHD1Vo9/9j+YtWaOoX06475dG5CFreYEbVdmMSFS5pu64r406m+4jLw/U+FGvaeqY3gpLE2Qc27RKU8dO1ccbj+j0qSPaucu+4qIWrro7ijuibcfM/O16PKyj2t5TR1WtTT119Iyri+ehDa9Z2zlGQ9+crqn/Wa5Vm3/VMVVT279YB2fiPm363PM2A9cbgg4AgBf0080XC4daU7tbpIBGKmMuzxuvwCURqjr9Mfu2OdD8LvmVOa5zEYcU0P5+FUr8Xse7f6+CHfrpphGjVDnFY1aeOEg3vXy/9OE/dXz9GTnK+CuLwSIApPCXCtKLzd2tPZ6626GwOx16N8yhKqWlmjfJtbzP/Q5VKyfdYH2CbNcgfSuRV9s41DnY4VoXkOesW6UZM99S70Gvq9/w8Ro9aZZmLPxZh85KRQKsP+xMmdYg7u4tj1cwbSsKq+ZDr2tqnyfVuXUTNfxLoIpcOKFjf9zg6kIiu1VGaicUuXCqhk76TNvsJRf9rZoq+0unD/ysDa4FG7Vsgbu1Rr+Rb2n0D4cvFvhOq0xoCzUsY913d7RW2cuA6x1BBwDAC37T+TgpMdxdPDTtdHqvfbOcWvu6Tn4tFesfpgtvdNSvDw3Tie2TtO/iulcqUWd09u3k+UcVu2C3Tvzzaf3We7GHAqeA7wos5Q4jkqeMuq4kL09r3a/SCx9davkx+QunfjkiVyHS5GXPzXdq1+/uIWfDN6duIZLccsSsw6wLyHOO/apt6Vpp/KzTpoVTQCnd717gWfsn1fvJNnrgzjqqVuyszpok/djP+tjuOtJv2BiNmPSz4gub5Qe1wdUqI7uqKazRzfKz3s/2bd5oL5P2/2Jaa2Tldj3exLrvn9Zjhl+6L3C9I+gAAORpp/tP0h9n7RFdajdSEXsI20zVvktFqdOB60xGXVe+2nlpWcrlWSnmL91UwvqwyKdF+LQT2nfynFTkRt18TwuFdXxS/fr11ojhr9mjmFRz32ztck2d8pqrNcjA0Z9rpxlhyP8Gxbu6jriVCa2jqkWkY/s25qhORplmIWpkauHEbtPH7uYc2Rbc5W+qG2A95uY1+jSTVKRCQGHpbJzsylaZqKnOL3TR/WXsWSCf4q0LAOA1/u0udSVJOZWwR2u4PN/r2Ne7XSO63NTnNVc3mEvrbiV/FVeRf6ZcZk3zRqnMZfSUAXxJSeuEy3QxOW2dw2VHU+t87t0nLrX8ePZeh4oXSt1FZdSDDhXxkxzW7S/QNwz5TppipP1ectXUaFvVNMO4UXc81Ex31KumCtbffdKRX90FSaPsFiDHftXO/e6L0q/69bh1YAVY67OXmIDgkcY3yy9xnzasykGTpjL3KKy5KTR6Qj9FLM9GC45LyjTrokfqFDcphz5e6J0SpGVCm6lhUDWFtMzOtwpA3kXQAQDwGq93XbElxZ7RhaLFdeH5R9OsO23XlUvTvjfsOwPXgVJFHOm6rvT4q0PmS9y0tTSy03XlhQVO7T3qXn4yXnprjXv5sKVOlSgiOa3lR8yonEA+EtL9+UvFSKuVk5/+1KFff9aGzQd11rr+2Ma31G/Y6xo4NuuCpF8cjbN+BqhMM/d8mXYtVOdGax3/+0rLsp1W1FRY1xaqWcw89nK9/7O9OJsqFJfi/ziiqPDF6Wt+pNJEZazHUPwZ/eRekIF7FBZshzWrGWYJ+RtBBwAgD6ugIi0edI28UsD6gOYqxNaunwKn91LJtF82NemiwEVvqwxfQuE6ZAKISf916vu9To1f5Q4l1u506kyCNP2rS91WUk5zouw7e/BkE6m0dRJlurgctyZTYDS4qvs606Xl/AXrnCnRPQ/kF5ErFmuG3f3EXVNjqibNXqwFCw7K9EQpWrKO+4bZseeETquw9Z7j7tpSs8gN+vPETq36TzZbVpRpomdf6ajg8jfo7G/fXlaLjG3L52rEyKlakGVAUkpFi0hJf5zIpMXIjbr/uWaqWexP7V+/OAdhDZA3EXQAALwmW11XFgzUnrue1RF71qWgv+c3pHa9dNPYXipZ+Yzi/z1OJ1RBZf5xv4oEllZS2i+b1v+sC4XqqOTYHvKzFwHXE4dDqlLaoWf/6tAD1vlavUCHjsRJP8TYN8imx2+XGt3s0Ia9TlfR0W2xTh086VTnpg490kiqUFJK+FM6ZMbkBPKT/Tu17WL3k5QO6vQfUpHSN6foipKFjQd1LFEqU9Y9jmzUoqkaOPY/yiQ/vKjyPY9paJ82aljmBp3e+63mTVuVRYuMKxR6i26y3mSPHc64WGndNo+p1a2FdfaXNXo/nCFqkf8RdAAAvOayu64ULa6C9sVUwodpr1lHi6d18MNDKvrqKJWseUbx77+u9LUUv9eh97/XhZoPqsKrd9nLgOvHlgPS+984dco6ODo0dtfX+G6P6WSSPYVvkLoGSy1qO7T9oFO7Dkt+9oH5zlppxRanqxtL5Rsdij3pJOiAD1mvY6YnSrGA7Acd2ui+T8mKCnEvyMKNqtnsYfV+eYheeaiBKhQ6oz1fL9akd7MZctg1cUreeI/7QrbdqMfr3Cy/Cwe1c43nAKNum+7q3OxmFfnjV61c/G2O6oQAeRVBBwAgXyj0zHjd1K6CksIn6WC4vTCt8GE6HH5Ifu0GqfLLhB24vpQuKt1dTSoXICWed7fwaH+bQwNDpftruYOMzLT4i3RnkEP/O+jUv7+VClqfEk0xU+Pcn9Lnm6Ua5a3l1np/8vitOJB/7Y87J/kXVwV3A41sOKE9piBpsRtVNbMRSm65R51feEnjx7yk3m1uV82yN+jY3o36eNp4TQrfnP1Q4ds9OpQoFbm1mUb06aJnOz6mzummNro/zfaXCX1MwYHS6f+t18ceHqxkjZf0jB1yfDptrr4g5YCPIOgAAOSS6ir69/tV3JoKpm2ucXMjFbOvK1mquHQ+MfnLqgxYt29UWn+ueU+H3vjeNXysuW/xZyqkawkS/8YwHV/zs85t+c1eAvgmE1w0CZI63y2NbOvQ2EccalbTod+OO/VmhFNvLHdq/R6nAks51Okuh6Y94dCUfzj0xoMOvdxS6n6Pe3ryLimwpLR8q1xDz779hTvYSOu+mlKDSg7tOuzUV7vshYCPiDxkWjvcqDJ/cc9nh/s+ASrT2D3v0W9nVeTGAOmPI9q5fpWmTnhdI979TJE5Dgu/0rzF67XTesgSgdXU8PYGuiPt1Kiuappham1lmj2pfs1vlt8fv2rNXM/dVoqUNBVUf9bHhBzwMWZ0MGnQVqdzbF3XRQDwJabbBK6Gfrr5+1ZSeMrRTlqp4op+Kmq+6Uo8o3MLXtCBd5NH8O+iSmvDVNge+eH8+vd0oPdiJblnpbDxqvrP0jqTtpZHsnajFPTqXa6Qw3n4ex1vO0wn3dfgGjB1WNIyxS6Ru0zQMTDUPdrK0TPS/3536ov/SbGmqmIatStIt90sVSnjUCnruAso5G6xYbqmmC4oU75I3xXFDDcbdpdD635xasEPUsc7pGplHZob5Uz1GGbdZijarQcyL3AK7zOj6KTVe+Br9iXkyO1PanSHaorfvFijs67u6Vajo0Y8U1NJG+do9KK8NkrJjbrjkY7qUO9PRS2ZpU/TPqXbrW1/rKb1wrFK73+wXjTSypmp41+3LyGvcQzeJo2rZxo1Wgg6APgogg4g9xF0ANcGQQdwbRB05F3JQQddVwAAAAAAgM8g6AAAAAAAAD6DoAMAAAAAAPgMgg4AAAAAAOAzCDoAAAAAAIDPIOgAAAAAAAA+g6ADAAAAAAD4DIIOAD7NUbiQfQlAbsjoGCtU0L4AIFdkdIz5+/vZlwDkBo6x/IGgA4BP869eTU77MgDvMseWOcY8qXSjfQFArsjoGAuscJN9CUBu4BjLHwg6APi0Eg+3VsHixew5AN5kji1zjHnSrIZU1I+YEcgN5tgyx5gnTZvcocK0ZgRyhTm2zDGGvI+gA4BPK/FgK91Qhq+Wgdxgji1zjHny1xoOlSjisOcAeJM5tswx5knwnberRECAPQfAm8yxZY4x5H0EHQB83k2jh1KrA/Ayc0yZYyszPZs5qNUBeJk5psyxlZmunTpQRwDwMnNMmWML+QNBBwCf51/zVlV+/235V6msAsWLUbMDuEzm2DHHkDmWXMeUdWxl5pYbpcF/d6hCCbqxAFfKHEPmWDLHlDm2MlM5sIJeeqG7ypcrSzcW4AqZY8gcS+aYMscW8gd3HDxoq9M5tq7rIgD4stNLV+r0ZyuUuPtXOc8l2EsBZMW04DCFR01Njoy6q2Tm611OfbVLOnBCSjhvLwSQJdOCwxQeNTU5MuqukpmoHzZq3foNij30uxITk+ylALJiWnCYwqOmJgfdVfIPx+Bt0rh6DoIOAAAAAACQ7yUHHXRdAQAAAAAAPoOgAwAAAAAA+AyCDgAAAAAA4DMIOgAAAAAAgM8g6AAAAAAAAD6DoAMAAAAAAPgMgg4AAAAAAOAzCDoAAAAAAIDPIOgAAAAAAAA+w+H6OWir0zm2rusiAAAAAADIe07GS5v2O7X9oLTlgLTrsFOHTkmnzkrxSdKfF6QL1lSggHSDNRX1k0oWkSqUlGqUd6h+Jal2RalRZYdKFbVX6kMcg7dJ4+o5CDoAAAAAAMiDziZJ/90urdh6QV/tlA6edqqYv0MJ1vJzf9o3ktOa3Kf2nl26vvANUiE/6Y9EpyqWcKhZTal1vQL6W22piLU8vyPoAAAAAAAgD1ryo1MfrJO+2u1UQCHpVLy10JFVoJFT1vqcDpUsKsUlSM2qO/R0U6n9bd58jKuLoAMAAAAAgDxiz1Gn3vtamhvldHU7Md1RXLmGyTdym/04ppuL6f7SJdihHn+VqpbNX6FHctBBMVIAAAAAAK6Rnw861XnuBTUec0Ezv3bqjwSnO+QwrkbIYdiPYx7XPL7ZDrM9ZrvM9uU3BB0AAAAAAFxlh+OkFxY4FTLRqU9/lP4877Amc821bkXh3g6zPWa7zPaZ7TTbm18QdAAAAAAAcBVN/8qpOiMuaOEGpxIvFhXNm8z2me0022u2Oz8g6AAAAAAA4Cow3UCaT3RqzAp3gOBqwZHXswNr+8x2mu012222P693ZyHoAAAAAAAgl81Z51TT8U5t/M3U4Mh/dS8Ms91m+83zMM8nryLoAAAAAAAgF5kaF69+7tSFC/aCfM48D/N8zPPKiwg6AAAAAADIBSfinbp/klOf/SSdPmcv9BHm+ZjnZZ6feZ55CUEHAAAAAABetueoFDLB3dXjzLn82VUlK+Z5bfztgut5muebVxB0AAAAAADgRTt+d+pvb51XzDHpgm9mHBddcDpcz9M8X/O88wKCDgAAAAAAvMS0bPj7lAs6fMYhWf9fF6znaZ6ved55oWUHQQcAAAAAAF5galU8+M4FHYlzXDcZRzLzfM3zNs//WtfsIOgAAAAAAMAL2s+Q9p2wTvKvt5QjmfW8951w74driaADAAAAAIArZIZa/d/v7poV1zNTk8Tsh2s59CxBBwAAAAAAV2DOOqeW/uS7o6vklNkPZn+Y/XItEHQAAAAAAHCZfj7o1EsfO3X6nL0ALmZ/mP1i9s/VRtABAAAAAMBlemGBdOGCPYNUzH4x++dqI+gAAAAAAOAyTP/KqV+O2DPwyOwfs5+uJoIOAAAAAABy6HCc9OpSp06dpS5HZsz+MfvJ7K+rhaADAAAAAIAcGhHudI0wgqyZ/WT219VC0AEAAAAAQA6YApuLNjr1Zx6szXFLafeUl5j9ZPbX1SpM6h7gd9BWp3NsXddFAAAAAACQsc5zL+jTH+2Za6RTE4fuvVX6aw33ab2ncOO341LMcXe4sOB76etdTteya+WR26R5XXKvvYVj8DZpXD0HQQcAAAAAANm056hTjcdc0J/n3afTV9PgVg5XwHElLTa+3u3UN7uk+d9f/dDjhoJORQ8poKplc2ffJQcddF0BAAAAACCb3vva/Ly6Icf0MIdOTy6gwa2vLOQw/lrd4VrP1uEFXOu9ut1cHPb+y10EHQAAAAAAZNPcKKf+PH91ak2YFhwm4DCtOHKDWa8JPMzjXI3Aw+w3s/9yG0EHAAAAAADZsORHp25wnUXnbosOEzos7+1ueXE1mMeZ3ulqhB0O1/4z+zE3EXQAAAAAAJANH6yTTp21Z3KJ6VpiWlmYf6+m5MfNrdYjycz+M/sxNxF0AAAAAACQhbNJ0le7nbnamMOEDaYlx7Vk6nbkathhrdrsR7M/cwtBBwAAAAAAWfjvdimgkHUhl3pd5IWQI1muFim19p/Zj2Z/5haCDgAAAAAAsrBi6wWdirdnvCy5JkdeYrqx5FbYYfaj2Z+5haADAAAAAIAsfLXT+uHIneYcphBoXpRr22XtR9f+zCUEHQAAAAAAZOJkvHTwtAk5vH/ib4Z2vdqFR7PLbJfZPu9zuPan2a+5gaADAAAAAIBMbNrvVDF/75/wm64hV2sI2ctlti83urCY/Wn2a24g6AAAAAAAIBPbD0oJuTBKSKe78nbIkSw3ttPsT7NfcwNBBwAAAAAAmdhyQDr3pz3jRbk6jKsX3VvDvuBFZn+a/ZobCDoAAAAAAMjErsPe72JhuoPk1qgm3mZqdeTGtubGfjUIOgAAAAAAyMShU+and0/K80u3lWTe316nvV+9j6ADAAAAAIBMnDprfnr3RD+/tOZI5v3tddj71fvcv6lBW527uxd1XQQAAAAAAJfcNe0WJZ33btCxvHfeHVbWk693O9VmqndbtfgVdOr7Xr/Zc1eu+qx4aVw9x8WgI2FkLlQXAQAAAAAgnyv/yg26cMGe8ZKtwwvkq1Ydvx2X6o307k4oUEA6/C/vVXktNHxX6qDDObau6yIAAAAAALikRF8vpxyW05PzXyWJvL4fHIO3uYIOanQAAAAAAJAJ0/LA20wLifwkN7Y3N/arQdABAAAAAEAmbsiFM+eY47kztGpuyY3tzY39ahB0AAAAAACQiaJ+9gUv+u2YfSGfyI3tzY39ahB0AAAAAACQiZJFzE/vtmig64rT3q/eR9ABAAAAAEAmKpQ0P707FOw3u+0L+cT8773ddcVh71fvI+gAAAAAACATNcp7N+Qwvt7tzDetOsx25sa25sZ+NQg6AAAAAADIRP1KUuEb7Bkvmr8+fxQkzY3tNPvT7NfcQNABAAAAAEAmaleUCuVC4cyxK/N+qw6zfWY7vc3sT7NfcwNBBwAAAAAAmWhU2aE/EnOn9UVeb9WRW9tn9qfZr7mBoAMAAAAAgEyUKipVLGFOyr1/0p+XW3XkVmsOsx/N/jT7NTcQdAAAAAAAkIVmNa0fztxpgfD3qRfyZNhhtitXWPvRtT9zCUEHAAAAAABZaF2vgErmUguE5JYTeSnsaDM197bH7EezP3MLQQcAAAAAAFn4W20pLsG6kDuNOly1ML7elTfqdZiQwwx/myus/Wf2o9mfuYWgAwAAAACALBTxk5pVt87S80YWkWtyNeQwrFWb/Wj2Z24h6AAAAAAAIBuebiqVLGLP5IJbytgXrgETbtQbeSF3Qw6L2X9mP+Ymgg4AAAAAALKh/W0O/emqz+n9MOCW0tJfTYuRa2DsCmeu1uS4xOnaf2Y/5iaCDgAAAAAAsqlLsEM3FLw2gYS3mbogphVH7gwhm57Zb2b/5TaCDgAAAAAAsqnHX81P7wcDne66euGJacFhAo7nF1ztkV6c9v7LXQQdAAAAAABkU9WyDrVr4P1QolOT7K/TBBUmpDD/mpoaZsoosDDLTcsNc3sTbpTo627BcXUDDjez38z+y23uRxi01ekcW9d1EQAAAAAAZOzng06FTHQq8U9rxguNO0x9jq3DM2+HYMKKb35x/5sZsy7jWgQZGXJI/jdIkf0dqlMx94IOx+Bt0rh6Dlp0AAAAAACQA+ZkvcPtDt3gpTPqjLqtpGyJYf7NKuQwTMCRp0IOi9lPZn/lZsiREi06AAAAAADIocNxUp0RF9ytOq7Q4FYOV0sMV0hxQvp617XpWpJbTGuOn0cUUPkAe0EuoUUHAAAAAACXyZy0v/GgQyWLXHkrBVMzw1Vzw/rXtNrwpZDD7B+zn3I75EiJoAMAAAAAgMvwfDOHbi1nz8Ajs3/MfrqaCDoAAAAAALhM74ZZJ9acWXtk9ovZP1cbvw4AAAAAAC6TKbD51uMOlShsL4CL2R9mv1ytAqQpEXQAAIC86Xikxj/VReMjT9kL8qPdmp/vnwMAICtdmzr0YEOHihe++if1eZHZD2Z/mP1yLbgfNTdHXTkfr11rP9B/vjyopAJJSipYW22e6ajmlf3sG2Ti/BFt+vhDLdpqPhxY9y0drC7PtFPdku6rs3Ly5yV6a3tDjWxf3V6SPfEx3+nTz5bq21/9VKrwER1WOdVt00svhVzqfLVrYXd9W/tddWmY2fOwPty8Gas2L4eolL0krZORk/TC5qZ6v9fdKmovS+2U1r75shadDFQpE0tdOKkDv0uV6gWrbfv2auphP57culL/+XSFfj5TSqXOHdHJgCpq3rG3OtSzH8F8cJwt9chku1y3iQjUwI6e993JnZFavmKNNv16Un4lS+nk0ZMqVaW27mnzhNrUS/0LOrl+tsYvj7HnLKdidUCBqpTiZkFt+qlHk2z+YgHgajp/Sru+/a9WRUXr51jrfaFkkk6e8lON20IU2iZEdctl4/0slSQd3rhS8z/5rzbFnLLmirpe09t0bK/mVTy8Exzfrs8+/FDLNsQq3tz2jhA94un1/9RuRXy6RKu/364DcZJf6SpqdF9HdW1XW6UK2rfJwN7PBmjIkiNq8+pcdappL/Rk50KFvbHSnslYo+6TNTDEC6/p5r2or/WG5a31eVtcjNZFrNAX32+2/jbi7YVS0cAqeqT7SLVxvYWaoGOUDuTV5wAA8Kr7Jzm18TenLmQ9CqzPKuBw6vZbCuiLflc/5EgedSWXg44k7Vo4Sp/e1EsD77NDgvjtmj9yicr1HabQQPcij84f0drJ03Sg1SvqVMf+4Pe79YFnZIxCJz2lRpk0C0o6sl0R1gfIIwWSFBHwoBZkcLLuSZL1IW74snLq0b2FgpKrwp63PpSeSlL50pc+gO5a2EXD1zRQjzH91DzD4jNZBR1HFDH2Q22yPqve1c1aT2l7cSom6Pi3lOb6+D2R+s+MlSplfZDqUP3Sh93DkZP0dszf9M+ODVQ+eXHSKR2OL6ryJe0FVxJ0WL+XH2ZP06cFQ6wPzyGqkfIDflysNkXM1nsHQzTi+RCVz+CDtQl33tMzfOADkOcl7V+jaVM3qOo/nlLz+oEqleIlL+n33fpy+UJ9W/hBvfSPBlmGCclOfjNJL8yLUaMW7RVar5z8Eo9o0/IPtXxnObV5daQ61UzxIEes1+Ihs7Xtllbq2qahyilW336yUGt/r53m/We3FnUfpYjKd+uR0Gau969TMf/Vpwujdfi2bprQN+PXZNdj9JutTdbFLIMO63V+W0yKlglxP2n+uytVLuwVhd5sL7P431Q99fvD5crDQcfhqNma8G6kDhQuqUb3hKhutRoK8juibbEnFb8/WqVaj9HDrn2ZW0GH9X48d6HW13pavYJ5PwWAvOJEvFMhE5yKOWbNXI+NO5xSlTJS5ACHbix67YKO3O26smel3jvXXi8lhxxG0drq1LOhVq/ZriR7kSfx3y/Ul/WeuxRyGDeFqNdTJ/Xpt0fsBentWjpKM79PUqOneqtLs8ySFE9itHz6EbVNGXIYBf1ShRzJ2rSroeXzInX4vL0gp2K+0+rKrdXlHj99+WPGz8mTolVD1KNnsNZFbNbF75Dio7Xo0xrqEZYi5DD8Sl4KOa5IkjZ9OFxfVnlOI7u1SP8hNiBQjdoP04gGGzRkZvSl7QKAfChp5xKNmh+vR0a+oodvTx1yGH7WyXxot2F6seoGTZsdnf33glLNNHKyddLbMUSN6tVW3dtD1GnIMHUoG6vlS6N00r6Z9aKudf83W5tKt9fIIR3V/HZz2xbqMay3QrVZcz5O+TpbVFW7TdD7w3uqTbB1O2u9Tdv01sgXGivpxw+1+hf7ZunE64ePP9SRwGy+X1qv82bdF6da1n6xFpe/NcUya/JKyJGHmS8VBrwbKYX207szrN9ll/ZqE9JAdYNbqEP79urSNznkyE2ntHON9TeQ2YcpAMBVZ07ul75YQOUCnOac/7pinq953ub5X4uQI6VcDTr2bvlJ9zRroHQfd6o20D0bN2hbhm/O8dr2o/RAcPoPXkUbNlW5rzbrgD2fVo0Hh6lXmwaq5KH1b9aS9MfRctYvx57Nyl/aacBdG/T2x7szDW0ysvfHKNW9rbrK17tTpZZ9p7328my7pbrujNp1aV+c+0PxlUpm+1vFnDIf+ufHP6NeoYHpf6cplA/prV5Fl+jTnXz6ApBPnduuRf+XpCf7tlOQaUFouq+s+VCjXnlBYU91UdgLQ/TW0t2uoKF8cDf1qP6V5kZlrwZDqXqNVSPte1TBKqrbxPr3p1hdjL2Pb9A366U7H26hoJSv64UbqHm7ckqK+kHbLiYdgbozOH3zwqK1GqqR9Q514JDnbYtf/4Gm7WqhLv9oYC9Blo5Hau6szVKLfhrzVPZb8gAArh9Vy0r/r08BlS9unfpfL2mH9TzN8zXP2zz/ay0Xg44j2rutioIq27OpBCqo4W4dzqgRw/kY7TxUR1U8BQ5FK6qmrA+CuXIOXVLlqu/Wnlh7NhvK3/OUQmM/1KKcntSf361vIxrontp+UkADNbk1Upv22NdlV0K8TlQtd6m2R0A5lf81RnvP2fNelaRt66J1T+vGGdQSSclPjZo20JfrLy8AAoBr7fC3S5X0YHvVcIUcpivlyxq+JFb1Hu6nCZMnaMwLD6pm0iklum+u8iHtVTN8aSYBftYSL1g/Cl+KkeN3/axNqq3bqqd/1Q2q3tj6GZ31+9V5a73mX0/v9kciNe39XxTavb3qFreXedPx7Vo+818a8EKXi+HQqJkrtS2DPMjUl5r2Rl91Nrft3lfjF27W4Yz25/l47Y1aqLeG2bd/qrteGDZV86Nis37fsT5jfPaKdZ+Ra3QgVSucU1o3qbvCXgnX3kxa5+yNDLd+L431XHsPX+RkxdRbmTxEz9rPcfjcSB3w8J7t2hf/sm9nntsbH2rt/kvPzHSfDXtqlJZblzfN6uvev09N0trj7usBANderZsc+u9LBV3dOEzNCl9WwOHurmKer3neeUEuBh2ndOBwqXRNfd38VKxwjI6csWfTOnVEByqU0o32bGrF5F/iiE7G2bNeVU73PVFdqyfP1rrf7UVZKVhOzV9or6S3p2pdDj5gJG2P0qbQYNVwfRNUVI3uvFWfrt/tui67kqwPwbF3VFcle15+tfX3jkc0bUK4dnm930iMdn7bWDVusWezUrmGGu2K1WF7FgDyj1ht+qaK7qnnfgM7+e2Hem97iAZOekUPB1uvuaXLKaje3WrTvvGlOkcFq+jOFjE5D6yTWSffu36wXsZD6ijIXnTi1EHrZ6BKeSqmVC5QdaxT+vg/Mj+tj9/9k35WdTWqkaaGgwlvPvxQR1o8pw51cny6niXTAnDIK//Son0l1fypVzT0lVc0sGMD6aeFGv2ydUKe5osO0xWk77+WKLZMaz1n3XZo3ydU97i1jkkrrd9GGta2r5v+soa8G6k/6rXXS+b2rzyjNoFHFfHuEA1ZmEXIbv2u2nRvp0q7F+rTDZfeLJN+WqqZP5ZThxfapW5Bk0qsdm60Nr5hQ9XJbutPW+L+FRo/cql011Oube7Vqpz2rpltbe/m1Nu7c6Fe+NdSnazSSr3Mc3upoxqdWaP3Rl76nFHpXvOcO+pO63JQ656u/Tv0lQdzvE0AgNxlWjaYWhWmMKevjsZintfttzhczzMvtORIlrs1Okw3CvtiWuUCs2gmW7pkBi0HSqqSx1Yi3uFXs6PG9K6urVP7atRn2zP+Nimlwg3U6Z+BWjY3u/U64rUpcrPuaVjFnpeK3t5U962Jyt63gaY46tYl+tdnRdU19NI6jPIh/fRme+n/Bg/Xe5Exis9oe3Ys0fjXhmtIRtOkJdpm39Ql/pQOVyyX/Sa6RUvqxj1HUvQfB4D8Il5HigWqnOv17pR+3rBZQY+3yLQItlEpqHqGXUQyl6RdH8/UojMN1LVV7YutBOKPm9Gq/FTMUw5hbZu/9c/hU5m8ypoWG7OjValNR913k73MxTzeW3rv9xbq8XD1nLdKyErSbi2aHq4DtbtpwshLNUMahXTUsEmvqE3xzXrv/7679P5gdwUp3+YVjXyhlZq66nzcrTYvjNSwYOs52jdLZoKnaetLqc2rkzUsuc6JffsJ3RrowPKZWp5F4ORX/UH1aFNO6xYu1S7zvmu2ee4alX/8OT2c+m01Detvw6y7srs2SU78/GWs7hpmwjL3/mja/hW91MJPSWvWaVPKX2OBIPV4891Lz83UZendUUHnNuubn91/X0Urm3VUV3nrcinXZXve+5kVAOAKmVoVZvSRhxtKJbL4LJHfmOdjnpd5fte6JkdauRt05FN+lUPUY+RYPVk6Sm/3HWUPb5s5E5D0qL5S76zJRr+XOOvDyi7rA0zK1hF+tXVnSKR++NlT0rFdiybZAUTf7np2yCQtiqmjXsPsZtVplKrTzvow2U/3HF+oPkNma22Mhw/Ctdpr4OsjNSajqV97pRqHJymJ0ALA9SH+lE7YF003zD0/Wq+rhYvZ815mWifMGq7ha4qqw5DemYzilTPxu8M13Hr9P3JXbw14PHWYcThyqkatKaseL3f0+B5ypZJ+jtLyo+X0yCMeRnopXFvNW1eR1lsn9/Zb6+GfolxdQR5pkz50CbqnlerYl91i9f1/N0tNHtQjKUensZW/928KtX5nn27MqoWkn2o8/JTaaKX+82Ws9q6YreX+7fVim0xTjitzX+s0v18/1b0txPo3Xn+k7L5S/W41TxVMWSpXd70nb9qfs8LlAIC8490wh954yKECPnIGbp6HeT7meeVFububTyfpD/tiWkdirQ8qmTkXn0HT01M6sN++mGO7tTxtywVrWu7p81DBogoK6aYxbz6lUmtf0/jIrD9cBLV5Sfdtnan5WdTrOPz9fxVzX4M0TWP9VNP6wPPl155GK6mtDv3sAGLyLL3/r1fUq03tzFtXFCypug+/ovdfuUMHZv0ry23KUsmyqrTniE5mq8WK5dRRHWgYKC99ZgeAq8e0SLNeMt31N0qqknWmffJcRu9mlySdte6Uk3fV37/Te8OHaGZMdfUaNUwPV01z4u6Xydfz55Jco7NUKpu2S0q8di3/l/qMXCG/h4dpZLfGqcIGM4T6hFlHFTrAe6FKWn+cMu+XFVXe45Dp1jZXrm393K7kc/ZTv2+XClvvF566XdgtVy5xt6jwq1jWc6tPv4oKsn5fSTFHU4xek4HC1ntrlxba+/FwDf9YWXRZSeP4qRyH/40qpy+w7lfE/I4368BR93yypCMxWrdmiRbNner6nPJCd3c9DgBA/ta1qUPrBrq7epQskj+7spjtNttvnod5PnlVLgYdfioWl9GJcbxOHq+tSp6LcFgfPoqp6MGTKb5RS+mkTh6wPhBd1pDx1dUmbcsFa2pT3b7ak6JVFPpcb1X6dIl+yOpTjanX0aW1Dvx7ibZlWBD0iDZ9Eyu/DbPTBS7DF+1WsZ9+0CZv1h8p3UCd+rXQgekrcz6qSyqBqhkcrV3ZDJmS9u3SkZpVcty0FwCuPev1ruRP2u16LS6nGg0CtXdFZCav6257t8eoUbXsvTnF/7xEQ4b9Wwdu66fJI7upadpv8C3lyplAIFYHPNV/OnnEek2vonIpX2RN3Y3pL2t4ZDk9OXayhllvbkVTnbif0rdLV+qAtc7lb3S3C1ja0xsrXbdY/oa3iloWzTSnkfXu4J/y+uL+6VpzZObGzFdufY7wSxOQZKBYUZU/l6QklVWprCttW8x7ofXPjz9rzxV+f+BZknYtGa5n+43Sf9YdUVJADYU+3FEvDnhKze1bAADytzoVHVrb36EhrSX/G6QbzHt1Xs88rO0z22m212y32X7zPPKyXAw6zMgqGZwYn4/Vzpg6Csro2yQzssrZn+Wpx4WOx2hnjRqqmt1vXbzBr5wqVUrTtDQjpe/WS52lue9mUK9jz3f6f2qvAR4CFzMNbPObVn3v5aappQNV6egfGbSQya6ianRPAy37Mk3RNI+sD9Mrt6eqQQIA+Yf1ehdSynq9MzUypEotuunhYms0evhULY+K0eG4eB22XsuXL918qdXA8Uh9uiNYjdJ/aZ9eTLiGj12pUk+N0cj2GbfOK1Wlhsprs/buS/+qu3d3tKtFQtWLAUm8fpg5RO/tC9HIkd3UvLKnIKCo6jxsilZ6mMLMKC7SnWFm/sqKWhYrad7cf9GBDIp6H9i/3fp5qyrZnwH8iloXjh7QEU/v+XbLlUuKqlxV6fBvBz23qEg6qL0/S+UrZ9DiI6Vzu7VoVrj0eD/1Ct6u9+Zlp86WeS9sIb9za7ToyxwM0ZZdx6P06WcxCnpqpN59tac6tW+l5rfXVt1bA5VLnacAANfI880c+nlEAXW8w+EKEPIys31mO832mu3OD3K1RUfdOxro26j01c+TtkZpm3XSnFxZPr1ANWp2VF9uSF8b48CGKBVtXDvrDzBe9YcSTxdVsWz2Zfar0149Atdo7rfpPwTt/SlSVUKDXQXEPAkKbiV9tVkH7HmvSIpXUtliOfq2zBO/eq305PGFmhmVeRBz+Mt/K6JyN+VmV2cAyE1+9R5U292z3d3+CldXh5FvamiIn75fOEr/fOEFDXj7v9pTrKT75NO0pJi7RjW7tMjwtf2SeK0LX6IDIb31UkgWfUeqNFbLQClidVTqE/Bzm7U2/IgqtUseucuyZ43mRwWqU+/M6m74qXz15MKVaaZb3dtS/lYzf2VFLf3q3KHQwkf06acegoNz27V2RYz8Qpupkf1GHvSXxtaWfadl36R5zzwfr00RC9O0RjSfD6pL65fqUw9dMg9/819FqLr+3iSrN6Ak7fpstparnXq0bqCmjz+lRj/N1txsdFM174Vdb/PTrg9H6a01mRT9vhzHj7gKgVe9KfXfRtLWDdbz8mzbES9/OQIAuGrKB7hrd0T2d+iR20yrCae7hYeu9XC07u0w22O2y2yf2U6zvflFrtbo8KvdSm1iP9T8jSkCi98j9dbHfqlHC4mP1nsvDNfyFK0/yt/TUZUirBPmFM064n9eqHe2BqvDHZdijvgNs/XsMNMU1wtObdbyNbtTj7SSZH3oWPKhvm3SWndmO13xU43Hn1Ojbz9M/cEkyfqAF9FAoSm2P52b7tB9JVbqh8sZonB3pD7bGJv6Q1dcjPUBfKkSO7XIJFjKJtdQus+p8n+Ha/iSzTqQpotN0pHdipg9Su8c/JsGpil+BwD5S0k1faGbin36L/d7mKl71KanRk6epQUfztW8ycPUq0UV+cXHKGLyNO1t0S+L0Tps52O0Z71UqXC8dm7drm0epl1Hkt+EAhX6TCtVsk7Ah7y5UGs3WtdHrdS0UVMVUbqVeqR4Hz2892cdVlnpWPr1uSfrvcG+ba7zq61OA1qp/I+zNWD4DC2Pcm/DpsiFGtXvX1ru30rDHr80uoxqttZzruBguIbMXqNNZns3Rmr+m4MVUbhFmmKk1ueD5s+px21HtPyNvhq1MNJ9+63fafm7wzVg9nY16v6cQj10BUop6eclemd5ktp0flA1zIaUC1Gnp6pr0+wP0w19m47rvXCkujSRfpg7XM/3m6S5S9ZondmOqDVatGSJ5k4eos922rfPiSp1dF9hKWLmJH1m77d1n/1Lfb/9Q43sm1wSqKrWNiStXGq991u3jVyjH664yxEA4Fow3UDmdSmg6CEF9NxfHSpWyNTwsK+8Wg0o7Mcxj2se32yH2R6zXXm9m4on7i0etNXpHJtqjA3vMRXlP5ypT7cnufrr+t0coiefaqEaKc/1TdDx8n9Vc/grqSuNx+/W8lmztTbWz3XfUvXaq8vjDVIVVjNBR5/V1TVmcEj6b9J2LlTYxju0oGNmRThSOH9K29YuVcSXG7TpeDFrfUf0R+kGCu34tB6ul7rf9a6FXfT97XPVqaa9wJMjkRr/odSjX4irVkXS1g/1/NZgvZ/F9sRHTdWQ3x/U265Pzae09s1/S936qXkGhd0uOherdcuX6ovvN2vXuVIqFn9SxaoHq03H9mpeJcUOP25t12xru152b5dH5jYRgRroaVvPx+vAT5H6dHWUft59RMVu8tNha3/VaNhY94e2VtOqmSdCJyMn6T09o4Ehl1VoBQCuHvO+ED5Dc38qqeahf1OjWoG60S9JJw7GaNfG/2r5jlJq88xTGXQV8cC8tvadrU32rCeNuk9O9foYHxOpRR8s0Zc7TykpIFB3hjyoDg/frUopWm6Y96ThmVarbKWRH3ZUDXsuHfN++cZKtXk1i/e1tOznU8nD/ZJ+36zlC5coYmuMTp6z3v9LV9edoe31ZCsP3XXMfl75kRYt/0674qSigY1138Pt1aHWbr1lrV9p9om5/S7r/fr/Iqz3oVgT4RRVpTtC9MjDD6ppyvc7T85t1tzek/TlPf30fpcGlwIXM8TssFH6rFw3vf2ShxFjPDi5dY0+WxOp7+3naPiVrqJKgRXVtktPuWuv7Nb8p0bpQNrnYHjY70n7IzV/jv37LlxSjVo8Y332KarVXUZpeZthqT/THInW3Hf/rYjd8dbjttBLY5+62FIGAJC/LfnRqQ/WSV/tdiqgkHVWaN7uHKalhzdDB2t9TodKWu8dcQlSs+oOPd1Uan9b/gs2kjkGb5PG1XPkftABAEB+d+6I9v64Wd/H2hUjSlXSbbUbqEYgZ5UAACD3mEHd/rtdWrH1gr7aKR087VQxf4cSrOXn/rRv5Orqklk4cen6wjdIhfykPxKdqljCoWY1pdb1CuhvtSXXYGD5HEEHAAAAAAD5yMl4adN+p7YflLYckHYddurQKenUWSk+SfrzgnTBmgoUkG6wpqJ+7u4oFUpKNco7VL+SVLuiGfbckc0Rx/IXgg4AAAAAAOAzkoOOXC1GCgAAAAAAcDURdAAAAAAAAJ9B0AEAAAAAAHwGQQcAAAAAAPAZBB0AAAAAAMBnEHQAAAAAAACfQdABAAAAAAB8BkEHAAAAAADwGQQdAAAAAADAZxB0AAAAAAAAn0HQAQAAAAAAfAZBBwAAAAAA8BkEHQAAAAAAwGcQdAAAAAAAAJ9B0AEAAAAAAHwGQQcAAAAAAPAZBB0AAAAAAMBnEHQAAAAAAACf4XD9HLTV6foXAAAAAAAgvxpXz51zAAAAAAAA5H/S/wdYimS8RqqGpgAAAABJRU5ErkJggg==;" vertex="1" parent="1">
          <mxGeometry x="340" y="880" width="1082" height="1154" as="geometry" />
        </mxCell>
      </root>
    </mxGraphModel>
  </diagram>
</mxfile>
